<?xml version="1.0" encoding="UTF-8" standalone="no"?>
<!-- Created with Inkscape (http://www.inkscape.org/) -->

<svg
   version="1.0"
   width="678.8775"
   height="241.33949"
   viewBox="0 0 0.98530842 0.48854148"
   id="body"
   xmlns="http://www.w3.org/2000/svg"
   xmlns:svg="http://www.w3.org/2000/svg"
   xmlns:rdf="http://www.w3.org/1999/02/22-rdf-syntax-ns#"
   xmlns:cc="http://creativecommons.org/ns#"
   xmlns:dc="http://purl.org/dc/elements/1.1/">
  <defs
     id="defs304" />
  <title
     id="title3">SVG drawing</title>
  <desc
     id="desc5">This was produced by version 4.2 of GNU libplot, a free library for exporting 2-D vector graphics.</desc>
  <g
     transform="matrix(0,0.00252761,0.00252976,0,-0.22812523,-0.53856797)"
     style="font-style:normal;font-variant:normal;font-weight:normal;font-stretch:normal;letter-spacing:normal;word-spacing:normal;text-anchor:start;fill:none;fill-opacity:1;stroke:#000000;stroke-linecap:butt;stroke-linejoin:miter;stroke-miterlimit:10.433;stroke-dasharray:none;stroke-dashoffset:0;stroke-opacity:1"
     id="content"
     xml:space="preserve">



























<polygon
   points="387.36,64.227 271.82,64.227 271.82,52.047 387.36,52.047 "
   style="fill:#ff0000;fill-rule:nonzero;stroke:#ff0000;stroke-width:0"
   id="polygon51"
   transform="translate(0,3.2007646)" />
<polygon
   points="387.36,86.148 265.02,86.148 265.02,73.969 387.36,73.969 "
   style="fill:#0000ff;fill-rule:nonzero;stroke:#0000ff;stroke-width:0"
   id="polygon53"
   transform="translate(0,3.2007646)" />
<polygon
   points="387.36,108.07 251.43,108.07 251.43,95.887 387.36,95.887 "
   style="fill:#00ff00;fill-rule:nonzero;stroke:#00ff00;stroke-width:0"
   id="polygon55"
   transform="translate(0,3.2007646)" />
<polygon
   points="387.36,129.99 237.84,129.99 237.84,117.81 387.36,117.81 "
   style="fill:#ffff00;fill-rule:nonzero;stroke:#ffff00;stroke-width:0"
   id="polygon57"
   transform="translate(0,3.2007646)" />
<polygon
   points="387.36,151.91 231.04,151.91 231.04,139.73 387.36,139.73 "
   style="fill:#000000;fill-rule:nonzero;stroke-width:0"
   id="polygon59"
   transform="translate(0,3.2007646)" />
<text
   transform="matrix(0,1,1,0,0,0)"
   style="font-size:12px;font-family:Helvetica, sans-serif;fill:#000000;stroke:none;stroke-width:0.6"
   id="text61"
   x="58.001766"
   y="406.07999">1</text>

<text
   transform="matrix(0,1,1,0,0,0)"
   style="font-size:12px;font-family:Helvetica, sans-serif;fill:#000000;stroke:none;stroke-width:0.6"
   id="text63"
   x="79.923759"
   y="406.07999">2</text>

<text
   transform="matrix(0,1,1,0,0,0)"
   style="font-size:12px;font-family:Helvetica, sans-serif;fill:#000000;stroke:none;stroke-width:0.6"
   id="text65"
   x="101.84176"
   y="406.07999">3</text>

<text
   transform="matrix(0,1,1,0,0,0)"
   style="font-size:12px;font-family:Helvetica, sans-serif;fill:#000000;stroke:none;stroke-width:0.6"
   id="text67"
   x="123.76077"
   y="406.07999">4</text>

<text
   transform="matrix(0,1,1,0,0,0)"
   style="font-size:12px;font-family:Helvetica, sans-serif;fill:#000000;stroke:none;stroke-width:0.6"
   id="text69"
   x="145.68077"
   y="406.07999">5</text>

<line
   x1="353.38"
   y1="40.638767"
   x2="353.38"
   y2="172.16078"
   id="line71"
   style="stroke:#ffffff;stroke-width:0.75;stroke-linecap:round" />
<line
   x1="319.39001"
   y1="40.638767"
   x2="319.39001"
   y2="172.16078"
   id="line73"
   style="stroke:#ffffff;stroke-width:0.75;stroke-linecap:round" />
<line
   x1="285.41"
   y1="40.638767"
   x2="285.41"
   y2="172.16078"
   id="line75"
   style="stroke:#ffffff;stroke-width:0.75;stroke-linecap:round" />
<line
   x1="251.42"
   y1="40.638767"
   x2="251.42"
   y2="172.16078"
   id="line77"
   style="stroke:#ffffff;stroke-width:0.75;stroke-linecap:round" />
<line
   x1="217.44"
   y1="40.638767"
   x2="217.44"
   y2="172.16078"
   id="line79"
   style="stroke:#ffffff;stroke-width:0.75;stroke-linecap:round" />
<line
   x1="387.35999"
   y1="40.638767"
   x2="217.45"
   y2="40.638767"
   id="line81"
   style="stroke-width:0.75;stroke-linecap:round" />
<line
   x1="387.35999"
   y1="40.638767"
   x2="387.35999"
   y2="33.438766"
   id="line83"
   style="stroke-width:0.75;stroke-linecap:round" />
<line
   x1="353.38"
   y1="40.638767"
   x2="353.38"
   y2="33.438766"
   id="line85"
   style="stroke-width:0.75;stroke-linecap:round" />
<line
   x1="319.39001"
   y1="40.638767"
   x2="319.39001"
   y2="33.438766"
   id="line87"
   style="stroke-width:0.75;stroke-linecap:round" />
<line
   x1="285.41"
   y1="40.638767"
   x2="285.41"
   y2="33.438766"
   id="line89"
   style="stroke-width:0.75;stroke-linecap:round" />
<line
   x1="251.42"
   y1="40.638767"
   x2="251.42"
   y2="33.438766"
   id="line91"
   style="stroke-width:0.75;stroke-linecap:round" />
<line
   x1="217.44"
   y1="40.638767"
   x2="217.44"
   y2="33.438766"
   id="line93"
   style="stroke-width:0.75;stroke-linecap:round" />
<text
   transform="matrix(0,1,1,0,0,0)"
   style="font-size:12px;font-family:Helvetica, sans-serif;fill:#000000;stroke:none;stroke-width:0.6"
   id="text95"
   x="19.567764"
   y="391.67001">0</text>

<text
   transform="matrix(0,1,1,0,0,0)"
   style="font-size:12px;font-family:Helvetica, sans-serif;fill:#000000;stroke:none;stroke-width:0.6"
   id="text97"
   x="19.567764"
   y="357.67999">5</text>

<text
   transform="matrix(0,1,1,0,0,0)"
   style="font-size:12px;font-family:Helvetica, sans-serif;fill:#000000;stroke:none;stroke-width:0.6"
   id="text99"
   x="12.896064"
   y="323.70001">10</text>

<text
   transform="matrix(0,1,1,0,0,0)"
   style="font-size:12px;font-family:Helvetica, sans-serif;fill:#000000;stroke:none;stroke-width:0.6"
   id="text101"
   x="12.896064"
   y="289.72">15</text>

<text
   transform="matrix(0,1,1,0,0,0)"
   style="font-size:12px;font-family:Helvetica, sans-serif;fill:#000000;stroke:none;stroke-width:0.6"
   id="text103"
   x="12.896064"
   y="255.73">20</text>

<text
   transform="matrix(0,1,1,0,0,0)"
   style="font-size:12px;font-family:Helvetica, sans-serif;fill:#000000;stroke:none;stroke-width:0.6"
   id="text105"
   x="12.896064"
   y="221.75">25</text>




























<polygon
   points="251.43,256.23 251.43,244.05 387.36,244.05 387.36,256.23 "
   style="fill:#ff0000;fill-rule:nonzero;stroke:#ff0000;stroke-width:0"
   id="polygon149"
   transform="translate(0,4.8011468)" />
<polygon
   points="251.43,278.15 251.43,265.97 387.36,265.97 387.36,278.15 "
   style="fill:#0000ff;fill-rule:nonzero;stroke:#0000ff;stroke-width:0"
   id="polygon151"
   transform="translate(0,4.8011468)" />
<polygon
   points="258.23,300.07 258.23,287.89 387.36,287.89 387.36,300.07 "
   style="fill:#00ff00;fill-rule:nonzero;stroke:#00ff00;stroke-width:0"
   id="polygon153"
   transform="translate(0,4.8011468)" />
<polygon
   points="244.64,321.99 244.64,309.81 387.36,309.81 387.36,321.99 "
   style="fill:#ffff00;fill-rule:nonzero;stroke:#ffff00;stroke-width:0"
   id="polygon155"
   transform="translate(0,4.8011468)" />
<polygon
   points="251.43,343.91 251.43,331.73 387.36,331.73 387.36,343.91 "
   style="fill:#000000;fill-rule:nonzero;stroke-width:0"
   id="polygon157"
   transform="translate(0,4.8011468)" />
<text
   transform="matrix(0,1,1,0,0,0)"
   style="font-size:12px;font-family:Helvetica, sans-serif;fill:#000000;stroke:none;stroke-width:0.6"
   id="text159"
   x="251.60115"
   y="406.07999">1</text>

<text
   transform="matrix(0,1,1,0,0,0)"
   style="font-size:12px;font-family:Helvetica, sans-serif;fill:#000000;stroke:none;stroke-width:0.6"
   id="text161"
   x="273.52112"
   y="406.07999">2</text>

<text
   transform="matrix(0,1,1,0,0,0)"
   style="font-size:12px;font-family:Helvetica, sans-serif;fill:#000000;stroke:none;stroke-width:0.6"
   id="text163"
   x="295.44113"
   y="406.07999">3</text>

<text
   transform="matrix(0,1,1,0,0,0)"
   style="font-size:12px;font-family:Helvetica, sans-serif;fill:#000000;stroke:none;stroke-width:0.6"
   id="text165"
   x="317.36111"
   y="406.07999">4</text>

<text
   transform="matrix(0,1,1,0,0,0)"
   style="font-size:12px;font-family:Helvetica, sans-serif;fill:#000000;stroke:none;stroke-width:0.6"
   id="text167"
   x="339.28113"
   y="406.07999">5</text>

<line
   x1="353.38"
   y1="232.64078"
   x2="353.38"
   y2="364.16074"
   id="line169"
   style="stroke:#ffffff;stroke-width:0.75;stroke-linecap:round" />
<line
   x1="319.39001"
   y1="232.64078"
   x2="319.39001"
   y2="364.16074"
   id="line171"
   style="stroke:#ffffff;stroke-width:0.75;stroke-linecap:round" />
<line
   x1="285.41"
   y1="232.64078"
   x2="285.41"
   y2="364.16074"
   id="line173"
   style="stroke:#ffffff;stroke-width:0.75;stroke-linecap:round" />
<line
   x1="251.42"
   y1="232.64078"
   x2="251.42"
   y2="364.16074"
   id="line175"
   style="stroke:#ffffff;stroke-width:0.75;stroke-linecap:round" />
<line
   x1="217.44"
   y1="232.64078"
   x2="217.44"
   y2="364.16074"
   id="line177"
   style="stroke:#ffffff;stroke-width:0.75;stroke-linecap:round" />
<line
   x1="387.35999"
   y1="234.24117"
   x2="217.45"
   y2="234.24117"
   id="line179"
   style="stroke-width:0.75;stroke-linecap:round" />
<line
   x1="387.35999"
   y1="234.24117"
   x2="387.35999"
   y2="227.04117"
   id="line181"
   style="stroke-width:0.75;stroke-linecap:round" />
<line
   x1="353.38"
   y1="234.24117"
   x2="353.38"
   y2="227.04117"
   id="line183"
   style="stroke-width:0.75;stroke-linecap:round" />
<line
   x1="319.39001"
   y1="234.24117"
   x2="319.39001"
   y2="227.04117"
   id="line185"
   style="stroke-width:0.75;stroke-linecap:round" />
<line
   x1="285.41"
   y1="234.24117"
   x2="285.41"
   y2="227.04117"
   id="line187"
   style="stroke-width:0.75;stroke-linecap:round" />
<line
   x1="251.42"
   y1="234.24117"
   x2="251.42"
   y2="227.04117"
   id="line189"
   style="stroke-width:0.75;stroke-linecap:round" />
<line
   x1="217.44"
   y1="234.24117"
   x2="217.44"
   y2="227.04117"
   id="line191"
   style="stroke-width:0.75;stroke-linecap:round" />
<text
   transform="matrix(0,1,1,0,0,0)"
   style="font-size:12px;font-family:Helvetica, sans-serif;fill:#000000;stroke:none;stroke-width:0.6"
   id="text193"
   x="213.17116"
   y="391.67001">0</text>

<text
   transform="matrix(0,1,1,0,0,0)"
   style="font-size:12px;font-family:Helvetica, sans-serif;fill:#000000;stroke:none;stroke-width:0.6"
   id="text195"
   x="213.17116"
   y="357.67999">5</text>

<text
   transform="matrix(0,1,1,0,0,0)"
   style="font-size:12px;font-family:Helvetica, sans-serif;fill:#000000;stroke:none;stroke-width:0.6"
   id="text197"
   x="206.50116"
   y="323.70001">10</text>

<text
   transform="matrix(0,1,1,0,0,0)"
   style="font-size:12px;font-family:Helvetica, sans-serif;fill:#000000;stroke:none;stroke-width:0.6"
   id="text199"
   x="206.50116"
   y="289.72">15</text>

<text
   transform="matrix(0,1,1,0,0,0)"
   style="font-size:12px;font-family:Helvetica, sans-serif;fill:#000000;stroke:none;stroke-width:0.6"
   id="text201"
   x="206.50116"
   y="255.73">20</text>

<text
   transform="matrix(0,1,1,0,0,0)"
   style="font-size:12px;font-family:Helvetica, sans-serif;fill:#000000;stroke:none;stroke-width:0.6"
   id="text203"
   x="206.50116"
   y="221.75">25</text>



































































</g>
  <metadata
     id="metadata492">
    <rdf:RDF>
      <cc:Work
         rdf:about="">
        <dc:title>SVG drawing</dc:title>
      </cc:Work>
    </rdf:RDF>
  </metadata>
</svg>
