<?xml version="1.0" encoding="UTF-8" standalone="no"?>
<!-- Created with Inkscape (http://www.inkscape.org/) -->

<svg
   width="161.84195mm"
   height="41.016441mm"
   viewBox="0 0 161.84195 41.016441"
   version="1.1"
   id="svg5066"
   xmlns="http://www.w3.org/2000/svg"
   xmlns:svg="http://www.w3.org/2000/svg">
  <defs
     id="defs5063" />
  <g
     id="layer1"
     transform="translate(666.11165,31.834496)">
    <path
       style="fill:#f05928;fill-opacity:1;fill-rule:nonzero;stroke:none;stroke-width:0.352778"
       d="m -651.22783,5.0852216 h 3.31004 v -5.36056759 h -3.31004 z m 0,0"
       id="path1198" />
    <path
       style="fill:#f05928;fill-opacity:1;fill-rule:nonzero;stroke:none;stroke-width:0.352778"
       d="m -638.6491,5.0852216 h 3.31005 V -25.497577 h -3.31005 z m 0,0"
       id="path1200" />
    <path
       style="fill:#f05928;fill-opacity:1;fill-rule:nonzero;stroke:none;stroke-width:0.352778"
       d="m -625.25181,5.0852216 h 3.31004 V -7.8490437 h -3.31004 z m 0,0"
       id="path1202" />
    <path
       style="fill:#f05928;fill-opacity:1;fill-rule:nonzero;stroke:none;stroke-width:0.352778"
       d="m -612.61934,5.0852216 h 3.30867 V -10.216514 h -3.30867 z m 0,0"
       id="path1204" />
    <path
       style="fill:none;stroke:#211e1e;stroke-width:0.237419;stroke-linecap:butt;stroke-linejoin:miter;stroke-miterlimit:10;stroke-opacity:1"
       d="M -658.33851,-25.498956 V 6.7967468"
       id="path1206" />
    <path
       style="fill:none;stroke:#211e1e;stroke-width:0.237419;stroke-linecap:butt;stroke-linejoin:miter;stroke-miterlimit:10;stroke-opacity:1"
       d="m -661.68852,5.0659308 h 157.41881"
       id="path1208" />
    <path
       style="fill:none;stroke:#211e1e;stroke-width:0.237419;stroke-linecap:butt;stroke-linejoin:miter;stroke-miterlimit:10;stroke-opacity:1"
       d="m -661.37433,-10.216513 h 3.03581"
       id="path1210" />
    <path
       style="fill:none;stroke:#211e1e;stroke-width:0.237419;stroke-linecap:butt;stroke-linejoin:miter;stroke-miterlimit:10;stroke-opacity:1"
       d="m -661.37433,-25.498956 h 3.03581"
       id="path1212" />
    <g
       style="fill:#211e1e;fill-opacity:1"
       id="g1216"
       transform="matrix(0.35277777,0,0,0.35277777,-675.39449,-154.70657)">
      <g
         id="use1214"
         transform="translate(64.316948,464.51901)">
        <path
           style="stroke:none"
           d="M 3.8125,-6.328125 H 0.546875 V -5.375 h 2.1875 v 3.390625 c 0,0.640625 -0.328125,1 -0.890625,1 -0.4375,0 -0.9375,-0.25 -1.359375,-0.703125 l -0.5,0.8125 c 0.46875,0.578125 1.09375,0.921875 1.859375,0.921875 1.21875,0 1.96875,-0.71875 1.96875,-2 z m 0,0"
           id="path5601" />
      </g>
    </g>
    <g
       style="fill:#211e1e;fill-opacity:1"
       id="g1222"
       transform="matrix(0.35277777,0,0,0.35277777,-675.39449,-154.70657)">
      <g
         id="use1218"
         transform="translate(68.652283,464.51901)">
        <path
           style="stroke:none"
           d="M 4.921875,-1.421875 5.53125,0 H 6.671875 L 3.90625,-6.328125 H 2.796875 L 0.015625,0 H 1.125 L 1.734375,-1.421875 Z M 4.515625,-2.375 H 2.125 l 1.1875,-2.8125 z m 0,0"
           id="path5581" />
      </g>
      <g
         id="use1220"
         transform="translate(75.331772,464.51901)">
        <path
           style="stroke:none"
           d="M 6.328125,0 V -6.328125 H 5.28125 V -1.78125 L 1.875,-6.328125 H 0.828125 V 0 H 1.90625 V -4.546875 L 5.28125,0 Z m 0,0"
           id="path5569" />
      </g>
    </g>
    <g
       style="fill:#211e1e;fill-opacity:1"
       id="g1230"
       transform="matrix(0.35277777,0,0,0.35277777,-675.39449,-154.70657)">
      <g
         id="use1224"
         transform="translate(100.08571,464.51901)">
        <path
           style="stroke:none"
           d="m 5.078125,-5.375 v -0.953125 h -4.25 V 0 H 1.90625 v -2.59375 h 2.875 v -0.953125 h -2.875 V -5.375 Z m 0,0"
           id="path5717" />
      </g>
      <g
         id="use1226"
         transform="translate(105.28992,464.51901)">
        <path
           style="stroke:none"
           d="M 5.359375,-5.375 V -6.328125 H 0.828125 V 0 H 5.46875 v -0.953125 h -3.5625 v -1.75 H 5 V -3.65625 H 1.90625 V -5.375 Z m 0,0"
           id="path5705" />
      </g>
      <g
         id="use1228"
         transform="translate(111.22724,464.51901)">
        <path
           style="stroke:none"
           d="M 0.828125,-6.328125 V 0 h 2.8125 c 1.4375,0 2.3125,-0.65625 2.3125,-1.734375 0,-0.859375 -0.5,-1.453125 -1.359375,-1.609375 C 5.28125,-3.5 5.703125,-4.03125 5.703125,-4.75 c 0,-0.984375 -0.8125,-1.578125 -2.125,-1.578125 z m 1.078125,0.9375 h 1.625 c 0.671875,0 1.078125,0.296875 1.078125,0.828125 0,0.53125 -0.40625,0.859375 -1.078125,0.859375 h -1.625 z m 0,2.625 h 1.625 c 0.828125,0 1.328125,0.328125 1.328125,0.890625 0,0.59375 -0.5,0.921875 -1.328125,0.921875 h -1.625 z m 0,0"
           id="path5701" />
      </g>
    </g>
    <g
       style="fill:#211e1e;fill-opacity:1"
       id="g1238"
       transform="matrix(0.35277777,0,0,0.35277777,-675.39449,-154.70657)">
      <g
         id="use1232"
         transform="translate(136.02644,464.51901)">
        <path
           style="stroke:none"
           d="M 7.53125,0 V -6.328125 H 6.265625 L 4.1875,-2.125 2.09375,-6.328125 H 0.828125 V 0 H 1.84375 V -4.734375 L 3.828125,-0.65625 H 4.53125 l 2,-4.078125 L 6.546875,0 Z m 0,0"
           id="path5693" />
      </g>
      <g
         id="use1234"
         transform="translate(144.39844,464.51901)">
        <path
           style="stroke:none"
           d="M 4.921875,-1.421875 5.53125,0 H 6.671875 L 3.90625,-6.328125 H 2.796875 L 0.015625,0 H 1.125 L 1.734375,-1.421875 Z M 4.515625,-2.375 H 2.125 l 1.1875,-2.8125 z m 0,0"
           id="path5585" />
      </g>
      <g
         id="use1236"
         transform="translate(151.07793,464.51901)">
        <path
           style="stroke:none"
           d="M 4.84375,0 H 6.0625 L 4.640625,-2.109375 c 0.84375,-0.328125 1.3125,-1.046875 1.3125,-2.0625 0,-1.375 -0.9375,-2.15625 -2.546875,-2.15625 H 0.828125 V 0 H 1.90625 v -1.90625 h 1.5 c 0.09375,0 0.1875,0 0.28125,-0.015625 z m -2.9375,-2.875 v -2.5 h 1.5 c 0.96875,0 1.53125,0.40625 1.53125,1.234375 0,0.859375 -0.5625,1.265625 -1.53125,1.265625 z m 0,0"
           id="path5685" />
      </g>
    </g>
    <g
       style="fill:#211e1e;fill-opacity:1"
       id="g1246"
       transform="matrix(0.35277777,0,0,0.35277777,-675.39449,-154.70657)">
      <g
         id="use1240"
         transform="translate(172.60976,464.51901)">
        <path
           style="stroke:none"
           d="M 4.921875,-1.421875 5.53125,0 H 6.671875 L 3.90625,-6.328125 H 2.796875 L 0.015625,0 H 1.125 L 1.734375,-1.421875 Z M 4.515625,-2.375 H 2.125 l 1.1875,-2.8125 z m 0,0"
           id="path5589" />
      </g>
      <g
         id="use1242"
         transform="translate(179.28925,464.51901)">
        <path
           style="stroke:none"
           d="M 0.828125,-6.328125 V 0 H 1.90625 v -1.90625 h 1.453125 c 1.59375,0 2.5,-0.828125 2.5,-2.265625 0,-1.375 -0.90625,-2.15625 -2.5,-2.15625 z M 1.90625,-5.375 H 3.3125 c 0.96875,0 1.53125,0.40625 1.53125,1.234375 0,0.859375 -0.5625,1.265625 -1.53125,1.265625 H 1.90625 Z m 0,0"
           id="path5677" />
      </g>
      <g
         id="use1244"
         transform="translate(185.38043,464.51901)">
        <path
           style="stroke:none"
           d="M 4.84375,0 H 6.0625 L 4.640625,-2.109375 c 0.84375,-0.328125 1.3125,-1.046875 1.3125,-2.0625 0,-1.375 -0.9375,-2.15625 -2.546875,-2.15625 H 0.828125 V 0 H 1.90625 v -1.90625 h 1.5 c 0.09375,0 0.1875,0 0.28125,-0.015625 z m -2.9375,-2.875 v -2.5 h 1.5 c 0.96875,0 1.53125,0.40625 1.53125,1.234375 0,0.859375 -0.5625,1.265625 -1.53125,1.265625 z m 0,0"
           id="path5689" />
      </g>
    </g>
    <g
       style="fill:#211e1e;fill-opacity:1"
       id="g1252"
       transform="matrix(0.35277777,0,0,0.35277777,-675.39449,-154.70657)">
      <g
         id="use1248"
         transform="translate(206.76746,464.51901)">
        <path
           style="stroke:none"
           d="M 7.53125,0 V -6.328125 H 6.265625 L 4.1875,-2.125 2.09375,-6.328125 H 0.828125 V 0 H 1.84375 V -4.734375 L 3.828125,-0.65625 H 4.53125 l 2,-4.078125 L 6.546875,0 Z m 0,0"
           id="path5697" />
      </g>
      <g
         id="use1250"
         transform="translate(215.13943,464.51901)">
        <path
           style="stroke:none"
           d="M 4.921875,-1.421875 5.53125,0 H 6.671875 L 3.90625,-6.328125 H 2.796875 L 0.015625,0 H 1.125 L 1.734375,-1.421875 Z M 4.515625,-2.375 H 2.125 l 1.1875,-2.8125 z m 0,0"
           id="path5593" />
      </g>
    </g>
    <g
       style="fill:#211e1e;fill-opacity:1"
       id="g1256"
       transform="matrix(0.35277777,0,0,0.35277777,-675.39449,-154.70657)">
      <g
         id="use1254"
         transform="translate(221.37544,464.51901)">
        <path
           style="stroke:none"
           d="M 3.421875,-2.109375 5.75,-6.328125 H 4.671875 L 2.890625,-3.25 1.078125,-6.328125 h -1.0625 l 2.359375,4.25 V 0 h 1.046875 z m 0,0"
           id="path5673" />
      </g>
    </g>
    <g
       style="fill:#211e1e;fill-opacity:1"
       id="g1264"
       transform="matrix(0.35277777,0,0,0.35277777,-675.39449,-154.70657)">
      <g
         id="use1258"
         transform="translate(243.09744,464.51901)">
        <path
           style="stroke:none"
           d="M 3.8125,-6.328125 H 0.546875 V -5.375 h 2.1875 v 3.390625 c 0,0.640625 -0.328125,1 -0.890625,1 -0.4375,0 -0.9375,-0.25 -1.359375,-0.703125 l -0.5,0.8125 c 0.46875,0.578125 1.09375,0.921875 1.859375,0.921875 1.21875,0 1.96875,-0.71875 1.96875,-2 z m 0,0"
           id="path5605" />
      </g>
      <g
         id="use1260"
         transform="translate(247.6138,464.51901)">
        <path
           style="stroke:none"
           d="M 6.21875,-6.328125 H 5.140625 V -2.625 c 0,1.078125 -0.640625,1.71875 -1.671875,1.71875 -1.03125,0 -1.703125,-0.65625 -1.703125,-1.71875 v -3.703125 h -1.0625 V -2.625 c 0,1.65625 1.046875,2.671875 2.765625,2.671875 1.703125,0 2.75,-1.015625 2.75,-2.671875 z m 0,0"
           id="path5661" />
      </g>
      <g
         id="use1262"
         transform="translate(254.52861,464.51901)">
        <path
           style="stroke:none"
           d="M 6.328125,0 V -6.328125 H 5.28125 V -1.78125 L 1.875,-6.328125 H 0.828125 V 0 H 1.90625 V -4.546875 L 5.28125,0 Z m 0,0"
           id="path5573" />
      </g>
    </g>
    <g
       style="fill:#211e1e;fill-opacity:1"
       id="g1272"
       transform="matrix(0.35277777,0,0,0.35277777,-675.39449,-154.70657)">
      <g
         id="use1266"
         transform="translate(282.24216,464.51901)">
        <path
           style="stroke:none"
           d="M 3.8125,-6.328125 H 0.546875 V -5.375 h 2.1875 v 3.390625 c 0,0.640625 -0.328125,1 -0.890625,1 -0.4375,0 -0.9375,-0.25 -1.359375,-0.703125 l -0.5,0.8125 c 0.46875,0.578125 1.09375,0.921875 1.859375,0.921875 1.21875,0 1.96875,-0.71875 1.96875,-2 z m 0,0"
           id="path5609" />
      </g>
      <g
         id="use1268"
         transform="translate(286.75848,464.51901)">
        <path
           style="stroke:none"
           d="M 6.21875,-6.328125 H 5.140625 V -2.625 c 0,1.078125 -0.640625,1.71875 -1.671875,1.71875 -1.03125,0 -1.703125,-0.65625 -1.703125,-1.71875 v -3.703125 h -1.0625 V -2.625 c 0,1.65625 1.046875,2.671875 2.765625,2.671875 1.703125,0 2.75,-1.015625 2.75,-2.671875 z m 0,0"
           id="path5665" />
      </g>
      <g
         id="use1270"
         transform="translate(293.67331,464.51901)">
        <path
           style="stroke:none"
           d="M 1.90625,-0.96875 V -6.328125 H 0.828125 V 0 h 3.8125 v -0.96875 z m 0,0"
           id="path5657" />
      </g>
    </g>
    <g
       style="fill:#211e1e;fill-opacity:1"
       id="g1276"
       transform="matrix(0.35277777,0,0,0.35277777,-675.39449,-154.70657)">
      <g
         id="use1274"
         transform="translate(315.72104,464.51901)">
        <path
           style="stroke:none"
           d="M 4.921875,-1.421875 5.53125,0 H 6.671875 L 3.90625,-6.328125 H 2.796875 L 0.015625,0 H 1.125 L 1.734375,-1.421875 Z M 4.515625,-2.375 H 2.125 l 1.1875,-2.8125 z m 0,0"
           id="path5597" />
      </g>
    </g>
    <g
       style="fill:#211e1e;fill-opacity:1"
       id="g1282"
       transform="matrix(0.35277777,0,0,0.35277777,-675.39449,-154.70657)">
      <g
         id="use1278"
         transform="translate(322.21951,464.51901)">
        <path
           style="stroke:none"
           d="M 6.21875,-6.328125 H 5.140625 V -2.625 c 0,1.078125 -0.640625,1.71875 -1.671875,1.71875 -1.03125,0 -1.703125,-0.65625 -1.703125,-1.71875 v -3.703125 h -1.0625 V -2.625 c 0,1.65625 1.046875,2.671875 2.765625,2.671875 1.703125,0 2.75,-1.015625 2.75,-2.671875 z m 0,0"
           id="path5669" />
      </g>
      <g
         id="use1280"
         transform="translate(329.13434,464.51901)">
        <path
           style="stroke:none"
           d="m 5.171875,-3.109375 v 1.765625 c -0.453125,0.265625 -1,0.4375 -1.46875,0.4375 -1.28125,0 -2.3125,-1 -2.3125,-2.265625 0,-1.25 1.015625,-2.234375 2.3125,-2.234375 0.65625,0 1.34375,0.265625 1.828125,0.71875 l 0.609375,-0.78125 c -0.625,-0.546875 -1.53125,-0.890625 -2.4375,-0.890625 -1.921875,0 -3.390625,1.390625 -3.390625,3.1875 0,1.8125 1.453125,3.21875 3.328125,3.21875 0.859375,0 1.8125,-0.34375 2.453125,-0.828125 v -2.328125 z m 0,0"
           id="path5653" />
      </g>
    </g>
    <g
       style="fill:#211e1e;fill-opacity:1"
       id="g1290"
       transform="matrix(0.35277777,0,0,0.35277777,-675.39449,-154.70657)">
      <g
         id="use1284"
         transform="translate(352.43106,464.51901)">
        <path
           style="stroke:none"
           d="m 2.90625,-6.375 c -1.375,0 -2.296875,0.671875 -2.296875,1.765625 0,2.25 3.421875,1.46875 3.421875,2.875 0,0.484375 -0.453125,0.765625 -1.1875,0.765625 -0.6875,0 -1.5,-0.328125 -2.140625,-0.921875 l -0.46875,0.921875 c 0.65625,0.59375 1.59375,1 2.59375,1 1.390625,0 2.390625,-0.6875 2.390625,-1.828125 0,-2.28125 -3.421875,-1.53125 -3.421875,-2.921875 0,-0.421875 0.40625,-0.65625 1.03125,-0.65625 C 3.3125,-5.375 4,-5.203125 4.6875,-4.78125 L 5.125,-5.734375 C 4.546875,-6.109375 3.734375,-6.375 2.90625,-6.375 Z m 0,0"
           id="path5649" />
      </g>
      <g
         id="use1286"
         transform="translate(358.06064,464.51901)">
        <path
           style="stroke:none"
           d="M 5.359375,-5.375 V -6.328125 H 0.828125 V 0 H 5.46875 v -0.953125 h -3.5625 v -1.75 H 5 V -3.65625 H 1.90625 V -5.375 Z m 0,0"
           id="path5709" />
      </g>
      <g
         id="use1288"
         transform="translate(363.99799,464.51901)">
        <path
           style="stroke:none"
           d="M 0.828125,-6.328125 V 0 H 1.90625 v -1.90625 h 1.453125 c 1.59375,0 2.5,-0.828125 2.5,-2.265625 0,-1.375 -0.90625,-2.15625 -2.5,-2.15625 z M 1.90625,-5.375 H 3.3125 c 0.96875,0 1.53125,0.40625 1.53125,1.234375 0,0.859375 -0.5625,1.265625 -1.53125,1.265625 H 1.90625 Z m 0,0"
           id="path5681" />
      </g>
    </g>
    <g
       style="fill:#211e1e;fill-opacity:1"
       id="g1296"
       transform="matrix(0.35277777,0,0,0.35277777,-675.39449,-154.70657)">
      <g
         id="use1292"
         transform="translate(387.39435,464.51901)">
        <path
           style="stroke:none"
           d="m 3.65625,-6.359375 c -1.890625,0 -3.34375,1.375 -3.34375,3.1875 0,1.8125 1.453125,3.21875 3.34375,3.21875 1.90625,0 3.359375,-1.40625 3.359375,-3.21875 0,-1.796875 -1.453125,-3.1875 -3.359375,-3.1875 z m 0.015625,0.953125 c 1.234375,0 2.25,0.984375 2.25,2.234375 0,1.265625 -1.015625,2.265625 -2.25,2.265625 -1.234375,0 -2.28125,-1 -2.28125,-2.265625 0,-1.25 1.03125,-2.234375 2.28125,-2.234375 z m 0,0"
           id="path5641" />
      </g>
      <g
         id="use1294"
         transform="translate(394.47208,464.51901)">
        <path
           style="stroke:none"
           d="m 3.640625,-6.359375 c -1.875,0 -3.328125,1.390625 -3.328125,3.1875 0,1.8125 1.4375,3.21875 3.28125,3.21875 0.90625,0 1.8125,-0.40625 2.453125,-1.046875 l -0.625,-0.703125 c -0.484375,0.46875 -1.140625,0.75 -1.765625,0.75 -1.265625,0 -2.265625,-0.984375 -2.265625,-2.234375 0,-1.25 1,-2.21875 2.265625,-2.21875 0.640625,0 1.296875,0.296875 1.765625,0.796875 l 0.625,-0.78125 c -0.625,-0.59375 -1.515625,-0.96875 -2.40625,-0.96875 z m 0,0"
           id="path5633" />
      </g>
    </g>
    <g
       style="fill:#211e1e;fill-opacity:1"
       id="g1300"
       transform="matrix(0.35277777,0,0,0.35277777,-675.39449,-154.70657)">
      <g
         id="use1298"
         transform="translate(400.78049,464.51901)">
        <path
           style="stroke:none"
           d="M 5.15625,-5.375 V -6.328125 H 0.078125 V -5.375 h 2 V 0 h 1.0625 v -5.375 z m 0,0"
           id="path5629" />
      </g>
    </g>
    <g
       style="fill:#211e1e;fill-opacity:1"
       id="g1306"
       transform="matrix(0.35277777,0,0,0.35277777,-675.39449,-154.70657)">
      <g
         id="use1302"
         transform="translate(424.35776,464.51901)">
        <path
           style="stroke:none"
           d="M 6.328125,0 V -6.328125 H 5.28125 V -1.78125 L 1.875,-6.328125 H 0.828125 V 0 H 1.90625 V -4.546875 L 5.28125,0 Z m 0,0"
           id="path5577" />
      </g>
      <g
         id="use1304"
         transform="translate(431.52597,464.51901)">
        <path
           style="stroke:none"
           d="m 3.65625,-6.359375 c -1.890625,0 -3.34375,1.375 -3.34375,3.1875 0,1.8125 1.453125,3.21875 3.34375,3.21875 1.90625,0 3.359375,-1.40625 3.359375,-3.21875 0,-1.796875 -1.453125,-3.1875 -3.359375,-3.1875 z m 0.015625,0.953125 c 1.234375,0 2.25,0.984375 2.25,2.234375 0,1.265625 -1.015625,2.265625 -2.25,2.265625 -1.234375,0 -2.28125,-1 -2.28125,-2.265625 0,-1.25 1.03125,-2.234375 2.28125,-2.234375 z m 0,0"
           id="path5645" />
      </g>
    </g>
    <g
       style="fill:#211e1e;fill-opacity:1"
       id="g1310"
       transform="matrix(0.35277777,0,0,0.35277777,-675.39449,-154.70657)">
      <g
         id="use1308"
         transform="translate(438.76663,464.51901)">
        <path
           style="stroke:none"
           d="m 3.65625,0 2.5625,-6.328125 H 5.109375 L 3.125,-1.1875 1.171875,-6.328125 H 0.03125 L 2.546875,0 Z m 0,0"
           id="path5625" />
      </g>
    </g>
    <g
       style="fill:#211e1e;fill-opacity:1"
       id="g1318"
       transform="matrix(0.35277777,0,0,0.35277777,-675.39449,-154.70657)">
      <g
         id="use1312"
         transform="translate(460.49765,464.51901)">
        <path
           style="stroke:none"
           d="M 0.828125,-6.328125 V 0 H 3.40625 c 1.90625,0 3.296875,-1.34375 3.296875,-3.171875 0,-1.828125 -1.375,-3.15625 -3.28125,-3.15625 z M 1.90625,-5.375 h 1.5 c 1.25,0 2.21875,0.921875 2.21875,2.21875 0,1.28125 -0.9375,2.203125 -2.171875,2.203125 H 1.90625 Z m 0,0"
           id="path5621" />
      </g>
      <g
         id="use1314"
         transform="translate(467.51202,464.51901)">
        <path
           style="stroke:none"
           d="M 5.359375,-5.375 V -6.328125 H 0.828125 V 0 H 5.46875 v -0.953125 h -3.5625 v -1.75 H 5 V -3.65625 H 1.90625 V -5.375 Z m 0,0"
           id="path5713" />
      </g>
      <g
         id="use1316"
         transform="translate(473.44934,464.51901)">
        <path
           style="stroke:none"
           d="m 3.640625,-6.359375 c -1.875,0 -3.328125,1.390625 -3.328125,3.1875 0,1.8125 1.4375,3.21875 3.28125,3.21875 0.90625,0 1.8125,-0.40625 2.453125,-1.046875 l -0.625,-0.703125 c -0.484375,0.46875 -1.140625,0.75 -1.765625,0.75 -1.265625,0 -2.265625,-0.984375 -2.265625,-2.234375 0,-1.25 1,-2.21875 2.265625,-2.21875 0.640625,0 1.296875,0.296875 1.765625,0.796875 l 0.625,-0.78125 c -0.625,-0.59375 -1.515625,-0.96875 -2.40625,-0.96875 z m 0,0"
           id="path5637" />
      </g>
    </g>
    <g
       style="fill:#211e1e;fill-opacity:1"
       id="g1322"
       transform="matrix(0.35277777,0,0,0.35277777,-675.39449,-154.70657)">
      <g
         id="use1320"
         transform="translate(28.602493,455.79404)">
        <path
           style="stroke:none"
           d="m 3.125,-6.359375 c -1.734375,0 -2.6875,1.140625 -2.6875,3.1875 0,2.0625 0.953125,3.203125 2.6875,3.203125 1.734375,0 2.6875,-1.140625 2.6875,-3.203125 0,-2.046875 -0.953125,-3.1875 -2.6875,-3.1875 z m 0,0.84375 c 1.0625,0 1.59375,0.734375 1.59375,2.34375 0,1.609375 -0.53125,2.359375 -1.59375,2.359375 -1.0625,0 -1.59375,-0.75 -1.59375,-2.359375 0,-1.609375 0.53125,-2.34375 1.59375,-2.34375 z m 0,0"
           id="path5613" />
      </g>
    </g>
    <g
       style="fill:#211e1e;fill-opacity:1"
       id="g1326"
       transform="matrix(0.35277777,0,0,0.35277777,-675.39449,-154.70657)">
      <g
         id="use1324"
         transform="translate(29.118389,412.73032)">
        <path
           style="stroke:none"
           d="M 4.578125,-5.375 4.5625,-6.328125 H 0.71875 v 3.34375 C 1.140625,-3.03125 2,-3.0625 2.375,-3.0625 c 0.8125,0 1.3125,0.390625 1.3125,1.03125 0,0.71875 -0.5,1.140625 -1.3125,1.140625 -0.578125,0 -1.203125,-0.234375 -1.71875,-0.671875 l -0.421875,0.875 c 0.625,0.4375 1.5,0.71875 2.25,0.71875 1.421875,0 2.34375,-0.84375 2.34375,-2.125 0,-1.109375 -0.890625,-1.921875 -2.265625,-1.921875 L 1.703125,-4 v -1.375 z m 0,0"
           id="path5565" />
      </g>
    </g>
    <g
       style="fill:#211e1e;fill-opacity:1"
       id="g1332"
       transform="matrix(0.35277777,0,0,0.35277777,-675.39449,-154.70657)">
      <g
         id="use1328"
         transform="translate(26.188551,368.9614)">
        <path
           style="stroke:none"
           d="M 2.421875,0 V -6.328125 H 0.125 v 0.9375 H 1.359375 V 0 Z m 0,0"
           id="path5561" />
      </g>
      <g
         id="use1330"
         transform="translate(29.69121,368.9614)">
        <path
           style="stroke:none"
           d="m 3.125,-6.359375 c -1.734375,0 -2.6875,1.140625 -2.6875,3.1875 0,2.0625 0.953125,3.203125 2.6875,3.203125 1.734375,0 2.6875,-1.140625 2.6875,-3.203125 0,-2.046875 -0.953125,-3.1875 -2.6875,-3.1875 z m 0,0.84375 c 1.0625,0 1.59375,0.734375 1.59375,2.34375 0,1.609375 -0.53125,2.359375 -1.59375,2.359375 -1.0625,0 -1.59375,-0.75 -1.59375,-2.359375 0,-1.609375 0.53125,-2.34375 1.59375,-2.34375 z m 0,0"
           id="path5617" />
      </g>
    </g>
    <path
       style="fill:#f05928;fill-opacity:1;fill-rule:nonzero;stroke:none;stroke-width:0.352778"
       d="m -600.50914,5.0852216 h 3.30867 V -13.8504 h -3.30867 z m 0,0"
       id="path1334" />
    <path
       style="fill:#f05928;fill-opacity:1;fill-rule:nonzero;stroke:none;stroke-width:0.352778"
       d="m -587.97037,5.0852216 h 3.30867 V -23.052937 h -3.30867 z m 0,0"
       id="path1336" />
    <path
       style="fill:#f05928;fill-opacity:1;fill-rule:nonzero;stroke:none;stroke-width:0.352778"
       d="m -574.60891,5.0852216 h 3.31005 v -2.680282 h -3.31005 z m 0,0"
       id="path1338" />
    <path
       style="fill:#f05928;fill-opacity:1;fill-rule:nonzero;stroke:none;stroke-width:0.352778"
       d="m -562.10597,5.0852216 h 3.31004 V -3.578503 h -3.31004 z m 0,0"
       id="path1340" />
    <path
       style="fill:#f05928;fill-opacity:1;fill-rule:nonzero;stroke:none;stroke-width:0.352778"
       d="m -549.60166,5.0852216 h 3.31005 V -10.216514 h -3.31005 z m 0,0"
       id="path1342" />
    <path
       style="fill:#f05928;fill-opacity:1;fill-rule:nonzero;stroke:none;stroke-width:0.352778"
       d="m -537.09734,5.0852216 h 3.30867 V -3.578503 h -3.30867 z m 0,0"
       id="path1344" />
    <path
       style="fill:#f05928;fill-opacity:1;fill-rule:nonzero;stroke:none;stroke-width:0.352778"
       d="m -523.70005,5.0852216 h 3.30867 V -7.8490437 h -3.30867 z m 0,0"
       id="path1346" />
    <path
       style="fill:#f05928;fill-opacity:1;fill-rule:nonzero;stroke:none;stroke-width:0.352778"
       d="m -511.19711,5.0852216 h 3.31005 V -16.511393 h -3.31005 z m 0,0"
       id="path1348" />
    <g
       style="fill:#d15426;fill-opacity:1"
       id="g1808"
       transform="matrix(0.35277777,0,0,0.35277777,-675.39449,-154.70657)">
      <g
         id="use1800"
         transform="translate(397.74289,360.1113)">
        <path
           style="stroke:none"
           d="m 8.4375,-10.5 v 4.140625 H 3.671875 V -10.5 H 1.25 V 0 H 3.671875 V -4.3125 H 8.4375 V 0 h 2.4375 v -10.5 z m 0,0"
           id="path5541" />
      </g>
      <g
         id="use1802"
         transform="translate(409.86292,360.1113)">
        <path
           style="stroke:none"
           d="m 2.25,-9.1875 c 0.875,0 1.453125,-0.578125 1.453125,-1.359375 0,-0.71875 -0.578125,-1.265625 -1.453125,-1.265625 -0.875,0 -1.453125,0.578125 -1.453125,1.3125 0,0.734375 0.578125,1.3125 1.453125,1.3125 z M 1.078125,0 h 2.34375 v -8.0625 h -2.34375 z m 0,0"
           id="path5545" />
      </g>
      <g
         id="use1804"
         transform="translate(414.3779,360.1113)">
        <path
           style="stroke:none"
           d="m 3.796875,0.125 c 2.40625,0 3.8125,-1.0625 3.8125,-2.5625 0,-3.1875 -4.875,-1.859375 -4.875,-3.234375 0,-0.421875 0.453125,-0.75 1.5,-0.75 0.734375,0 1.53125,0.15625 2.328125,0.609375 L 7.328125,-7.484375 C 6.5625,-7.9375 5.34375,-8.1875 4.234375,-8.1875 1.875,-8.1875 0.5,-7.109375 0.5,-5.578125 c 0,3.21875 4.875,1.875 4.875,3.1875 0,0.453125 -0.40625,0.734375 -1.484375,0.734375 -1,0 -2.09375,-0.3125 -2.8125,-0.78125 L 0.296875,-0.75 c 0.75,0.5 2.140625,0.875 3.5,0.875 z m 0,0"
           id="path5537" />
      </g>
      <g
         id="use1806"
         transform="translate(422.3429,360.1113)">
        <path
           style="stroke:none"
           d="m 5.65625,-2.046875 c -0.25,0.203125 -0.59375,0.3125 -0.953125,0.3125 -0.625,0 -1,-0.375 -1,-1.078125 V -6.09375 H 5.71875 V -7.890625 H 3.703125 v -1.96875 h -2.34375 v 1.96875 H 0.125 v 1.796875 h 1.234375 v 3.3125 c 0,1.921875 1.109375,2.90625 3.015625,2.90625 0.71875,0 1.4375,-0.171875 1.90625,-0.515625 z m 0,0"
           id="path5553" />
      </g>
    </g>
    <g
       style="fill:#d15426;fill-opacity:1"
       id="g1816"
       transform="matrix(0.35277777,0,0,0.35277777,-675.39449,-154.70657)">
      <g
         id="use1810"
         transform="translate(428.61292,360.1113)">
        <path
           style="stroke:none"
           d="m 4.921875,0.125 c 2.5625,0 4.421875,-1.734375 4.421875,-4.15625 0,-2.4375 -1.859375,-4.15625 -4.421875,-4.15625 -2.5625,0 -4.4375,1.71875 -4.4375,4.15625 0,2.421875 1.875,4.15625 4.4375,4.15625 z m 0,-1.921875 c -1.171875,0 -2.078125,-0.84375 -2.078125,-2.234375 0,-1.40625 0.90625,-2.234375 2.078125,-2.234375 1.171875,0 2.046875,0.828125 2.046875,2.234375 0,1.390625 -0.875,2.234375 -2.046875,2.234375 z m 0,0"
           id="path5533" />
      </g>
      <g
         id="use1812"
         transform="translate(438.4379,360.1113)">
        <path
           style="stroke:none"
           d="m 7.1875,-8.0625 v 1.03125 C 6.5625,-7.8125 5.640625,-8.1875 4.515625,-8.1875 c -2.234375,0 -4.03125,1.546875 -4.03125,3.890625 0,2.359375 1.796875,3.90625 4.03125,3.90625 1.046875,0 1.9375,-0.328125 2.546875,-1 v 0.34375 c 0,1.453125 -0.71875,2.203125 -2.375,2.203125 -1.03125,0 -2.15625,-0.359375 -2.84375,-0.921875 l -0.921875,1.6875 C 1.859375,2.65625 3.34375,3.03125 4.875,3.03125 c 2.90625,0 4.53125,-1.375 4.53125,-4.375 V -8.0625 Z m -2.203125,5.75 C 3.75,-2.3125 2.84375,-3.109375 2.84375,-4.296875 c 0,-1.171875 0.90625,-1.96875 2.140625,-1.96875 1.21875,0 2.109375,0.796875 2.109375,1.96875 0,1.1875 -0.890625,1.984375 -2.109375,1.984375 z m 0,0"
           id="path5529" />
      </g>
      <g
         id="use1814"
         transform="translate(448.9379,360.1113)">
        <path
           style="stroke:none"
           d="M 3.3125,-7 V -8.0625 H 1.078125 V 0 h 2.34375 v -3.8125 c 0,-1.546875 0.859375,-2.25 2.140625,-2.25 0.1875,0 0.328125,0.015625 0.53125,0.03125 V -8.1875 c -1.25,0 -2.203125,0.40625 -2.78125,1.1875 z m 0,0"
           id="path5549" />
      </g>
    </g>
    <g
       style="fill:#d15426;fill-opacity:1"
       id="g1822"
       transform="matrix(0.35277777,0,0,0.35277777,-675.39449,-154.70657)">
      <g
         id="use1818"
         transform="translate(455.29791,360.1113)">
        <path
           style="stroke:none"
           d="m 4.328125,-8.1875 c -1.28125,0 -2.59375,0.34375 -3.46875,0.96875 L 1.6875,-5.578125 c 0.59375,-0.46875 1.484375,-0.75 2.328125,-0.75 1.265625,0 1.859375,0.578125 1.859375,1.59375 H 4.015625 c -2.453125,0 -3.453125,0.984375 -3.453125,2.40625 0,1.390625 1.125,2.453125 3,2.453125 1.1875,0 2.03125,-0.390625 2.46875,-1.125 v 1 h 2.1875 v -4.609375 c 0,-2.4375 -1.421875,-3.578125 -3.890625,-3.578125 z M 4.15625,-1.453125 c -0.828125,0 -1.328125,-0.390625 -1.328125,-0.984375 0,-0.53125 0.359375,-0.9375 1.453125,-0.9375 H 5.875 v 0.828125 c -0.265625,0.734375 -0.9375,1.09375 -1.71875,1.09375 z m 0,0"
           id="path5557" />
      </g>
      <g
         id="use1820"
         transform="translate(464.55289,360.1113)">
        <path
           style="stroke:none"
           d="m 11.421875,-8.1875 c -1.21875,0 -2.265625,0.5 -2.921875,1.3125 -0.5625,-0.875 -1.53125,-1.3125 -2.65625,-1.3125 -1.03125,0 -1.921875,0.359375 -2.53125,1.046875 V -8.0625 H 1.078125 V 0 h 2.34375 v -4.046875 c 0,-1.4375 0.734375,-2.125 1.765625,-2.125 0.984375,0 1.53125,0.609375 1.53125,1.90625 V 0 H 9.0625 v -4.046875 c 0,-1.4375 0.734375,-2.125 1.78125,-2.125 0.953125,0 1.53125,0.609375 1.53125,1.90625 V 0 h 2.34375 v -4.625 c 0,-2.453125 -1.390625,-3.5625 -3.296875,-3.5625 z m 0,0"
           id="path5525" />
      </g>
    </g>
  </g>
</svg>
