<?xml version="1.0" encoding="UTF-8" standalone="no"?>
<!-- Created with Inkscape (http://www.inkscape.org/) -->

<svg
   width="156.61533mm"
   height="22.411165mm"
   viewBox="0 0 156.61533 22.411165"
   version="1.1"
   id="svg9357"
   xmlns="http://www.w3.org/2000/svg"
   xmlns:svg="http://www.w3.org/2000/svg">
  <defs
     id="defs9354">
    <clipPath
       id="clip3">
      <path
         d="m 547,534.19531 h 17 V 550 h -17 z m 0,0"
         id="path685" />
    </clipPath>
    <clipPath
       id="clip4">
      <path
         d="m 585,534.19531 h 17 V 550 h -17 z m 0,0"
         id="path688" />
    </clipPath>
    <clipPath
       id="clip5">
      <path
         d="m 623,534.19531 h 17 V 550 h -17 z m 0,0"
         id="path691" />
    </clipPath>
    <clipPath
       id="clip6">
      <path
         d="m 661,534.19531 h 17 V 550 h -17 z m 0,0"
         id="path694" />
    </clipPath>
    <clipPath
       id="clip7">
      <path
         d="m 699,534.19531 h 17 V 550 h -17 z m 0,0"
         id="path697" />
    </clipPath>
    <clipPath
       id="clip8">
      <path
         d="m 737,534.19531 h 16 V 550 h -16 z m 0,0"
         id="path700" />
    </clipPath>
    <clipPath
       id="clip9">
      <path
         d="m 775,534.19531 h 16 V 550 h -16 z m 0,0"
         id="path703" />
    </clipPath>
    <clipPath
       id="clip10">
      <path
         d="m 812,534.19531 h 17 V 550 h -17 z m 0,0"
         id="path706" />
    </clipPath>
    <clipPath
       id="clip11">
      <path
         d="m 850,534.19531 h 17 V 550 h -17 z m 0,0"
         id="path709" />
    </clipPath>
    <clipPath
       id="clip12">
      <path
         d="m 888,534.19531 h 17 V 550 h -17 z m 0,0"
         id="path712" />
    </clipPath>
    <clipPath
       id="clip13">
      <path
         d="m 926,534.19531 h 17 V 550 h -17 z m 0,0"
         id="path715" />
    </clipPath>
    <clipPath
       id="clip14">
      <path
         d="m 964,534.19531 h 17 V 550 h -17 z m 0,0"
         id="path718" />
    </clipPath>
  </defs>
  <g
     id="layer1"
     transform="translate(-149.47623,-234.19696)">
    <g
       style="fill:#211e1e;fill-opacity:1"
       id="g1484"
       transform="matrix(0.35277777,0,0,0.35277777,-43.110177,56.413371)">
      <g
         id="use1482"
         transform="translate(545.92987,567.43433)">
        <path
           style="stroke:none"
           d="m 4.015625,-6.65625 h -3.4375 v 1 h 2.3125 v 3.5625 c 0,0.6875 -0.359375,1.0625 -0.953125,1.0625 -0.46875,0 -0.984375,-0.265625 -1.421875,-0.734375 l -0.53125,0.859375 c 0.484375,0.609375 1.15625,0.953125 1.953125,0.953125 1.28125,0 2.078125,-0.765625 2.078125,-2.109375 z m 0,0"
           id="path10055" />
      </g>
    </g>
    <g
       style="fill:#211e1e;fill-opacity:1"
       id="g1490"
       transform="matrix(0.35277777,0,0,0.35277777,-43.110177,56.413371)">
      <g
         id="use1486"
         transform="translate(550.4884,567.43433)">
        <path
           style="stroke:none"
           d="M 5.171875,-1.5 5.8125,0 H 7.015625 L 4.09375,-6.65625 H 2.953125 L 0.015625,0 H 1.1875 l 0.625,-1.5 z M 4.75,-2.5 H 2.234375 L 3.5,-5.46875 Z m 0,0"
           id="path10035" />
      </g>
      <g
         id="use1488"
         transform="translate(557.51184,567.43433)">
        <path
           style="stroke:none"
           d="M 6.65625,0 V -6.65625 H 5.546875 V -1.875 l -3.5625,-4.78125 H 0.875 V 0 H 2 V -4.78125 L 5.546875,0 Z m 0,0"
           id="path10023" />
      </g>
    </g>
    <g
       style="fill:#211e1e;fill-opacity:1"
       id="g1498"
       transform="matrix(0.35277777,0,0,0.35277777,-43.110177,56.413371)">
      <g
         id="use1492"
         transform="translate(583.54028,567.43433)">
        <path
           style="stroke:none"
           d="m 5.34375,-5.65625 v -1 H 0.875 V 0 H 2 v -2.734375 h 3.03125 v -1 H 2 V -5.65625 Z m 0,0"
           id="path10019" />
      </g>
      <g
         id="use1494"
         transform="translate(589.01245,567.43433)">
        <path
           style="stroke:none"
           d="m 5.640625,-5.65625 v -1 H 0.875 V 0 H 5.75 V -1.015625 H 2 V -2.84375 H 5.25 V -3.859375 H 2 V -5.65625 Z m 0,0"
           id="path10007" />
      </g>
      <g
         id="use1496"
         transform="translate(595.25543,567.43433)">
        <path
           style="stroke:none"
           d="M 0.875,-6.65625 V 0 h 2.953125 c 1.515625,0 2.4375,-0.6875 2.4375,-1.828125 0,-0.890625 -0.53125,-1.53125 -1.4375,-1.6875 C 5.5625,-3.6875 6,-4.25 6,-5 6,-6.03125 5.140625,-6.65625 3.765625,-6.65625 Z m 1.125,1 h 1.71875 c 0.703125,0 1.140625,0.296875 1.140625,0.859375 0,0.5625 -0.4375,0.890625 -1.140625,0.890625 H 2 Z m 0,2.75 h 1.71875 c 0.875,0 1.390625,0.34375 1.390625,0.9375 C 5.109375,-1.34375 4.59375,-1 3.71875,-1 H 2 Z m 0,0"
           id="path10003" />
      </g>
    </g>
    <g
       style="fill:#211e1e;fill-opacity:1"
       id="g1506"
       transform="matrix(0.35277777,0,0,0.35277777,-43.110177,56.413371)">
      <g
         id="use1500"
         transform="translate(621.33148,567.43433)">
        <path
           style="stroke:none"
           d="M 7.921875,0 V -6.65625 H 6.59375 L 4.40625,-2.234375 2.203125,-6.65625 H 0.875 V 0 H 1.9375 V -4.984375 L 4.03125,-0.6875 H 4.765625 L 6.875,-4.984375 V 0 Z m 0,0"
           id="path9995" />
      </g>
      <g
         id="use1502"
         transform="translate(630.13452,567.43433)">
        <path
           style="stroke:none"
           d="M 5.171875,-1.5 5.8125,0 H 7.015625 L 4.09375,-6.65625 H 2.953125 L 0.015625,0 H 1.1875 l 0.625,-1.5 z M 4.75,-2.5 H 2.234375 L 3.5,-5.46875 Z m 0,0"
           id="path10039" />
      </g>
      <g
         id="use1504"
         transform="translate(637.1579,567.43433)">
        <path
           style="stroke:none"
           d="M 5.09375,0 H 6.375 l -1.5,-2.234375 c 0.890625,-0.328125 1.390625,-1.09375 1.390625,-2.15625 0,-1.4375 -0.984375,-2.265625 -2.6875,-2.265625 H 0.875 V 0 H 2 V -2 H 3.578125 C 3.6875,-2 3.78125,-2 3.875,-2.015625 Z M 2,-3.015625 V -5.65625 h 1.578125 c 1.03125,0 1.625,0.421875 1.625,1.296875 0,0.90625 -0.59375,1.34375 -1.625,1.34375 z m 0,0"
           id="path9987" />
      </g>
    </g>
    <g
       style="fill:#211e1e;fill-opacity:1"
       id="g1514"
       transform="matrix(0.35277777,0,0,0.35277777,-43.110177,56.413371)">
      <g
         id="use1508"
         transform="translate(659.79834,567.43433)">
        <path
           style="stroke:none"
           d="M 5.171875,-1.5 5.8125,0 H 7.015625 L 4.09375,-6.65625 H 2.953125 L 0.015625,0 H 1.1875 l 0.625,-1.5 z M 4.75,-2.5 H 2.234375 L 3.5,-5.46875 Z m 0,0"
           id="path10043" />
      </g>
      <g
         id="use1510"
         transform="translate(666.82178,567.43433)">
        <path
           style="stroke:none"
           d="M 0.875,-6.65625 V 0 H 2 v -2 h 1.53125 c 1.671875,0 2.640625,-0.890625 2.640625,-2.390625 0,-1.4375 -0.96875,-2.265625 -2.640625,-2.265625 z m 1.125,1 h 1.484375 c 1.03125,0 1.609375,0.421875 1.609375,1.296875 0,0.90625 -0.578125,1.34375 -1.609375,1.34375 H 2 Z m 0,0"
           id="path9979" />
      </g>
      <g
         id="use1512"
         transform="translate(673.22656,567.43433)">
        <path
           style="stroke:none"
           d="M 5.09375,0 H 6.375 l -1.5,-2.234375 c 0.890625,-0.328125 1.390625,-1.09375 1.390625,-2.15625 0,-1.4375 -0.984375,-2.265625 -2.6875,-2.265625 H 0.875 V 0 H 2 V -2 H 3.578125 C 3.6875,-2 3.78125,-2 3.875,-2.015625 Z M 2,-3.015625 V -5.65625 h 1.578125 c 1.03125,0 1.625,0.421875 1.625,1.296875 0,0.90625 -0.59375,1.34375 -1.625,1.34375 z m 0,0"
           id="path9991" />
      </g>
    </g>
    <g
       style="fill:#211e1e;fill-opacity:1"
       id="g1520"
       transform="matrix(0.35277777,0,0,0.35277777,-43.110177,56.413371)">
      <g
         id="use1516"
         transform="translate(695.71472,567.43433)">
        <path
           style="stroke:none"
           d="M 7.921875,0 V -6.65625 H 6.59375 L 4.40625,-2.234375 2.203125,-6.65625 H 0.875 V 0 H 1.9375 V -4.984375 L 4.03125,-0.6875 H 4.765625 L 6.875,-4.984375 V 0 Z m 0,0"
           id="path9999" />
      </g>
      <g
         id="use1518"
         transform="translate(704.51776,567.43433)">
        <path
           style="stroke:none"
           d="M 5.171875,-1.5 5.8125,0 H 7.015625 L 4.09375,-6.65625 H 2.953125 L 0.015625,0 H 1.1875 l 0.625,-1.5 z M 4.75,-2.5 H 2.234375 L 3.5,-5.46875 Z m 0,0"
           id="path10047" />
      </g>
    </g>
    <g
       style="fill:#211e1e;fill-opacity:1"
       id="g1524"
       transform="matrix(0.35277777,0,0,0.35277777,-43.110177,56.413371)">
      <g
         id="use1522"
         transform="translate(711.07483,567.43433)">
        <path
           style="stroke:none"
           d="m 3.609375,-2.21875 2.4375,-4.4375 H 4.90625 L 3.046875,-3.421875 1.140625,-6.65625 h -1.125 L 2.5,-2.171875 V 0 h 1.109375 z m 0,0"
           id="path9975" />
      </g>
    </g>
    <g
       style="fill:#211e1e;fill-opacity:1"
       id="g1532"
       transform="matrix(0.35277777,0,0,0.35277777,-43.110177,56.413371)">
      <g
         id="use1526"
         transform="translate(733.91522,567.43433)">
        <path
           style="stroke:none"
           d="m 4.015625,-6.65625 h -3.4375 v 1 h 2.3125 v 3.5625 c 0,0.6875 -0.359375,1.0625 -0.953125,1.0625 -0.46875,0 -0.984375,-0.265625 -1.421875,-0.734375 l -0.53125,0.859375 c 0.484375,0.609375 1.15625,0.953125 1.953125,0.953125 1.28125,0 2.078125,-0.765625 2.078125,-2.109375 z m 0,0"
           id="path10059" />
      </g>
      <g
         id="use1528"
         transform="translate(738.66412,567.43433)">
        <path
           style="stroke:none"
           d="M 6.53125,-6.65625 H 5.421875 v 3.890625 c 0,1.140625 -0.6875,1.796875 -1.765625,1.796875 -1.09375,0 -1.796875,-0.671875 -1.796875,-1.796875 V -6.65625 H 0.75 v 3.890625 c 0,1.75 1.09375,2.8125 2.890625,2.8125 1.796875,0 2.890625,-1.0625 2.890625,-2.8125 z m 0,0"
           id="path9963" />
      </g>
      <g
         id="use1530"
         transform="translate(745.93494,567.43433)">
        <path
           style="stroke:none"
           d="M 6.65625,0 V -6.65625 H 5.546875 V -1.875 l -3.5625,-4.78125 H 0.875 V 0 H 2 V -4.78125 L 5.546875,0 Z m 0,0"
           id="path10027" />
      </g>
    </g>
    <g
       style="fill:#211e1e;fill-opacity:1"
       id="g1540"
       transform="matrix(0.35277777,0,0,0.35277777,-43.110177,56.413371)">
      <g
         id="use1534"
         transform="translate(775.07538,567.43433)">
        <path
           style="stroke:none"
           d="m 4.015625,-6.65625 h -3.4375 v 1 h 2.3125 v 3.5625 c 0,0.6875 -0.359375,1.0625 -0.953125,1.0625 -0.46875,0 -0.984375,-0.265625 -1.421875,-0.734375 l -0.53125,0.859375 c 0.484375,0.609375 1.15625,0.953125 1.953125,0.953125 1.28125,0 2.078125,-0.765625 2.078125,-2.109375 z m 0,0"
           id="path10063" />
      </g>
      <g
         id="use1536"
         transform="translate(779.82428,567.43433)">
        <path
           style="stroke:none"
           d="M 6.53125,-6.65625 H 5.421875 v 3.890625 c 0,1.140625 -0.6875,1.796875 -1.765625,1.796875 -1.09375,0 -1.796875,-0.671875 -1.796875,-1.796875 V -6.65625 H 0.75 v 3.890625 c 0,1.75 1.09375,2.8125 2.890625,2.8125 1.796875,0 2.890625,-1.0625 2.890625,-2.8125 z m 0,0"
           id="path9967" />
      </g>
      <g
         id="use1538"
         transform="translate(787.09509,567.43433)">
        <path
           style="stroke:none"
           d="M 2,-1.015625 V -6.65625 H 0.875 V 0 h 4 v -1.015625 z m 0,0"
           id="path9959" />
      </g>
    </g>
    <g
       style="fill:#211e1e;fill-opacity:1"
       id="g1544"
       transform="matrix(0.35277777,0,0,0.35277777,-43.110177,56.413371)">
      <g
         id="use1542"
         transform="translate(810.27802,567.43433)">
        <path
           style="stroke:none"
           d="M 5.171875,-1.5 5.8125,0 H 7.015625 L 4.09375,-6.65625 H 2.953125 L 0.015625,0 H 1.1875 l 0.625,-1.5 z M 4.75,-2.5 H 2.234375 L 3.5,-5.46875 Z m 0,0"
           id="path10051" />
      </g>
    </g>
    <g
       style="fill:#211e1e;fill-opacity:1"
       id="g1550"
       transform="matrix(0.35277777,0,0,0.35277777,-43.110177,56.413371)">
      <g
         id="use1546"
         transform="translate(817.11108,567.43433)">
        <path
           style="stroke:none"
           d="M 6.53125,-6.65625 H 5.421875 v 3.890625 c 0,1.140625 -0.6875,1.796875 -1.765625,1.796875 -1.09375,0 -1.796875,-0.671875 -1.796875,-1.796875 V -6.65625 H 0.75 v 3.890625 c 0,1.75 1.09375,2.8125 2.890625,2.8125 1.796875,0 2.890625,-1.0625 2.890625,-2.8125 z m 0,0"
           id="path9971" />
      </g>
      <g
         id="use1548"
         transform="translate(824.3819,567.43433)">
        <path
           style="stroke:none"
           d="m 5.4375,-3.265625 v 1.84375 C 4.953125,-1.125 4.390625,-0.96875 3.90625,-0.96875 c -1.359375,0 -2.4375,-1.03125 -2.4375,-2.359375 0,-1.328125 1.0625,-2.359375 2.421875,-2.359375 0.703125,0 1.40625,0.28125 1.921875,0.765625 L 6.453125,-5.75 c -0.65625,-0.578125 -1.609375,-0.9375 -2.5625,-0.9375 -2.015625,0 -3.5625,1.453125 -3.5625,3.359375 0,1.90625 1.53125,3.375 3.5,3.375 0.90625,0 1.90625,-0.34375 2.578125,-0.859375 v -2.453125 z m 0,0"
           id="path9955" />
      </g>
    </g>
    <g
       style="fill:#211e1e;fill-opacity:1"
       id="g1558"
       transform="matrix(0.35277777,0,0,0.35277777,-43.110177,56.413371)">
      <g
         id="use1552"
         transform="translate(848.87811,567.43433)">
        <path
           style="stroke:none"
           d="m 3.0625,-6.703125 c -1.4375,0 -2.421875,0.703125 -2.421875,1.84375 0,2.375 3.59375,1.546875 3.59375,3.03125 0,0.515625 -0.46875,0.8125 -1.25,0.8125 -0.703125,0 -1.5625,-0.34375 -2.25,-0.96875 L 0.25,-1.015625 c 0.6875,0.625 1.671875,1.046875 2.71875,1.046875 1.46875,0 2.515625,-0.71875 2.515625,-1.921875 0,-2.390625 -3.59375,-1.609375 -3.59375,-3.0625 0,-0.453125 0.4375,-0.703125 1.09375,-0.703125 0.5,0 1.21875,0.1875 1.9375,0.625 l 0.46875,-0.984375 C 4.78125,-6.4375 3.9375,-6.703125 3.0625,-6.703125 Z m 0,0"
           id="path9951" />
      </g>
      <g
         id="use1554"
         transform="translate(854.79755,567.43433)">
        <path
           style="stroke:none"
           d="m 5.640625,-5.65625 v -1 H 0.875 V 0 H 5.75 V -1.015625 H 2 V -2.84375 H 5.25 V -3.859375 H 2 V -5.65625 Z m 0,0"
           id="path10011" />
      </g>
      <g
         id="use1556"
         transform="translate(861.04059,567.43433)">
        <path
           style="stroke:none"
           d="M 0.875,-6.65625 V 0 H 2 v -2 h 1.53125 c 1.671875,0 2.640625,-0.890625 2.640625,-2.390625 0,-1.4375 -0.96875,-2.265625 -2.640625,-2.265625 z m 1.125,1 h 1.484375 c 1.03125,0 1.609375,0.421875 1.609375,1.296875 0,0.90625 -0.578125,1.34375 -1.609375,1.34375 H 2 Z m 0,0"
           id="path9983" />
      </g>
    </g>
    <g
       style="fill:#211e1e;fill-opacity:1"
       id="g1564"
       transform="matrix(0.35277777,0,0,0.35277777,-43.110177,56.413371)">
      <g
         id="use1560"
         transform="translate(885.64154,567.43433)">
        <path
           style="stroke:none"
           d="m 3.859375,-6.6875 c -2,0 -3.53125,1.4375 -3.53125,3.359375 0,1.90625 1.53125,3.375 3.53125,3.375 1.984375,0 3.53125,-1.46875 3.53125,-3.375 0,-1.90625 -1.546875,-3.359375 -3.53125,-3.359375 z m 0,1 c 1.3125,0 2.375,1.03125 2.375,2.359375 0,1.328125 -1.0625,2.359375 -2.375,2.359375 C 2.5625,-0.96875 1.46875,-2 1.46875,-3.328125 1.46875,-4.65625 2.546875,-5.6875 3.859375,-5.6875 Z m 0,0"
           id="path9943" />
      </g>
      <g
         id="use1562"
         transform="translate(893.08368,567.43433)">
        <path
           style="stroke:none"
           d="m 3.828125,-6.6875 c -1.96875,0 -3.5,1.453125 -3.5,3.34375 0,1.921875 1.515625,3.390625 3.453125,3.390625 0.953125,0 1.90625,-0.421875 2.578125,-1.09375 L 5.703125,-1.78125 C 5.203125,-1.296875 4.515625,-1 3.84375,-1 c -1.328125,0 -2.375,-1.03125 -2.375,-2.34375 0,-1.3125 1.046875,-2.34375 2.375,-2.34375 0.671875,0 1.375,0.328125 1.859375,0.84375 l 0.65625,-0.8125 C 5.703125,-6.296875 4.765625,-6.6875 3.828125,-6.6875 Z m 0,0"
           id="path9935" />
      </g>
    </g>
    <g
       style="fill:#211e1e;fill-opacity:1"
       id="g1568"
       transform="matrix(0.35277777,0,0,0.35277777,-43.110177,56.413371)">
      <g
         id="use1566"
         transform="translate(899.71692,567.43433)">
        <path
           style="stroke:none"
           d="m 5.421875,-5.65625 v -1 h -5.34375 v 1 H 2.1875 V 0 h 1.125 v -5.65625 z m 0,0"
           id="path9931" />
      </g>
    </g>
    <g
       style="fill:#211e1e;fill-opacity:1"
       id="g1574"
       transform="matrix(0.35277777,0,0,0.35277777,-43.110177,56.413371)">
      <g
         id="use1570"
         transform="translate(924.50812,567.43433)">
        <path
           style="stroke:none"
           d="M 6.65625,0 V -6.65625 H 5.546875 V -1.875 l -3.5625,-4.78125 H 0.875 V 0 H 2 V -4.78125 L 5.546875,0 Z m 0,0"
           id="path10031" />
      </g>
      <g
         id="use1572"
         transform="translate(932.04541,567.43433)">
        <path
           style="stroke:none"
           d="m 3.859375,-6.6875 c -2,0 -3.53125,1.4375 -3.53125,3.359375 0,1.90625 1.53125,3.375 3.53125,3.375 1.984375,0 3.53125,-1.46875 3.53125,-3.375 0,-1.90625 -1.546875,-3.359375 -3.53125,-3.359375 z m 0,1 c 1.3125,0 2.375,1.03125 2.375,2.359375 0,1.328125 -1.0625,2.359375 -2.375,2.359375 C 2.5625,-0.96875 1.46875,-2 1.46875,-3.328125 1.46875,-4.65625 2.546875,-5.6875 3.859375,-5.6875 Z m 0,0"
           id="path9947" />
      </g>
    </g>
    <g
       style="fill:#211e1e;fill-opacity:1"
       id="g1578"
       transform="matrix(0.35277777,0,0,0.35277777,-43.110177,56.413371)">
      <g
         id="use1576"
         transform="translate(939.65881,567.43433)">
        <path
           style="stroke:none"
           d="m 3.84375,0 2.6875,-6.65625 H 5.359375 L 3.296875,-1.25 1.234375,-6.65625 H 0.03125 L 2.6875,0 Z m 0,0"
           id="path9927" />
      </g>
    </g>
    <g
       style="fill:#211e1e;fill-opacity:1"
       id="g1586"
       transform="matrix(0.35277777,0,0,0.35277777,-43.110177,56.413371)">
      <g
         id="use1580"
         transform="translate(963.56506,567.43433)">
        <path
           style="stroke:none"
           d="M 0.875,-6.65625 V 0 h 2.703125 c 2.015625,0 3.46875,-1.40625 3.46875,-3.328125 0,-1.9375 -1.4375,-3.328125 -3.4375,-3.328125 z m 1.125,1 h 1.59375 c 1.3125,0 2.328125,0.96875 2.328125,2.328125 0,1.359375 -1,2.3125 -2.28125,2.3125 H 2 Z m 0,0"
           id="path9923" />
      </g>
      <g
         id="use1582"
         transform="translate(970.94055,567.43433)">
        <path
           style="stroke:none"
           d="m 5.640625,-5.65625 v -1 H 0.875 V 0 H 5.75 V -1.015625 H 2 V -2.84375 H 5.25 V -3.859375 H 2 V -5.65625 Z m 0,0"
           id="path10015" />
      </g>
      <g
         id="use1584"
         transform="translate(977.18359,567.43433)">
        <path
           style="stroke:none"
           d="m 3.828125,-6.6875 c -1.96875,0 -3.5,1.453125 -3.5,3.34375 0,1.921875 1.515625,3.390625 3.453125,3.390625 0.953125,0 1.90625,-0.421875 2.578125,-1.09375 L 5.703125,-1.78125 C 5.203125,-1.296875 4.515625,-1 3.84375,-1 c -1.328125,0 -2.375,-1.03125 -2.375,-2.34375 0,-1.3125 1.046875,-2.34375 2.375,-2.34375 0.671875,0 1.375,0.328125 1.859375,0.84375 l 0.65625,-0.8125 C 5.703125,-6.296875 4.765625,-6.6875 3.828125,-6.6875 Z m 0,0"
           id="path9939" />
      </g>
    </g>
    <g
       clip-path="url(#clip3)"
       clip-rule="nonzero"
       id="g1590"
       transform="matrix(0.35277777,0,0,0.35277777,-43.110177,56.413371)">
      <path
         style="fill:#eecabf;fill-opacity:1;fill-rule:nonzero;stroke:none"
         d="m 563.50391,542.08203 c 0,4.35547 -3.53125,7.88281 -7.88672,7.88281 -4.35547,0 -7.88672,-3.52734 -7.88672,-7.88281 0,-4.35547 3.53125,-7.88672 7.88672,-7.88672 4.35547,0 7.88672,3.53125 7.88672,7.88672"
         id="path1588" />
    </g>
    <g
       clip-path="url(#clip4)"
       clip-rule="nonzero"
       id="g1594"
       transform="matrix(0.35277777,0,0,0.35277777,-43.110177,56.413371)">
      <path
         style="fill:#eb3521;fill-opacity:1;fill-rule:nonzero;stroke:none"
         d="m 601.39844,542.08203 c 0,4.35547 -3.53125,7.88281 -7.88672,7.88281 -4.35547,0 -7.88672,-3.52734 -7.88672,-7.88281 0,-4.35547 3.53125,-7.88672 7.88672,-7.88672 4.35547,0 7.88672,3.53125 7.88672,7.88672"
         id="path1592" />
    </g>
    <g
       clip-path="url(#clip5)"
       clip-rule="nonzero"
       id="g1598"
       transform="matrix(0.35277777,0,0,0.35277777,-43.110177,56.413371)">
      <path
         style="fill:#eea38f;fill-opacity:1;fill-rule:nonzero;stroke:none"
         d="m 639.29297,542.08203 c 0,4.35547 -3.53125,7.88281 -7.88672,7.88281 -4.35547,0 -7.88672,-3.52734 -7.88672,-7.88281 0,-4.35547 3.53125,-7.88672 7.88672,-7.88672 4.35547,0 7.88672,3.53125 7.88672,7.88672"
         id="path1596" />
    </g>
    <g
       clip-path="url(#clip6)"
       clip-rule="nonzero"
       id="g1602"
       transform="matrix(0.35277777,0,0,0.35277777,-43.110177,56.413371)">
      <path
         style="fill:#ee8f78;fill-opacity:1;fill-rule:nonzero;stroke:none"
         d="m 677.18359,542.08203 c 0,4.35547 -3.52734,7.88281 -7.88281,7.88281 -4.35547,0 -7.88672,-3.52734 -7.88672,-7.88281 0,-4.35547 3.53125,-7.88672 7.88672,-7.88672 4.35547,0 7.88281,3.53125 7.88281,7.88672"
         id="path1600" />
    </g>
    <g
       clip-path="url(#clip7)"
       clip-rule="nonzero"
       id="g1606"
       transform="matrix(0.35277777,0,0,0.35277777,-43.110177,56.413371)">
      <path
         style="fill:#ee7d5e;fill-opacity:1;fill-rule:nonzero;stroke:none"
         d="m 715.07812,542.08203 c 0,4.35547 -3.53125,7.88281 -7.88281,7.88281 -4.35547,0 -7.88672,-3.52734 -7.88672,-7.88281 0,-4.35547 3.53125,-7.88672 7.88672,-7.88672 4.35156,0 7.88281,3.53125 7.88281,7.88672"
         id="path1604" />
    </g>
    <g
       clip-path="url(#clip8)"
       clip-rule="nonzero"
       id="g1610"
       transform="matrix(0.35277777,0,0,0.35277777,-43.110177,56.413371)">
      <path
         style="fill:#ee4521;fill-opacity:1;fill-rule:nonzero;stroke:none"
         d="m 752.97266,542.08203 c 0,4.35547 -3.53125,7.88281 -7.88672,7.88281 -4.35547,0 -7.88282,-3.52734 -7.88282,-7.88281 0,-4.35547 3.52735,-7.88672 7.88282,-7.88672 4.35547,0 7.88672,3.53125 7.88672,7.88672"
         id="path1608" />
    </g>
    <g
       clip-path="url(#clip9)"
       clip-rule="nonzero"
       id="g1614"
       transform="matrix(0.35277777,0,0,0.35277777,-43.110177,56.413371)">
      <path
         style="fill:#f0dcd7;fill-opacity:1;fill-rule:nonzero;stroke:none"
         d="m 790.86719,542.08203 c 0,4.35547 -3.53125,7.88281 -7.88672,7.88281 -4.35547,0 -7.88672,-3.52734 -7.88672,-7.88281 0,-4.35547 3.53125,-7.88672 7.88672,-7.88672 4.35547,0 7.88672,3.53125 7.88672,7.88672"
         id="path1612" />
    </g>
    <g
       clip-path="url(#clip10)"
       clip-rule="nonzero"
       id="g1618"
       transform="matrix(0.35277777,0,0,0.35277777,-43.110177,56.413371)">
      <path
         style="fill:#eeb5a6;fill-opacity:1;fill-rule:nonzero;stroke:none"
         d="m 828.76172,542.08203 c 0,4.35547 -3.53125,7.88281 -7.88672,7.88281 -4.35547,0 -7.88672,-3.52734 -7.88672,-7.88281 0,-4.35547 3.53125,-7.88672 7.88672,-7.88672 4.35547,0 7.88672,3.53125 7.88672,7.88672"
         id="path1616" />
    </g>
    <g
       clip-path="url(#clip11)"
       clip-rule="nonzero"
       id="g1622"
       transform="matrix(0.35277777,0,0,0.35277777,-43.110177,56.413371)">
      <path
         style="fill:#ee8f78;fill-opacity:1;fill-rule:nonzero;stroke:none"
         d="m 866.65625,542.08203 c 0,4.35547 -3.53125,7.88281 -7.88672,7.88281 -4.35547,0 -7.88672,-3.52734 -7.88672,-7.88281 0,-4.35547 3.53125,-7.88672 7.88672,-7.88672 4.35547,0 7.88672,3.53125 7.88672,7.88672"
         id="path1620" />
    </g>
    <g
       clip-path="url(#clip12)"
       clip-rule="nonzero"
       id="g1626"
       transform="matrix(0.35277777,0,0,0.35277777,-43.110177,56.413371)">
      <path
         style="fill:#eeb5a6;fill-opacity:1;fill-rule:nonzero;stroke:none"
         d="m 904.55078,542.08203 c 0,4.35547 -3.53125,7.88281 -7.88672,7.88281 -4.35547,0 -7.88672,-3.52734 -7.88672,-7.88281 0,-4.35547 3.53125,-7.88672 7.88672,-7.88672 4.35547,0 7.88672,3.53125 7.88672,7.88672"
         id="path1624" />
    </g>
    <g
       clip-path="url(#clip13)"
       clip-rule="nonzero"
       id="g1630"
       transform="matrix(0.35277777,0,0,0.35277777,-43.110177,56.413371)">
      <path
         style="fill:#eea38f;fill-opacity:1;fill-rule:nonzero;stroke:none"
         d="m 942.44531,542.08203 c 0,4.35547 -3.53125,7.88281 -7.88672,7.88281 -4.35547,0 -7.88672,-3.52734 -7.88672,-7.88281 0,-4.35547 3.53125,-7.88672 7.88672,-7.88672 4.35547,0 7.88672,3.53125 7.88672,7.88672"
         id="path1628" />
    </g>
    <g
       clip-path="url(#clip14)"
       clip-rule="nonzero"
       id="g1634"
       transform="matrix(0.35277777,0,0,0.35277777,-43.110177,56.413371)">
      <path
         style="fill:#ee6847;fill-opacity:1;fill-rule:nonzero;stroke:none"
         d="m 980.33984,542.08203 c 0,4.35547 -3.53125,7.88281 -7.88672,7.88281 -4.35546,0 -7.88671,-3.52734 -7.88671,-7.88281 0,-4.35547 3.53125,-7.88672 7.88671,-7.88672 4.35547,0 7.88672,3.53125 7.88672,7.88672"
         id="path1632" />
    </g>
    <g
       style="fill:#d15426;fill-opacity:1"
       id="g1860"
       transform="matrix(0.35277777,0,0,0.35277777,-43.110177,56.413371)">
      <g
         id="use1850"
         transform="translate(908.40009,515.76599)">
        <path
           style="stroke:none"
           d="m 4.6875,0.1875 c 3,0 4.46875,-1.5 4.46875,-3.265625 0,-3.859375 -6.109375,-2.515625 -6.109375,-4.453125 0,-0.65625 0.546875,-1.203125 2,-1.203125 0.921875,0 1.921875,0.28125 2.90625,0.828125 l 0.75,-1.84375 C 7.71875,-10.359375 6.375,-10.6875 5.0625,-10.6875 c -3,0 -4.4375,1.5 -4.4375,3.28125 0,3.890625 6.109375,2.546875 6.109375,4.515625 0,0.640625 -0.578125,1.125 -2.03125,1.125 -1.25,0 -2.578125,-0.453125 -3.453125,-1.09375 L 0.421875,-1.03125 C 1.34375,-0.3125 3.03125,0.1875 4.6875,0.1875 Z m 0,0"
           id="path9919" />
      </g>
      <g
         id="use1852"
         transform="translate(917.97009,515.76599)">
        <path
           style="stroke:none"
           d="m 4.328125,-8.1875 c -1.28125,0 -2.59375,0.34375 -3.46875,0.96875 L 1.6875,-5.578125 c 0.59375,-0.46875 1.484375,-0.75 2.328125,-0.75 1.265625,0 1.859375,0.578125 1.859375,1.59375 H 4.015625 c -2.453125,0 -3.453125,0.984375 -3.453125,2.40625 0,1.390625 1.125,2.453125 3,2.453125 1.1875,0 2.03125,-0.390625 2.46875,-1.125 v 1 h 2.1875 v -4.609375 c 0,-2.4375 -1.421875,-3.578125 -3.890625,-3.578125 z M 4.15625,-1.453125 c -0.828125,0 -1.328125,-0.390625 -1.328125,-0.984375 0,-0.53125 0.359375,-0.9375 1.453125,-0.9375 H 5.875 v 0.828125 c -0.265625,0.734375 -0.9375,1.09375 -1.71875,1.09375 z m 0,0"
           id="path9911" />
      </g>
      <g
         id="use1854"
         transform="translate(927.2251,515.76599)">
        <path
           style="stroke:none"
           d="m 5.65625,-2.046875 c -0.25,0.203125 -0.59375,0.3125 -0.953125,0.3125 -0.625,0 -1,-0.375 -1,-1.078125 V -6.09375 H 5.71875 V -7.890625 H 3.703125 v -1.96875 h -2.34375 v 1.96875 H 0.125 v 1.796875 h 1.234375 v 3.3125 c 0,1.921875 1.109375,2.90625 3.015625,2.90625 0.71875,0 1.4375,-0.171875 1.90625,-0.515625 z m 0,0"
           id="path9903" />
      </g>
      <g
         id="use1856"
         transform="translate(933.75012,515.76599)">
        <path
           style="stroke:none"
           d="m 6.875,-8.0625 v 3.984375 C 6.875,-2.59375 6.09375,-1.90625 5.015625,-1.90625 3.96875,-1.90625 3.375,-2.5 3.375,-3.859375 V -8.0625 H 1.03125 v 4.546875 c 0,2.5 1.421875,3.640625 3.453125,3.640625 0.984375,0 1.890625,-0.375 2.5,-1.078125 V 0 h 2.21875 v -8.0625 z m 0,0"
           id="path9883" />
      </g>
      <g
         id="use1858"
         transform="translate(944.05511,515.76599)">
        <path
           style="stroke:none"
           d="M 3.3125,-7 V -8.0625 H 1.078125 V 0 h 2.34375 v -3.8125 c 0,-1.546875 0.859375,-2.25 2.140625,-2.25 0.1875,0 0.328125,0.015625 0.53125,0.03125 V -8.1875 c -1.25,0 -2.203125,0.40625 -2.78125,1.1875 z m 0,0"
           id="path9899" />
      </g>
    </g>
    <g
       style="fill:#d15426;fill-opacity:1"
       id="g1872"
       transform="matrix(0.35277777,0,0,0.35277777,-43.110177,56.413371)">
      <g
         id="use1862"
         transform="translate(950.4151,515.76599)">
        <path
           style="stroke:none"
           d="m 4.328125,-8.1875 c -1.28125,0 -2.59375,0.34375 -3.46875,0.96875 L 1.6875,-5.578125 c 0.59375,-0.46875 1.484375,-0.75 2.328125,-0.75 1.265625,0 1.859375,0.578125 1.859375,1.59375 H 4.015625 c -2.453125,0 -3.453125,0.984375 -3.453125,2.40625 0,1.390625 1.125,2.453125 3,2.453125 1.1875,0 2.03125,-0.390625 2.46875,-1.125 v 1 h 2.1875 v -4.609375 c 0,-2.4375 -1.421875,-3.578125 -3.890625,-3.578125 z M 4.15625,-1.453125 c -0.828125,0 -1.328125,-0.390625 -1.328125,-0.984375 0,-0.53125 0.359375,-0.9375 1.453125,-0.9375 H 5.875 v 0.828125 c -0.265625,0.734375 -0.9375,1.09375 -1.71875,1.09375 z m 0,0"
           id="path9915" />
      </g>
      <g
         id="use1864"
         transform="translate(959.6701,515.76599)">
        <path
           style="stroke:none"
           d="m 5.65625,-2.046875 c -0.25,0.203125 -0.59375,0.3125 -0.953125,0.3125 -0.625,0 -1,-0.375 -1,-1.078125 V -6.09375 H 5.71875 V -7.890625 H 3.703125 v -1.96875 h -2.34375 v 1.96875 H 0.125 v 1.796875 h 1.234375 v 3.3125 c 0,1.921875 1.109375,2.90625 3.015625,2.90625 0.71875,0 1.4375,-0.171875 1.90625,-0.515625 z m 0,0"
           id="path9907" />
      </g>
      <g
         id="use1866"
         transform="translate(966.19513,515.76599)">
        <path
           style="stroke:none"
           d="m 2.25,-9.1875 c 0.875,0 1.453125,-0.578125 1.453125,-1.359375 0,-0.71875 -0.578125,-1.265625 -1.453125,-1.265625 -0.875,0 -1.453125,0.578125 -1.453125,1.3125 0,0.734375 0.578125,1.3125 1.453125,1.3125 z M 1.078125,0 h 2.34375 v -8.0625 h -2.34375 z m 0,0"
           id="path9895" />
      </g>
      <g
         id="use1868"
         transform="translate(970.71008,515.76599)">
        <path
           style="stroke:none"
           d="m 4.921875,0.125 c 2.5625,0 4.421875,-1.734375 4.421875,-4.15625 0,-2.4375 -1.859375,-4.15625 -4.421875,-4.15625 -2.5625,0 -4.4375,1.71875 -4.4375,4.15625 0,2.421875 1.875,4.15625 4.4375,4.15625 z m 0,-1.921875 c -1.171875,0 -2.078125,-0.84375 -2.078125,-2.234375 0,-1.40625 0.90625,-2.234375 2.078125,-2.234375 1.171875,0 2.046875,0.828125 2.046875,2.234375 0,1.390625 -0.875,2.234375 -2.046875,2.234375 z m 0,0"
           id="path9887" />
      </g>
      <g
         id="use1870"
         transform="translate(980.5351,515.76599)">
        <path
           style="stroke:none"
           d="m 5.984375,-8.1875 c -1.09375,0 -2.046875,0.375 -2.671875,1.0625 V -8.0625 H 1.078125 V 0 h 2.34375 v -3.984375 c 0,-1.484375 0.8125,-2.1875 1.9375,-2.1875 1.03125,0 1.625,0.609375 1.625,1.90625 V 0 h 2.34375 v -4.625 c 0,-2.453125 -1.4375,-3.5625 -3.34375,-3.5625 z m 0,0"
           id="path9891" />
      </g>
    </g>
  </g>
</svg>
