<?xml version="1.0" encoding="UTF-8" standalone="no"?>
<!-- Created with Inkscape (http://www.inkscape.org/) -->

<svg
   width="162.34628mm"
   height="42.612232mm"
   viewBox="0 0 162.34628 42.612232"
   version="1.1"
   id="svg2726"
   xmlns="http://www.w3.org/2000/svg"
   xmlns:svg="http://www.w3.org/2000/svg">
  <defs
     id="defs2723" />
  <g
     id="layer1"
     transform="translate(728.02907,274.25951)">
    <g
       style="fill:#211e1e;fill-opacity:1"
       id="g892"
       transform="matrix(0.35277777,0,0,0.35277777,-737.19893,-336.81385)">
      <g
         id="use890"
         transform="translate(28.2969,285.63571)">
        <path
           style="stroke:none"
           d="m 3.140625,-6.375 c -1.75,0 -2.703125,1.140625 -2.703125,3.203125 0,2.0625 0.953125,3.203125 2.703125,3.203125 1.734375,0 2.703125,-1.140625 2.703125,-3.203125 0,-2.0625 -0.96875,-3.203125 -2.703125,-3.203125 z m 0,0.84375 c 1.0625,0 1.59375,0.734375 1.59375,2.359375 0,1.59375 -0.53125,2.359375 -1.59375,2.359375 -1.078125,0 -1.609375,-0.765625 -1.609375,-2.359375 0,-1.625 0.53125,-2.359375 1.609375,-2.359375 z m 0,0"
           id="path3213" />
      </g>
    </g>
    <g
       style="fill:#211e1e;fill-opacity:1"
       id="g896"
       transform="matrix(0.35277777,0,0,0.35277777,-737.19893,-336.81385)">
      <g
         id="use894"
         transform="translate(63.391422,298.06311)">
        <path
           style="stroke:none"
           d="m 3.828125,-6.359375 h -3.28125 v 0.96875 H 2.75 V -2 c 0,0.65625 -0.328125,1.015625 -0.90625,1.015625 -0.4375,0 -0.9375,-0.25 -1.359375,-0.703125 l -0.5,0.8125 c 0.46875,0.578125 1.109375,0.921875 1.875,0.921875 1.21875,0 1.96875,-0.734375 1.96875,-2 z m 0,0"
           id="path3201" />
      </g>
    </g>
    <g
       style="fill:#211e1e;fill-opacity:1"
       id="g902"
       transform="matrix(0.35277777,0,0,0.35277777,-737.19893,-336.81385)">
      <g
         id="use898"
         transform="translate(67.739655,298.06311)">
        <path
           style="stroke:none"
           d="M 4.9375,-1.4375 5.546875,0 H 6.6875 L 3.90625,-6.359375 H 2.8125 L 0.015625,0 H 1.125 L 1.734375,-1.4375 Z M 4.53125,-2.390625 H 2.140625 l 1.1875,-2.8125 z m 0,0"
           id="path3245" />
      </g>
      <g
         id="use900"
         transform="translate(74.439026,298.06311)">
        <path
           style="stroke:none"
           d="M 6.34375,0 V -6.359375 H 5.296875 v 4.578125 l -3.40625,-4.578125 h -1.0625 V 0 H 1.90625 V -4.5625 L 5.296875,0 Z m 0,0"
           id="path3329" />
      </g>
    </g>
    <g
       style="fill:#211e1e;fill-opacity:1"
       id="g910"
       transform="matrix(0.35277777,0,0,0.35277777,-737.19893,-336.81385)">
      <g
         id="use904"
         transform="translate(99.266632,298.06311)">
        <path
           style="stroke:none"
           d="m 5.09375,-5.390625 0.015625,-0.96875 H 0.828125 V 0 H 1.90625 V -2.609375 H 4.796875 V -3.5625 H 1.90625 v -1.828125 z m 0,0"
           id="path3357" />
      </g>
      <g
         id="use906"
         transform="translate(104.48633,298.06311)">
        <path
           style="stroke:none"
           d="m 5.375,-5.390625 v -0.96875 H 0.828125 V 0 h 4.65625 V -0.96875 H 1.90625 v -1.75 H 5.015625 V -3.671875 H 1.90625 v -1.71875 z m 0,0"
           id="path3317" />
      </g>
      <g
         id="use908"
         transform="translate(110.44132,298.06311)">
        <path
           style="stroke:none"
           d="M 0.828125,-6.359375 V 0 H 3.65625 c 1.4375,0 2.3125,-0.65625 2.3125,-1.75 0,-0.84375 -0.5,-1.453125 -1.359375,-1.59375 0.6875,-0.171875 1.125,-0.703125 1.125,-1.421875 0,-0.984375 -0.828125,-1.59375 -2.140625,-1.59375 z M 1.90625,-5.40625 h 1.640625 c 0.671875,0 1.078125,0.296875 1.078125,0.828125 0,0.53125 -0.40625,0.859375 -1.078125,0.859375 H 1.90625 Z m 0,2.625 H 3.546875 C 4.375,-2.78125 4.875,-2.4375 4.875,-1.875 c 0,0.59375 -0.5,0.921875 -1.328125,0.921875 H 1.90625 Z m 0,0"
           id="path3313" />
      </g>
    </g>
    <g
       style="fill:#211e1e;fill-opacity:1"
       id="g918"
       transform="matrix(0.35277777,0,0,0.35277777,-737.19893,-336.81385)">
      <g
         id="use912"
         transform="translate(135.31435,298.06311)">
        <path
           style="stroke:none"
           d="m 7.546875,0 v -6.359375 h -1.25 l -2.09375,4.21875 -2.09375,-4.21875 H 0.828125 V 0 H 1.84375 v -4.75 l 2,4.09375 h 0.703125 l 2,-4.09375 L 6.5625,0 Z m 0,0"
           id="path3289" />
      </g>
      <g
         id="use914"
         transform="translate(143.71124,298.06311)">
        <path
           style="stroke:none"
           d="M 4.9375,-1.4375 5.546875,0 H 6.6875 L 3.90625,-6.359375 H 2.8125 L 0.015625,0 H 1.125 L 1.734375,-1.4375 Z M 4.53125,-2.390625 H 2.140625 l 1.1875,-2.8125 z m 0,0"
           id="path3249" />
      </g>
      <g
         id="use916"
         transform="translate(150.41061,298.06311)">
        <path
           style="stroke:none"
           d="m 4.859375,0 h 1.21875 L 4.65625,-2.125 c 0.84375,-0.328125 1.3125,-1.046875 1.3125,-2.0625 0,-1.375 -0.9375,-2.171875 -2.5625,-2.171875 H 0.828125 V 0 H 1.90625 v -1.921875 h 1.5 c 0.109375,0 0.203125,0 0.296875,0 z M 1.90625,-2.875 v -2.515625 h 1.5 c 0.984375,0 1.546875,0.390625 1.546875,1.234375 0,0.859375 -0.5625,1.28125 -1.546875,1.28125 z m 0,0"
           id="path3305" />
      </g>
    </g>
    <g
       style="fill:#211e1e;fill-opacity:1"
       id="g926"
       transform="matrix(0.35277777,0,0,0.35277777,-737.19893,-336.81385)">
      <g
         id="use920"
         transform="translate(172.00652,298.06311)">
        <path
           style="stroke:none"
           d="M 4.9375,-1.4375 5.546875,0 H 6.6875 L 3.90625,-6.359375 H 2.8125 L 0.015625,0 H 1.125 L 1.734375,-1.4375 Z M 4.53125,-2.390625 H 2.140625 l 1.1875,-2.8125 z m 0,0"
           id="path3253" />
      </g>
      <g
         id="use922"
         transform="translate(178.70589,298.06311)">
        <path
           style="stroke:none"
           d="M 0.828125,-6.359375 V 0 H 1.90625 V -1.921875 H 3.375 c 1.59375,0 2.5,-0.828125 2.5,-2.265625 0,-1.375 -0.90625,-2.171875 -2.5,-2.171875 z m 1.078125,0.96875 h 1.421875 c 0.96875,0 1.53125,0.390625 1.53125,1.234375 0,0.859375 -0.5625,1.28125 -1.53125,1.28125 H 1.90625 Z m 0,0"
           id="path3297" />
      </g>
      <g
         id="use924"
         transform="translate(184.8152,298.06311)">
        <path
           style="stroke:none"
           d="m 4.859375,0 h 1.21875 L 4.65625,-2.125 c 0.84375,-0.328125 1.3125,-1.046875 1.3125,-2.0625 0,-1.375 -0.9375,-2.171875 -2.5625,-2.171875 H 0.828125 V 0 H 1.90625 v -1.921875 h 1.5 c 0.109375,0 0.203125,0 0.296875,0 z M 1.90625,-2.875 v -2.515625 h 1.5 c 0.984375,0 1.546875,0.390625 1.546875,1.234375 0,0.859375 -0.5625,1.28125 -1.546875,1.28125 z m 0,0"
           id="path3309" />
      </g>
    </g>
    <g
       style="fill:#211e1e;fill-opacity:1"
       id="g932"
       transform="matrix(0.35277777,0,0,0.35277777,-737.19893,-336.81385)">
      <g
         id="use928"
         transform="translate(206.26587,298.06311)">
        <path
           style="stroke:none"
           d="m 7.546875,0 v -6.359375 h -1.25 l -2.09375,4.21875 -2.09375,-4.21875 H 0.828125 V 0 H 1.84375 v -4.75 l 2,4.09375 h 0.703125 l 2,-4.09375 L 6.5625,0 Z m 0,0"
           id="path3293" />
      </g>
      <g
         id="use930"
         transform="translate(214.66277,298.06311)">
        <path
           style="stroke:none"
           d="M 4.9375,-1.4375 5.546875,0 H 6.6875 L 3.90625,-6.359375 H 2.8125 L 0.015625,0 H 1.125 L 1.734375,-1.4375 Z M 4.53125,-2.390625 H 2.140625 l 1.1875,-2.8125 z m 0,0"
           id="path3257" />
      </g>
    </g>
    <g
       style="fill:#211e1e;fill-opacity:1"
       id="g936"
       transform="matrix(0.35277777,0,0,0.35277777,-737.19893,-336.81385)">
      <g
         id="use934"
         transform="translate(220.91733,298.06311)">
        <path
           style="stroke:none"
           d="m 3.4375,-2.109375 2.34375,-4.25 H 4.6875 l -1.78125,3.09375 -1.8125,-3.09375 H 0.015625 L 2.375,-2.078125 V 0 h 1.0625 z m 0,0"
           id="path3353" />
      </g>
    </g>
    <g
       style="fill:#211e1e;fill-opacity:1"
       id="g944"
       transform="matrix(0.35277777,0,0,0.35277777,-737.19893,-336.81385)">
      <g
         id="use938"
         transform="translate(242.70389,298.06311)">
        <path
           style="stroke:none"
           d="m 3.828125,-6.359375 h -3.28125 v 0.96875 H 2.75 V -2 c 0,0.65625 -0.328125,1.015625 -0.90625,1.015625 -0.4375,0 -0.9375,-0.25 -1.359375,-0.703125 l -0.5,0.8125 c 0.46875,0.578125 1.109375,0.921875 1.875,0.921875 1.21875,0 1.96875,-0.734375 1.96875,-2 z m 0,0"
           id="path3205" />
      </g>
      <g
         id="use940"
         transform="translate(247.23367,298.06311)">
        <path
           style="stroke:none"
           d="m 6.234375,-6.359375 h -1.0625 V -2.625 c 0,1.078125 -0.65625,1.703125 -1.6875,1.703125 C 2.4375,-0.921875 1.78125,-1.5625 1.78125,-2.625 V -6.359375 H 0.703125 V -2.625 c 0,1.65625 1.0625,2.671875 2.78125,2.671875 1.703125,0 2.75,-1.015625 2.75,-2.671875 z m 0,0"
           id="path3341" />
      </g>
      <g
         id="use942"
         transform="translate(254.16907,298.06311)">
        <path
           style="stroke:none"
           d="M 6.34375,0 V -6.359375 H 5.296875 v 4.578125 l -3.40625,-4.578125 h -1.0625 V 0 H 1.90625 V -4.5625 L 5.296875,0 Z m 0,0"
           id="path3333" />
      </g>
    </g>
    <g
       style="fill:#211e1e;fill-opacity:1"
       id="g952"
       transform="matrix(0.35277777,0,0,0.35277777,-737.19893,-336.81385)">
      <g
         id="use946"
         transform="translate(281.96518,298.06311)">
        <path
           style="stroke:none"
           d="m 3.828125,-6.359375 h -3.28125 v 0.96875 H 2.75 V -2 c 0,0.65625 -0.328125,1.015625 -0.90625,1.015625 -0.4375,0 -0.9375,-0.25 -1.359375,-0.703125 l -0.5,0.8125 c 0.46875,0.578125 1.109375,0.921875 1.875,0.921875 1.21875,0 1.96875,-0.734375 1.96875,-2 z m 0,0"
           id="path3209" />
      </g>
      <g
         id="use948"
         transform="translate(286.49496,298.06311)">
        <path
           style="stroke:none"
           d="m 6.234375,-6.359375 h -1.0625 V -2.625 c 0,1.078125 -0.65625,1.703125 -1.6875,1.703125 C 2.4375,-0.921875 1.78125,-1.5625 1.78125,-2.625 V -6.359375 H 0.703125 V -2.625 c 0,1.65625 1.0625,2.671875 2.78125,2.671875 1.703125,0 2.75,-1.015625 2.75,-2.671875 z m 0,0"
           id="path3345" />
      </g>
      <g
         id="use950"
         transform="translate(293.43036,298.06311)">
        <path
           style="stroke:none"
           d="M 1.90625,-0.96875 V -6.359375 H 0.828125 V 0 H 4.65625 v -0.96875 z m 0,0"
           id="path3241" />
      </g>
    </g>
    <g
       style="fill:#211e1e;fill-opacity:1"
       id="g956"
       transform="matrix(0.35277777,0,0,0.35277777,-737.19893,-336.81385)">
      <g
         id="use954"
         transform="translate(315.5437,298.06311)">
        <path
           style="stroke:none"
           d="M 4.9375,-1.4375 5.546875,0 H 6.6875 L 3.90625,-6.359375 H 2.8125 L 0.015625,0 H 1.125 L 1.734375,-1.4375 Z M 4.53125,-2.390625 H 2.140625 l 1.1875,-2.8125 z m 0,0"
           id="path3261" />
      </g>
    </g>
    <g
       style="fill:#211e1e;fill-opacity:1"
       id="g962"
       transform="matrix(0.35277777,0,0,0.35277777,-737.19893,-336.81385)">
      <g
         id="use958"
         transform="translate(322.06152,298.06311)">
        <path
           style="stroke:none"
           d="m 6.234375,-6.359375 h -1.0625 V -2.625 c 0,1.078125 -0.65625,1.703125 -1.6875,1.703125 C 2.4375,-0.921875 1.78125,-1.5625 1.78125,-2.625 V -6.359375 H 0.703125 V -2.625 c 0,1.65625 1.0625,2.671875 2.78125,2.671875 1.703125,0 2.75,-1.015625 2.75,-2.671875 z m 0,0"
           id="path3349" />
      </g>
      <g
         id="use960"
         transform="translate(328.99692,298.06311)">
        <path
           style="stroke:none"
           d="m 5.1875,-3.125 v 1.765625 c -0.453125,0.28125 -1,0.4375 -1.46875,0.4375 -1.296875,0 -2.328125,-0.984375 -2.328125,-2.25 0,-1.265625 1.03125,-2.25 2.328125,-2.25 0.65625,0 1.34375,0.265625 1.828125,0.71875 L 6.15625,-5.5 C 5.53125,-6.03125 4.625,-6.375 3.71875,-6.375 1.78125,-6.375 0.3125,-5 0.3125,-3.171875 c 0,1.8125 1.453125,3.21875 3.34375,3.21875 0.859375,0 1.8125,-0.34375 2.46875,-0.828125 V -3.125 Z m 0,0"
           id="path3237" />
      </g>
    </g>
    <g
       style="fill:#211e1e;fill-opacity:1"
       id="g970"
       transform="matrix(0.35277777,0,0,0.35277777,-737.19893,-336.81385)">
      <g
         id="use964"
         transform="translate(352.36295,298.06311)">
        <path
           style="stroke:none"
           d="m 2.921875,-6.40625 c -1.375,0 -2.3125,0.6875 -2.3125,1.78125 0,2.25 3.4375,1.46875 3.4375,2.875 0,0.5 -0.453125,0.78125 -1.203125,0.78125 -0.671875,0 -1.484375,-0.328125 -2.140625,-0.921875 l -0.46875,0.921875 c 0.65625,0.59375 1.59375,1 2.59375,1 1.40625,0 2.40625,-0.6875 2.40625,-1.828125 0,-2.28125 -3.421875,-1.546875 -3.421875,-2.9375 0,-0.421875 0.40625,-0.65625 1.03125,-0.65625 0.484375,0 1.171875,0.171875 1.859375,0.59375 L 5.140625,-5.75 C 4.5625,-6.140625 3.75,-6.40625 2.921875,-6.40625 Z m 0,0"
           id="path3233" />
      </g>
      <g
         id="use966"
         transform="translate(358.00931,298.06311)">
        <path
           style="stroke:none"
           d="m 5.375,-5.390625 v -0.96875 H 0.828125 V 0 h 4.65625 V -0.96875 H 1.90625 v -1.75 H 5.015625 V -3.671875 H 1.90625 v -1.71875 z m 0,0"
           id="path3321" />
      </g>
      <g
         id="use968"
         transform="translate(363.96429,298.06311)">
        <path
           style="stroke:none"
           d="M 0.828125,-6.359375 V 0 H 1.90625 V -1.921875 H 3.375 c 1.59375,0 2.5,-0.828125 2.5,-2.265625 0,-1.375 -0.90625,-2.171875 -2.5,-2.171875 z m 1.078125,0.96875 h 1.421875 c 0.96875,0 1.53125,0.390625 1.53125,1.234375 0,0.859375 -0.5625,1.28125 -1.53125,1.28125 H 1.90625 Z m 0,0"
           id="path3301" />
      </g>
    </g>
    <g
       style="fill:#211e1e;fill-opacity:1"
       id="g976"
       transform="matrix(0.35277777,0,0,0.35277777,-737.19893,-336.81385)">
      <g
         id="use972"
         transform="translate(387.43021,298.06311)">
        <path
           style="stroke:none"
           d="M 3.671875,-6.375 C 1.78125,-6.375 0.3125,-5 0.3125,-3.171875 c 0,1.8125 1.46875,3.21875 3.359375,3.21875 1.90625,0 3.375,-1.40625 3.375,-3.21875 C 7.046875,-5 5.578125,-6.375 3.671875,-6.375 Z M 3.6875,-5.421875 c 1.234375,0 2.265625,0.984375 2.265625,2.25 0,1.25 -1.03125,2.25 -2.265625,2.25 -1.25,0 -2.296875,-1 -2.296875,-2.25 0,-1.265625 1.046875,-2.25 2.296875,-2.25 z m 0,0"
           id="path3281" />
      </g>
      <g
         id="use974"
         transform="translate(394.52899,298.06311)">
        <path
           style="stroke:none"
           d="m 3.65625,-6.375 c -1.890625,0 -3.34375,1.375 -3.34375,3.1875 0,1.828125 1.4375,3.234375 3.296875,3.234375 0.90625,0 1.8125,-0.40625 2.46875,-1.046875 L 5.4375,-1.703125 c -0.484375,0.453125 -1.140625,0.75 -1.765625,0.75 -1.28125,0 -2.28125,-0.984375 -2.28125,-2.25 0,-1.25 1,-2.21875 2.28125,-2.21875 0.640625,0 1.296875,0.296875 1.765625,0.796875 l 0.625,-0.78125 C 5.453125,-6.015625 4.546875,-6.375 3.65625,-6.375 Z m 0,0"
           id="path3273" />
      </g>
    </g>
    <g
       style="fill:#211e1e;fill-opacity:1"
       id="g980"
       transform="matrix(0.35277777,0,0,0.35277777,-737.19893,-336.81385)">
      <g
         id="use978"
         transform="translate(400.85617,298.06311)">
        <path
           style="stroke:none"
           d="m 5.171875,-5.390625 v -0.96875 h -5.09375 v 0.96875 H 2.09375 V 0 h 1.0625 v -5.390625 z m 0,0"
           id="path3269" />
      </g>
    </g>
    <g
       style="fill:#211e1e;fill-opacity:1"
       id="g986"
       transform="matrix(0.35277777,0,0,0.35277777,-737.19893,-336.81385)">
      <g
         id="use982"
         transform="translate(424.50372,298.06311)">
        <path
           style="stroke:none"
           d="M 6.34375,0 V -6.359375 H 5.296875 v 4.578125 l -3.40625,-4.578125 h -1.0625 V 0 H 1.90625 V -4.5625 L 5.296875,0 Z m 0,0"
           id="path3337" />
      </g>
      <g
         id="use984"
         transform="translate(431.69327,298.06311)">
        <path
           style="stroke:none"
           d="M 3.671875,-6.375 C 1.78125,-6.375 0.3125,-5 0.3125,-3.171875 c 0,1.8125 1.46875,3.21875 3.359375,3.21875 1.90625,0 3.375,-1.40625 3.375,-3.21875 C 7.046875,-5 5.578125,-6.375 3.671875,-6.375 Z M 3.6875,-5.421875 c 1.234375,0 2.265625,0.984375 2.265625,2.25 0,1.25 -1.03125,2.25 -2.265625,2.25 -1.25,0 -2.296875,-1 -2.296875,-2.25 0,-1.265625 1.046875,-2.25 2.296875,-2.25 z m 0,0"
           id="path3285" />
      </g>
    </g>
    <g
       style="fill:#211e1e;fill-opacity:1"
       id="g990"
       transform="matrix(0.35277777,0,0,0.35277777,-737.19893,-336.81385)">
      <g
         id="use988"
         transform="translate(438.95547,298.06311)">
        <path
           style="stroke:none"
           d="m 3.671875,0 2.5625,-6.359375 H 5.125 L 3.140625,-1.1875 1.1875,-6.359375 H 0.03125 L 2.5625,0 Z m 0,0"
           id="path3265" />
      </g>
    </g>
    <g
       style="fill:#211e1e;fill-opacity:1"
       id="g998"
       transform="matrix(0.35277777,0,0,0.35277777,-737.19893,-336.81385)">
      <g
         id="use992"
         transform="translate(460.75116,298.06311)">
        <path
           style="stroke:none"
           d="M 0.828125,-6.359375 V 0 H 3.40625 c 1.9375,0 3.328125,-1.34375 3.328125,-3.171875 0,-1.84375 -1.390625,-3.1875 -3.296875,-3.1875 z m 1.078125,0.96875 h 1.515625 c 1.25,0 2.21875,0.921875 2.21875,2.21875 0,1.296875 -0.9375,2.203125 -2.171875,2.203125 h -1.5625 z m 0,0"
           id="path3229" />
      </g>
      <g
         id="use994"
         transform="translate(467.78641,298.06311)">
        <path
           style="stroke:none"
           d="m 5.375,-5.390625 v -0.96875 H 0.828125 V 0 h 4.65625 V -0.96875 H 1.90625 v -1.75 H 5.015625 V -3.671875 H 1.90625 v -1.71875 z m 0,0"
           id="path3325" />
      </g>
      <g
         id="use996"
         transform="translate(473.74139,298.06311)">
        <path
           style="stroke:none"
           d="m 3.65625,-6.375 c -1.890625,0 -3.34375,1.375 -3.34375,3.1875 0,1.828125 1.4375,3.234375 3.296875,3.234375 0.90625,0 1.8125,-0.40625 2.46875,-1.046875 L 5.4375,-1.703125 c -0.484375,0.453125 -1.140625,0.75 -1.765625,0.75 -1.28125,0 -2.28125,-0.984375 -2.28125,-2.25 0,-1.25 1,-2.21875 2.28125,-2.21875 0.640625,0 1.296875,0.296875 1.765625,0.796875 l 0.625,-0.78125 C 5.453125,-6.015625 4.546875,-6.375 3.65625,-6.375 Z m 0,0"
           id="path3277" />
      </g>
    </g>
    <path
       style="fill:none;stroke:#211e1e;stroke-width:0.238126;stroke-linecap:butt;stroke-linejoin:miter;stroke-miterlimit:10;stroke-opacity:1"
       d="m -720.21048,-267.92573 v 32.38941"
       id="path1000" />
    <path
       style="fill:none;stroke:#211e1e;stroke-width:0.238126;stroke-linecap:butt;stroke-linejoin:miter;stroke-miterlimit:10;stroke-opacity:1"
       d="m -723.57014,-237.27126 h 157.88735"
       id="path1002" />
    <path
       style="fill:none;stroke:#211e1e;stroke-width:0.238126;stroke-linecap:butt;stroke-linejoin:miter;stroke-miterlimit:10;stroke-opacity:1"
       d="m -723.25457,-252.59918 h 3.04409"
       id="path1004" />
    <path
       style="fill:none;stroke:#211e1e;stroke-width:0.238126;stroke-linecap:butt;stroke-linejoin:miter;stroke-miterlimit:10;stroke-opacity:1"
       d="m -723.25457,-267.92573 h 3.04409"
       id="path1006" />
    <g
       style="fill:#211e1e;fill-opacity:1"
       id="g1010"
       transform="matrix(0.35277777,0,0,0.35277777,-737.19893,-336.81385)">
      <g
         id="use1008"
         transform="translate(28.814535,242.44319)">
        <path
           style="stroke:none"
           d="M 4.59375,-5.390625 4.578125,-6.359375 H 0.71875 V -3 C 1.140625,-3.046875 2,-3.078125 2.390625,-3.078125 c 0.8125,0 1.3125,0.40625 1.3125,1.046875 0,0.71875 -0.5,1.140625 -1.328125,1.140625 -0.5625,0 -1.203125,-0.25 -1.71875,-0.671875 l -0.421875,0.875 C 0.859375,-0.25 1.75,0.03125 2.5,0.03125 c 1.421875,0 2.34375,-0.84375 2.34375,-2.125 0,-1.125 -0.890625,-1.9375 -2.265625,-1.9375 l -0.875,0.015625 v -1.375 z m 0,0"
           id="path3225" />
      </g>
    </g>
    <g
       style="fill:#211e1e;fill-opacity:1"
       id="g1016"
       transform="matrix(0.35277777,0,0,0.35277777,-737.19893,-336.81385)">
      <g
         id="use1012"
         transform="translate(25.868294,198.54147)">
        <path
           style="stroke:none"
           d="M 2.4375,0 V -6.359375 H 0.125 V -5.40625 H 1.359375 V 0 Z m 0,0"
           id="path3221" />
      </g>
      <g
         id="use1014"
         transform="translate(29.381378,198.54147)">
        <path
           style="stroke:none"
           d="m 3.140625,-6.375 c -1.75,0 -2.703125,1.140625 -2.703125,3.203125 0,2.0625 0.953125,3.203125 2.703125,3.203125 1.734375,0 2.703125,-1.140625 2.703125,-3.203125 0,-2.0625 -0.96875,-3.203125 -2.703125,-3.203125 z m 0,0.84375 c 1.0625,0 1.59375,0.734375 1.59375,2.359375 0,1.59375 -0.53125,2.359375 -1.59375,2.359375 -1.078125,0 -1.609375,-0.765625 -1.609375,-2.359375 0,-1.625 0.53125,-2.359375 1.609375,-2.359375 z m 0,0"
           id="path3217" />
      </g>
    </g>
    <path
       style="fill:#f05928;fill-opacity:1;fill-rule:nonzero;stroke:none;stroke-width:0.352778"
       d="m -710.54767,-242.1509 c 0,0.58705 -0.47542,1.06109 -1.06247,1.06109 -0.58567,0 -1.06109,-0.47404 -1.06109,-1.06109 0,-0.58566 0.47542,-1.06109 1.06109,-1.06109 0.58705,0 1.06247,0.47543 1.06247,1.06109"
       id="path1018" />
    <path
       style="fill:#f05928;fill-opacity:1;fill-rule:nonzero;stroke:none;stroke-width:0.352778"
       d="m -698.00752,-267.65425 c 0,0.58567 -0.47543,1.06109 -1.06109,1.06109 -0.58567,0 -1.06109,-0.47542 -1.06109,-1.06109 0,-0.58704 0.47542,-1.06247 1.06109,-1.06247 0.58566,0 1.06109,0.47543 1.06109,1.06247"
       id="path1020" />
    <path
       style="fill:#f05928;fill-opacity:1;fill-rule:nonzero;stroke:none;stroke-width:0.352778"
       d="m -684.57028,-249.95197 c 0,0.58566 -0.47542,1.06109 -1.06108,1.06109 -0.58705,0 -1.06247,-0.47543 -1.06247,-1.06109 0,-0.58705 0.47542,-1.06247 1.06247,-1.06247 0.58566,0 1.06108,0.47542 1.06108,1.06247"
       id="path1022" />
    <path
       style="fill:#f05928;fill-opacity:1;fill-rule:nonzero;stroke:none;stroke-width:0.352778"
       d="m -672.02875,-252.74801 c 0,0.58705 -0.47542,1.06247 -1.06247,1.06247 -0.58566,0 -1.06109,-0.47542 -1.06109,-1.06247 0,-0.58567 0.47543,-1.06109 1.06109,-1.06109 0.58705,0 1.06247,0.47542 1.06247,1.06109"
       id="path1024" />
    <path
       style="fill:#f05928;fill-opacity:1;fill-rule:nonzero;stroke:none;stroke-width:0.352778"
       d="m -659.75456,-255.97262 c 0,0.58704 -0.47543,1.06109 -1.06109,1.06109 -0.58705,0 -1.06247,-0.47405 -1.06247,-1.06109 0,-0.58567 0.47542,-1.06109 1.06247,-1.06109 0.58566,0 1.06109,0.47542 1.06109,1.06109"
       id="path1026" />
    <path
       style="fill:#f05928;fill-opacity:1;fill-rule:nonzero;stroke:none;stroke-width:0.352778"
       d="m -647.21442,-265.20134 c 0,0.58567 -0.47404,1.06109 -1.06108,1.06109 -0.58567,0 -1.0611,-0.47542 -1.0611,-1.06109 0,-0.58705 0.47543,-1.06247 1.0611,-1.06247 0.58704,0 1.06108,0.47542 1.06108,1.06247"
       id="path1028" />
    <path
       style="fill:#f05928;fill-opacity:1;fill-rule:nonzero;stroke:none;stroke-width:0.352778"
       d="m -633.77717,-239.66905 c 0,0.58705 -0.47542,1.06247 -1.06109,1.06247 -0.58704,0 -1.06108,-0.47542 -1.06108,-1.06247 0,-0.58566 0.47404,-1.06109 1.06108,-1.06109 0.58567,0 1.06109,0.47543 1.06109,1.06109"
       id="path1030" />
    <path
       style="fill:#f05928;fill-opacity:1;fill-rule:nonzero;stroke:none;stroke-width:0.352778"
       d="m -621.23564,-245.67041 c 0,0.58705 -0.47542,1.06247 -1.06109,1.06247 -0.58704,0 -1.06247,-0.47542 -1.06247,-1.06247 0,-0.58566 0.47543,-1.06109 1.06247,-1.06109 0.58567,0 1.06109,0.47543 1.06109,1.06109"
       id="path1032" />
    <path
       style="fill:#f05928;fill-opacity:1;fill-rule:nonzero;stroke:none;stroke-width:0.352778"
       d="m -608.69549,-252.686 c 0,0.58705 -0.47405,1.06247 -1.06109,1.06247 -0.58567,0 -1.06109,-0.47542 -1.06109,-1.06247 0,-0.58566 0.47542,-1.06109 1.06109,-1.06109 0.58704,0 1.06109,0.47543 1.06109,1.06109"
       id="path1034" />
    <path
       style="fill:#f05928;fill-opacity:1;fill-rule:nonzero;stroke:none;stroke-width:0.352778"
       d="m -596.15397,-245.67041 c 0,0.58705 -0.47542,1.06247 -1.06109,1.06247 -0.58566,0 -1.06246,-0.47542 -1.06246,-1.06247 0,-0.58566 0.4768,-1.06109 1.06246,-1.06109 0.58567,0 1.06109,0.47543 1.06109,1.06109"
       id="path1036" />
    <path
       style="fill:#f05928;fill-opacity:1;fill-rule:nonzero;stroke:none;stroke-width:0.352778"
       d="m -582.71672,-249.95197 c 0,0.58566 -0.47542,1.06109 -1.06247,1.06109 -0.58566,0 -1.06109,-0.47543 -1.06109,-1.06109 0,-0.58705 0.47543,-1.06247 1.06109,-1.06247 0.58705,0 1.06247,0.47542 1.06247,1.06247"
       id="path1038" />
    <path
       style="fill:#f05928;fill-opacity:1;fill-rule:nonzero;stroke:none;stroke-width:0.352778"
       d="m -570.17657,-258.6405 c 0,0.58567 -0.47542,1.06109 -1.06109,1.06109 -0.58567,0 -1.06109,-0.47542 -1.06109,-1.06109 0,-0.58704 0.47542,-1.06247 1.06109,-1.06247 0.58567,0 1.06109,0.47543 1.06109,1.06247"
       id="path1040" />
    <g
       style="fill:#d15426;fill-opacity:1"
       id="g1776"
       transform="matrix(0.35277777,0,0,0.35277777,-737.19893,-336.81385)">
      <g
         id="use1768"
         transform="translate(420.15091,188.0069)">
        <path
           style="stroke:none"
           d="m 4.6875,0.1875 c 3,0 4.46875,-1.5 4.46875,-3.265625 0,-3.859375 -6.109375,-2.515625 -6.109375,-4.453125 0,-0.65625 0.546875,-1.203125 2,-1.203125 0.921875,0 1.921875,0.28125 2.90625,0.828125 l 0.75,-1.84375 C 7.71875,-10.359375 6.375,-10.6875 5.0625,-10.6875 c -3,0 -4.4375,1.5 -4.4375,3.28125 0,3.890625 6.109375,2.546875 6.109375,4.515625 0,0.640625 -0.578125,1.125 -2.03125,1.125 -1.25,0 -2.578125,-0.453125 -3.453125,-1.09375 L 0.421875,-1.03125 C 1.34375,-0.3125 3.03125,0.1875 4.6875,0.1875 Z m 0,0"
           id="path3197" />
      </g>
      <g
         id="use1770"
         transform="translate(429.72089,188.0069)">
        <path
           style="stroke:none"
           d="m 4.984375,0.125 c 1.6875,0 3.03125,-0.75 3.609375,-2.046875 L 6.78125,-2.90625 c -0.4375,0.78125 -1.078125,1.109375 -1.8125,1.109375 -1.1875,0 -2.125,-0.828125 -2.125,-2.234375 0,-1.40625 0.9375,-2.234375 2.125,-2.234375 0.734375,0 1.375,0.34375 1.8125,1.109375 l 1.8125,-0.984375 C 8.015625,-7.453125 6.671875,-8.1875 4.984375,-8.1875 c -2.625,0 -4.5,1.71875 -4.5,4.15625 0,2.421875 1.875,4.15625 4.5,4.15625 z m 0,0"
           id="path3193" />
      </g>
      <g
         id="use1772"
         transform="translate(438.58591,188.0069)">
        <path
           style="stroke:none"
           d="m 4.328125,-8.1875 c -1.28125,0 -2.59375,0.34375 -3.46875,0.96875 L 1.6875,-5.578125 c 0.59375,-0.46875 1.484375,-0.75 2.328125,-0.75 1.265625,0 1.859375,0.578125 1.859375,1.59375 H 4.015625 c -2.453125,0 -3.453125,0.984375 -3.453125,2.40625 0,1.390625 1.125,2.453125 3,2.453125 1.1875,0 2.03125,-0.390625 2.46875,-1.125 v 1 h 2.1875 v -4.609375 c 0,-2.4375 -1.421875,-3.578125 -3.890625,-3.578125 z M 4.15625,-1.453125 c -0.828125,0 -1.328125,-0.390625 -1.328125,-0.984375 0,-0.53125 0.359375,-0.9375 1.453125,-0.9375 H 5.875 v 0.828125 c -0.265625,0.734375 -0.9375,1.09375 -1.71875,1.09375 z m 0,0"
           id="path3189" />
      </g>
      <g
         id="use1774"
         transform="translate(447.84091,188.0069)">
        <path
           style="stroke:none"
           d="m 5.65625,-2.046875 c -0.25,0.203125 -0.59375,0.3125 -0.953125,0.3125 -0.625,0 -1,-0.375 -1,-1.078125 V -6.09375 H 5.71875 V -7.890625 H 3.703125 v -1.96875 h -2.34375 v 1.96875 H 0.125 v 1.796875 h 1.234375 v 3.3125 c 0,1.921875 1.109375,2.90625 3.015625,2.90625 0.71875,0 1.4375,-0.171875 1.90625,-0.515625 z m 0,0"
           id="path3181" />
      </g>
    </g>
    <g
       style="fill:#d15426;fill-opacity:1"
       id="g1780"
       transform="matrix(0.35277777,0,0,0.35277777,-737.19893,-336.81385)">
      <g
         id="use1778"
         transform="translate(454.18591,188.0069)">
        <path
           style="stroke:none"
           d="m 5.65625,-2.046875 c -0.25,0.203125 -0.59375,0.3125 -0.953125,0.3125 -0.625,0 -1,-0.375 -1,-1.078125 V -6.09375 H 5.71875 V -7.890625 H 3.703125 v -1.96875 h -2.34375 v 1.96875 H 0.125 v 1.796875 h 1.234375 v 3.3125 c 0,1.921875 1.109375,2.90625 3.015625,2.90625 0.71875,0 1.4375,-0.171875 1.90625,-0.515625 z m 0,0"
           id="path3185" />
      </g>
    </g>
    <g
       style="fill:#d15426;fill-opacity:1"
       id="g1786"
       transform="matrix(0.35277777,0,0,0.35277777,-737.19893,-336.81385)">
      <g
         id="use1782"
         transform="translate(460.4559,188.0069)">
        <path
           style="stroke:none"
           d="m 8.984375,-4 c 0,-2.59375 -1.828125,-4.1875 -4.203125,-4.1875 -2.453125,0 -4.296875,1.734375 -4.296875,4.15625 0,2.390625 1.8125,4.15625 4.59375,4.15625 1.46875,0 2.59375,-0.453125 3.34375,-1.3125 l -1.25,-1.34375 C 6.609375,-2.015625 6,-1.75 5.140625,-1.75 3.921875,-1.75 3.0625,-2.375 2.828125,-3.375 H 8.9375 C 8.953125,-3.5625 8.984375,-3.828125 8.984375,-4 Z m -4.1875,-2.421875 c 1.046875,0 1.8125,0.65625 1.984375,1.6875 H 2.8125 c 0.15625,-1.046875 0.921875,-1.6875 1.984375,-1.6875 z m 0,0"
           id="path3177" />
      </g>
      <g
         id="use1784"
         transform="translate(469.9209,188.0069)">
        <path
           style="stroke:none"
           d="M 3.3125,-7 V -8.0625 H 1.078125 V 0 h 2.34375 v -3.8125 c 0,-1.546875 0.859375,-2.25 2.140625,-2.25 0.1875,0 0.328125,0.015625 0.53125,0.03125 V -8.1875 c -1.25,0 -2.203125,0.40625 -2.78125,1.1875 z m 0,0"
           id="path3173" />
      </g>
    </g>
  </g>
</svg>
