<?xml version="1.0" encoding="UTF-8" standalone="no"?>
<!-- Created with Inkscape (http://www.inkscape.org/) -->

<svg
   width="167.53207mm"
   height="40.416954mm"
   viewBox="0 0 167.53207 40.416954"
   version="1.1"
   id="svg6320"
   xmlns="http://www.w3.org/2000/svg"
   xmlns:svg="http://www.w3.org/2000/svg">
  <defs
     id="defs6317">
    <clipPath
       id="clip16">
      <path
         d="m 559,357.25391 h 441 V 467 H 559 Z m 0,0"
         id="path724" />
    </clipPath>
  </defs>
  <g
     id="layer1"
     transform="translate(-103.74667,37.827125)">
    <g
       style="fill:#d15426;fill-opacity:1"
       id="g1828"
       transform="matrix(0.35277777,0,0,0.35277777,-81.616151,-161.16222)">
      <g
         id="use1824"
         transform="translate(951.02679,360.1113)">
        <path
           style="stroke:none"
           d="m 9.09375,0 h 2.546875 L 6.9375,-10.5 H 4.546875 L -0.140625,0 h 2.5 L 3.28125,-2.25 h 4.875 z M 4.0625,-4.09375 5.734375,-8.109375 7.390625,-4.09375 Z m 0,0"
           id="path6893" />
      </g>
      <g
         id="use1826"
         transform="translate(962.51678,360.1113)">
        <path
           style="stroke:none"
           d="M 3.3125,-7 V -8.0625 H 1.078125 V 0 h 2.34375 v -3.8125 c 0,-1.546875 0.859375,-2.25 2.140625,-2.25 0.1875,0 0.328125,0.015625 0.53125,0.03125 V -8.1875 c -1.25,0 -2.203125,0.40625 -2.78125,1.1875 z m 0,0"
           id="path6897" />
      </g>
    </g>
    <g
       style="fill:#d15426;fill-opacity:1"
       id="g1832"
       transform="matrix(0.35277777,0,0,0.35277777,-81.616151,-161.16222)">
      <g
         id="use1830"
         transform="translate(968.8468,360.1113)">
        <path
           style="stroke:none"
           d="m 8.984375,-4 c 0,-2.59375 -1.828125,-4.1875 -4.203125,-4.1875 -2.453125,0 -4.296875,1.734375 -4.296875,4.15625 0,2.390625 1.8125,4.15625 4.59375,4.15625 1.46875,0 2.59375,-0.453125 3.34375,-1.3125 l -1.25,-1.34375 C 6.609375,-2.015625 6,-1.75 5.140625,-1.75 3.921875,-1.75 3.0625,-2.375 2.828125,-3.375 H 8.9375 C 8.953125,-3.5625 8.984375,-3.828125 8.984375,-4 Z m -4.1875,-2.421875 c 1.046875,0 1.8125,0.65625 1.984375,1.6875 H 2.8125 c 0.15625,-1.046875 0.921875,-1.6875 1.984375,-1.6875 z m 0,0"
           id="path6901" />
      </g>
    </g>
    <g
       style="fill:#d15426;fill-opacity:1"
       id="g1836"
       transform="matrix(0.35277777,0,0,0.35277777,-81.616151,-161.16222)">
      <g
         id="use1834"
         transform="translate(978.08679,360.1113)">
        <path
           style="stroke:none"
           d="m 4.328125,-8.1875 c -1.28125,0 -2.59375,0.34375 -3.46875,0.96875 L 1.6875,-5.578125 c 0.59375,-0.46875 1.484375,-0.75 2.328125,-0.75 1.265625,0 1.859375,0.578125 1.859375,1.59375 H 4.015625 c -2.453125,0 -3.453125,0.984375 -3.453125,2.40625 0,1.390625 1.125,2.453125 3,2.453125 1.1875,0 2.03125,-0.390625 2.46875,-1.125 v 1 h 2.1875 v -4.609375 c 0,-2.4375 -1.421875,-3.578125 -3.890625,-3.578125 z M 4.15625,-1.453125 c -0.828125,0 -1.328125,-0.390625 -1.328125,-0.984375 0,-0.53125 0.359375,-0.9375 1.453125,-0.9375 H 5.875 v 0.828125 c -0.265625,0.734375 -0.9375,1.09375 -1.71875,1.09375 z m 0,0"
           id="path6905" />
      </g>
    </g>
    <path
       style="fill:#f05928;fill-opacity:1;fill-rule:nonzero;stroke:none;stroke-width:0.352778"
       d="m 120.94581,-1.6708398 v -5.5286874 l 12.94391,-26.1096898 13.8672,18.270029 13.07621,-2.440506 12.53601,-3.771688 12.94254,-9.526379 13.86857,26.3522242 12.94254,-6.1929042 12.94391,-6.870898 12.69035,6.870898 14.12076,-4.420747 12.94253,-8.966894 v 22.3352422 z m 0,0"
       id="path1914" />
    <g
       clip-path="url(#clip16)"
       clip-rule="nonzero"
       id="g1918"
       transform="matrix(0.35277777,0,0,0.35277777,-81.616151,-161.16222)">
      <path
         style="fill:none;stroke:#f05928;stroke-width:1;stroke-linecap:butt;stroke-linejoin:miter;stroke-miterlimit:10;stroke-opacity:1"
         d="M -6.70194e-4,1.32831e-4 V 15.139876 L 35.444895,86.638559 73.418783,36.607972 l 35.807827,6.683072 34.32858,10.328384 35.44179,26.087 37.97766,-72.162839 35.4418,16.958626 35.44556,18.815244 34.75122,-18.815244 38.66823,12.105757 35.4418,24.554912 V 1.32831e-4 Z m 0,0"
         transform="matrix(1.035148,0,0,-1.035148,574.1921,452.1017)"
         id="path1916" />
    </g>
    <path
       style="fill:none;stroke:#211e1e;stroke-width:0.245764;stroke-linecap:butt;stroke-linejoin:miter;stroke-miterlimit:10;stroke-opacity:1"
       d="M 111.79426,-33.309218 V 0.12060995"
       id="path1920" />
    <path
       style="fill:none;stroke:#211e1e;stroke-width:0.245764;stroke-linecap:butt;stroke-linejoin:miter;stroke-miterlimit:10;stroke-opacity:1"
       d="M 108.32712,-1.670839 H 271.27875"
       id="path1922" />
    <path
       style="fill:none;stroke:#211e1e;stroke-width:0.245764;stroke-linecap:butt;stroke-linejoin:miter;stroke-miterlimit:10;stroke-opacity:1"
       d="m 108.65234,-17.489339 h 3.14192"
       id="path1924" />
    <path
       style="fill:none;stroke:#211e1e;stroke-width:0.245764;stroke-linecap:butt;stroke-linejoin:miter;stroke-miterlimit:10;stroke-opacity:1"
       d="m 108.65234,-33.309218 h 3.14192"
       id="path1926" />
    <g
       style="fill:#211e1e;fill-opacity:1"
       id="g1930"
       transform="matrix(0.35277777,0,0,0.35277777,-81.616151,-161.16222)">
      <g
         id="use1928"
         transform="translate(564.78143,464.13217)">
        <path
           style="stroke:none"
           d="m 3.953125,-6.5625 h -3.375 v 1 H 2.84375 v 3.5 c 0,0.671875 -0.34375,1.046875 -0.9375,1.046875 C 1.453125,-1.015625 0.9375,-1.28125 0.5,-1.75 l -0.515625,0.84375 C 0.46875,-0.296875 1.125,0.046875 1.90625,0.046875 c 1.265625,0 2.046875,-0.75 2.046875,-2.078125 z m 0,0"
           id="path6881" />
      </g>
    </g>
    <g
       style="fill:#211e1e;fill-opacity:1"
       id="g1936"
       transform="matrix(0.35277777,0,0,0.35277777,-81.616151,-161.16222)">
      <g
         id="use1932"
         transform="translate(569.26917,464.13217)">
        <path
           style="stroke:none"
           d="M 5.09375,-1.484375 5.734375,0 H 6.90625 L 4.046875,-6.5625 H 2.90625 L 0.015625,0 H 1.15625 L 1.796875,-1.484375 Z M 4.671875,-2.46875 H 2.203125 L 3.4375,-5.375 Z m 0,0"
           id="path6861" />
      </g>
      <g
         id="use1934"
         transform="translate(576.18341,464.13217)">
        <path
           style="stroke:none"
           d="M 6.546875,0 V -6.5625 H 5.46875 v 4.71875 L 1.953125,-6.5625 H 0.859375 V 0 H 1.96875 V -4.703125 L 5.46875,0 Z m 0,0"
           id="path6849" />
      </g>
    </g>
    <g
       style="fill:#211e1e;fill-opacity:1"
       id="g1944"
       transform="matrix(0.35277777,0,0,0.35277777,-81.616151,-161.16222)">
      <g
         id="use1938"
         transform="translate(601.80743,464.13217)">
        <path
           style="stroke:none"
           d="m 5.265625,-5.5625 v -1 H 0.859375 V 0 H 1.96875 V -2.6875 H 4.953125 V -3.671875 H 1.96875 V -5.5625 Z m 0,0"
           id="path6845" />
      </g>
      <g
         id="use1940"
         transform="translate(607.19452,464.13217)">
        <path
           style="stroke:none"
           d="m 5.546875,-5.5625 v -1 h -4.6875 V 0 H 5.65625 v -1 h -3.6875 v -1.796875 h 3.203125 v -1 H 1.96875 V -5.5625 Z m 0,0"
           id="path6833" />
      </g>
      <g
         id="use1942"
         transform="translate(613.34058,464.13217)">
        <path
           style="stroke:none"
           d="M 0.859375,-6.5625 V 0 H 3.78125 c 1.484375,0 2.390625,-0.671875 2.390625,-1.796875 0,-0.890625 -0.53125,-1.515625 -1.40625,-1.65625 C 5.46875,-3.625 5.921875,-4.1875 5.921875,-4.921875 5.921875,-5.9375 5.078125,-6.5625 3.71875,-6.5625 Z m 1.109375,0.984375 h 1.6875 c 0.703125,0 1.125,0.296875 1.125,0.859375 0,0.546875 -0.421875,0.875 -1.125,0.875 h -1.6875 z m 0,2.703125 h 1.6875 c 0.859375,0 1.375,0.359375 1.375,0.9375 0,0.609375 -0.515625,0.953125 -1.375,0.953125 h -1.6875 z m 0,0"
           id="path6829" />
      </g>
    </g>
    <g
       style="fill:#211e1e;fill-opacity:1"
       id="g1952"
       transform="matrix(0.35277777,0,0,0.35277777,-81.616151,-161.16222)">
      <g
         id="use1946"
         transform="translate(639.01141,464.13217)">
        <path
           style="stroke:none"
           d="M 7.796875,0 V -6.5625 H 6.5 L 4.34375,-2.203125 2.171875,-6.5625 h -1.3125 V 0 H 1.90625 v -4.90625 l 2.0625,4.21875 H 4.703125 L 6.765625,-4.90625 6.78125,0 Z m 0,0"
           id="path6821" />
      </g>
      <g
         id="use1948"
         transform="translate(647.67767,464.13217)">
        <path
           style="stroke:none"
           d="M 5.09375,-1.484375 5.734375,0 H 6.90625 L 4.046875,-6.5625 H 2.90625 L 0.015625,0 H 1.15625 L 1.796875,-1.484375 Z M 4.671875,-2.46875 H 2.203125 L 3.4375,-5.375 Z m 0,0"
           id="path6865" />
      </g>
      <g
         id="use1950"
         transform="translate(654.59192,464.13217)">
        <path
           style="stroke:none"
           d="m 5.03125,0 h 1.25 L 4.8125,-2.1875 C 5.6875,-2.53125 6.171875,-3.265625 6.171875,-4.328125 6.171875,-5.75 5.203125,-6.5625 3.53125,-6.5625 H 0.859375 V 0 H 1.96875 v -1.984375 h 1.5625 c 0.09375,0 0.203125,0 0.296875,0 z M 1.96875,-2.96875 V -5.5625 h 1.5625 c 1,0 1.59375,0.40625 1.59375,1.265625 0,0.890625 -0.59375,1.328125 -1.59375,1.328125 z m 0,0"
           id="path6813" />
      </g>
    </g>
    <g
       style="fill:#211e1e;fill-opacity:1"
       id="g1960"
       transform="matrix(0.35277777,0,0,0.35277777,-81.616151,-161.16222)">
      <g
         id="use1954"
         transform="translate(676.88055,464.13217)">
        <path
           style="stroke:none"
           d="M 5.09375,-1.484375 5.734375,0 H 6.90625 L 4.046875,-6.5625 H 2.90625 L 0.015625,0 H 1.15625 L 1.796875,-1.484375 Z M 4.671875,-2.46875 H 2.203125 L 3.4375,-5.375 Z m 0,0"
           id="path6869" />
      </g>
      <g
         id="use1956"
         transform="translate(683.7948,464.13217)">
        <path
           style="stroke:none"
           d="M 0.859375,-6.5625 V 0 H 1.96875 v -1.984375 h 1.515625 c 1.640625,0 2.59375,-0.859375 2.59375,-2.34375 C 6.078125,-5.75 5.125,-6.5625 3.484375,-6.5625 Z m 1.109375,1 H 3.4375 c 1,0 1.578125,0.40625 1.578125,1.265625 0,0.890625 -0.578125,1.328125 -1.578125,1.328125 H 1.96875 Z m 0,0"
           id="path6805" />
      </g>
      <g
         id="use1958"
         transform="translate(690.1001,464.13217)">
        <path
           style="stroke:none"
           d="m 5.03125,0 h 1.25 L 4.8125,-2.1875 C 5.6875,-2.53125 6.171875,-3.265625 6.171875,-4.328125 6.171875,-5.75 5.203125,-6.5625 3.53125,-6.5625 H 0.859375 V 0 H 1.96875 v -1.984375 h 1.5625 c 0.09375,0 0.203125,0 0.296875,0 z M 1.96875,-2.96875 V -5.5625 h 1.5625 c 1,0 1.59375,0.40625 1.59375,1.265625 0,0.890625 -0.59375,1.328125 -1.59375,1.328125 z m 0,0"
           id="path6817" />
      </g>
    </g>
    <g
       style="fill:#211e1e;fill-opacity:1"
       id="g1966"
       transform="matrix(0.35277777,0,0,0.35277777,-81.616151,-161.16222)">
      <g
         id="use1962"
         transform="translate(712.23883,464.13217)">
        <path
           style="stroke:none"
           d="M 7.796875,0 V -6.5625 H 6.5 L 4.34375,-2.203125 2.171875,-6.5625 h -1.3125 V 0 H 1.90625 v -4.90625 l 2.0625,4.21875 H 4.703125 L 6.765625,-4.90625 6.78125,0 Z m 0,0"
           id="path6825" />
      </g>
      <g
         id="use1964"
         transform="translate(720.90503,464.13217)">
        <path
           style="stroke:none"
           d="M 5.09375,-1.484375 5.734375,0 H 6.90625 L 4.046875,-6.5625 H 2.90625 L 0.015625,0 H 1.15625 L 1.796875,-1.484375 Z M 4.671875,-2.46875 H 2.203125 L 3.4375,-5.375 Z m 0,0"
           id="path6873" />
      </g>
    </g>
    <g
       style="fill:#211e1e;fill-opacity:1"
       id="g1970"
       transform="matrix(0.35277777,0,0,0.35277777,-81.616151,-161.16222)">
      <g
         id="use1968"
         transform="translate(727.36023,464.13217)">
        <path
           style="stroke:none"
           d="m 3.546875,-2.1875 2.421875,-4.375 h -1.125 L 3,-3.359375 1.125,-6.5625 H 0.015625 l 2.4375,4.421875 V 0 h 1.09375 z m 0,0"
           id="path6801" />
      </g>
    </g>
    <g
       style="fill:#211e1e;fill-opacity:1"
       id="g1978"
       transform="matrix(0.35277777,0,0,0.35277777,-81.616151,-161.16222)">
      <g
         id="use1972"
         transform="translate(749.8457,464.13217)">
        <path
           style="stroke:none"
           d="m 3.953125,-6.5625 h -3.375 v 1 H 2.84375 v 3.5 c 0,0.671875 -0.34375,1.046875 -0.9375,1.046875 C 1.453125,-1.015625 0.9375,-1.28125 0.5,-1.75 l -0.515625,0.84375 C 0.46875,-0.296875 1.125,0.046875 1.90625,0.046875 c 1.265625,0 2.046875,-0.75 2.046875,-2.078125 z m 0,0"
           id="path6885" />
      </g>
      <g
         id="use1974"
         transform="translate(754.52081,464.13217)">
        <path
           style="stroke:none"
           d="M 6.4375,-6.5625 H 5.328125 v 3.84375 c 0,1.109375 -0.65625,1.765625 -1.734375,1.765625 -1.078125,0 -1.75,-0.65625 -1.75,-1.765625 V -6.5625 H 0.734375 v 3.84375 C 0.734375,-1 1.8125,0.046875 3.59375,0.046875 5.359375,0.046875 6.4375,-1 6.4375,-2.71875 Z m 0,0"
           id="path6789" />
      </g>
      <g
         id="use1976"
         transform="translate(761.67865,464.13217)">
        <path
           style="stroke:none"
           d="M 6.546875,0 V -6.5625 H 5.46875 v 4.71875 L 1.953125,-6.5625 H 0.859375 V 0 H 1.96875 V -4.703125 L 5.46875,0 Z m 0,0"
           id="path6853" />
      </g>
    </g>
    <g
       style="fill:#211e1e;fill-opacity:1"
       id="g1986"
       transform="matrix(0.35277777,0,0,0.35277777,-81.616151,-161.16222)">
      <g
         id="use1980"
         transform="translate(790.36627,464.13217)">
        <path
           style="stroke:none"
           d="m 3.953125,-6.5625 h -3.375 v 1 H 2.84375 v 3.5 c 0,0.671875 -0.34375,1.046875 -0.9375,1.046875 C 1.453125,-1.015625 0.9375,-1.28125 0.5,-1.75 l -0.515625,0.84375 C 0.46875,-0.296875 1.125,0.046875 1.90625,0.046875 c 1.265625,0 2.046875,-0.75 2.046875,-2.078125 z m 0,0"
           id="path6889" />
      </g>
      <g
         id="use1982"
         transform="translate(795.04138,464.13217)">
        <path
           style="stroke:none"
           d="M 6.4375,-6.5625 H 5.328125 v 3.84375 c 0,1.109375 -0.65625,1.765625 -1.734375,1.765625 -1.078125,0 -1.75,-0.65625 -1.75,-1.765625 V -6.5625 H 0.734375 v 3.84375 C 0.734375,-1 1.8125,0.046875 3.59375,0.046875 5.359375,0.046875 6.4375,-1 6.4375,-2.71875 Z m 0,0"
           id="path6793" />
      </g>
      <g
         id="use1984"
         transform="translate(802.19922,464.13217)">
        <path
           style="stroke:none"
           d="M 1.96875,-1 V -6.5625 H 0.859375 V 0 H 4.8125 v -1 z m 0,0"
           id="path6785" />
      </g>
    </g>
    <g
       style="fill:#211e1e;fill-opacity:1"
       id="g1990"
       transform="matrix(0.35277777,0,0,0.35277777,-81.616151,-161.16222)">
      <g
         id="use1988"
         transform="translate(825.02191,464.13217)">
        <path
           style="stroke:none"
           d="M 5.09375,-1.484375 5.734375,0 H 6.90625 L 4.046875,-6.5625 H 2.90625 L 0.015625,0 H 1.15625 L 1.796875,-1.484375 Z M 4.671875,-2.46875 H 2.203125 L 3.4375,-5.375 Z m 0,0"
           id="path6877" />
      </g>
    </g>
    <g
       style="fill:#211e1e;fill-opacity:1"
       id="g1996"
       transform="matrix(0.35277777,0,0,0.35277777,-81.616151,-161.16222)">
      <g
         id="use1992"
         transform="translate(831.74878,464.13217)">
        <path
           style="stroke:none"
           d="M 6.4375,-6.5625 H 5.328125 v 3.84375 c 0,1.109375 -0.65625,1.765625 -1.734375,1.765625 -1.078125,0 -1.75,-0.65625 -1.75,-1.765625 V -6.5625 H 0.734375 v 3.84375 C 0.734375,-1 1.8125,0.046875 3.59375,0.046875 5.359375,0.046875 6.4375,-1 6.4375,-2.71875 Z m 0,0"
           id="path6797" />
      </g>
      <g
         id="use1994"
         transform="translate(838.90662,464.13217)">
        <path
           style="stroke:none"
           d="m 5.359375,-3.21875 v 1.828125 c -0.46875,0.28125 -1.03125,0.4375 -1.515625,0.4375 -1.34375,0 -2.40625,-1.015625 -2.40625,-2.328125 0,-1.296875 1.0625,-2.328125 2.390625,-2.328125 0.6875,0 1.390625,0.28125 1.90625,0.75 l 0.625,-0.8125 c -0.65625,-0.5625 -1.59375,-0.921875 -2.53125,-0.921875 -1.984375,0 -3.515625,1.4375 -3.515625,3.3125 0,1.875 1.515625,3.328125 3.453125,3.328125 0.90625,0 1.890625,-0.34375 2.546875,-0.859375 v -2.40625 z m 0,0"
           id="path6781" />
      </g>
    </g>
    <g
       style="fill:#211e1e;fill-opacity:1"
       id="g2004"
       transform="matrix(0.35277777,0,0,0.35277777,-81.616151,-161.16222)">
      <g
         id="use1998"
         transform="translate(863.02222,464.13217)">
        <path
           style="stroke:none"
           d="m 3.015625,-6.609375 c -1.421875,0 -2.390625,0.703125 -2.390625,1.828125 0,2.328125 3.546875,1.515625 3.546875,2.984375 C 4.171875,-1.296875 3.71875,-1 2.9375,-1 2.234375,-1 1.390625,-1.34375 0.71875,-1.953125 L 0.25,-1 c 0.671875,0.609375 1.640625,1.03125 2.671875,1.03125 1.453125,0 2.484375,-0.71875 2.484375,-1.890625 0,-2.359375 -3.546875,-1.59375 -3.546875,-3.03125 0,-0.4375 0.421875,-0.671875 1.078125,-0.671875 0.5,0 1.203125,0.171875 1.921875,0.609375 L 5.3125,-5.9375 C 4.703125,-6.34375 3.875,-6.609375 3.015625,-6.609375 Z m 0,0"
           id="path6777" />
      </g>
      <g
         id="use2000"
         transform="translate(868.84967,464.13217)">
        <path
           style="stroke:none"
           d="m 5.546875,-5.5625 v -1 h -4.6875 V 0 H 5.65625 v -1 h -3.6875 v -1.796875 h 3.203125 v -1 H 1.96875 V -5.5625 Z m 0,0"
           id="path6837" />
      </g>
      <g
         id="use2002"
         transform="translate(874.99567,464.13217)">
        <path
           style="stroke:none"
           d="M 0.859375,-6.5625 V 0 H 1.96875 v -1.984375 h 1.515625 c 1.640625,0 2.59375,-0.859375 2.59375,-2.34375 C 6.078125,-5.75 5.125,-6.5625 3.484375,-6.5625 Z m 1.109375,1 H 3.4375 c 1,0 1.578125,0.40625 1.578125,1.265625 0,0.890625 -0.578125,1.328125 -1.578125,1.328125 H 1.96875 Z m 0,0"
           id="path6809" />
      </g>
    </g>
    <g
       style="fill:#211e1e;fill-opacity:1"
       id="g2010"
       transform="matrix(0.35277777,0,0,0.35277777,-81.616151,-161.16222)">
      <g
         id="use2006"
         transform="translate(899.21436,464.13217)">
        <path
           style="stroke:none"
           d="m 3.796875,-6.59375 c -1.953125,0 -3.484375,1.421875 -3.484375,3.3125 0,1.875 1.53125,3.328125 3.484375,3.328125 1.953125,0 3.484375,-1.453125 3.484375,-3.328125 0,-1.875 -1.53125,-3.3125 -3.484375,-3.3125 z m 0.015625,1 c 1.28125,0 2.328125,1.015625 2.328125,2.3125 0,1.296875 -1.046875,2.328125 -2.328125,2.328125 -1.296875,0 -2.375,-1.03125 -2.375,-2.328125 0,-1.296875 1.078125,-2.3125 2.375,-2.3125 z m 0,0"
           id="path6769" />
      </g>
      <g
         id="use2008"
         transform="translate(906.54089,464.13217)">
        <path
           style="stroke:none"
           d="m 3.765625,-6.59375 c -1.9375,0 -3.453125,1.4375 -3.453125,3.296875 0,1.890625 1.5,3.34375 3.421875,3.34375 0.921875,0 1.875,-0.421875 2.53125,-1.078125 L 5.609375,-1.765625 C 5.125,-1.28125 4.4375,-0.984375 3.78125,-0.984375 2.46875,-0.984375 1.4375,-2 1.4375,-3.296875 c 0,-1.296875 1.03125,-2.3125 2.34375,-2.3125 0.671875,0 1.359375,0.328125 1.828125,0.84375 l 0.65625,-0.8125 c -0.640625,-0.625 -1.5625,-1.015625 -2.5,-1.015625 z m 0,0"
           id="path6761" />
      </g>
    </g>
    <g
       style="fill:#211e1e;fill-opacity:1"
       id="g2014"
       transform="matrix(0.35277777,0,0,0.35277777,-81.616151,-161.16222)">
      <g
         id="use2012"
         transform="translate(913.07098,464.13217)">
        <path
           style="stroke:none"
           d="m 5.34375,-5.5625 v -1 H 0.078125 v 1 H 2.15625 V 0 h 1.109375 v -5.5625 z m 0,0"
           id="path6757" />
      </g>
    </g>
    <g
       style="fill:#211e1e;fill-opacity:1"
       id="g2020"
       transform="matrix(0.35277777,0,0,0.35277777,-81.616151,-161.16222)">
      <g
         id="use2016"
         transform="translate(937.47699,464.13217)">
        <path
           style="stroke:none"
           d="M 6.546875,0 V -6.5625 H 5.46875 v 4.71875 L 1.953125,-6.5625 H 0.859375 V 0 H 1.96875 V -4.703125 L 5.46875,0 Z m 0,0"
           id="path6857" />
      </g>
      <g
         id="use2018"
         transform="translate(944.89716,464.13217)">
        <path
           style="stroke:none"
           d="m 3.796875,-6.59375 c -1.953125,0 -3.484375,1.421875 -3.484375,3.3125 0,1.875 1.53125,3.328125 3.484375,3.328125 1.953125,0 3.484375,-1.453125 3.484375,-3.328125 0,-1.875 -1.53125,-3.3125 -3.484375,-3.3125 z m 0.015625,1 c 1.28125,0 2.328125,1.015625 2.328125,2.3125 0,1.296875 -1.046875,2.328125 -2.328125,2.328125 -1.296875,0 -2.375,-1.03125 -2.375,-2.328125 0,-1.296875 1.078125,-2.3125 2.375,-2.3125 z m 0,0"
           id="path6773" />
      </g>
    </g>
    <g
       style="fill:#211e1e;fill-opacity:1"
       id="g2024"
       transform="matrix(0.35277777,0,0,0.35277777,-81.616151,-161.16222)">
      <g
         id="use2022"
         transform="translate(952.39227,464.13217)">
        <path
           style="stroke:none"
           d="M 3.78125,0 6.4375,-6.5625 H 5.28125 L 3.25,-1.234375 1.21875,-6.5625 H 0.03125 L 2.640625,0 Z m 0,0"
           id="path6753" />
      </g>
    </g>
    <g
       style="fill:#211e1e;fill-opacity:1"
       id="g2032"
       transform="matrix(0.35277777,0,0,0.35277777,-81.616151,-161.16222)">
      <g
         id="use2026"
         transform="translate(974.88708,464.13217)">
        <path
           style="stroke:none"
           d="M 0.859375,-6.5625 V 0 H 3.53125 c 1.984375,0 3.421875,-1.390625 3.421875,-3.28125 0,-1.90625 -1.4375,-3.28125 -3.40625,-3.28125 z m 1.109375,1 h 1.5625 c 1.296875,0 2.296875,0.953125 2.296875,2.296875 C 5.828125,-1.9375 4.859375,-1 3.578125,-1 H 1.96875 Z m 0,0"
           id="path6749" />
      </g>
      <g
         id="use2028"
         transform="translate(982.14801,464.13217)">
        <path
           style="stroke:none"
           d="m 5.546875,-5.5625 v -1 h -4.6875 V 0 H 5.65625 v -1 h -3.6875 v -1.796875 h 3.203125 v -1 H 1.96875 V -5.5625 Z m 0,0"
           id="path6841" />
      </g>
      <g
         id="use2030"
         transform="translate(988.29401,464.13217)">
        <path
           style="stroke:none"
           d="m 3.765625,-6.59375 c -1.9375,0 -3.453125,1.4375 -3.453125,3.296875 0,1.890625 1.5,3.34375 3.421875,3.34375 0.921875,0 1.875,-0.421875 2.53125,-1.078125 L 5.609375,-1.765625 C 5.125,-1.28125 4.4375,-0.984375 3.78125,-0.984375 2.46875,-0.984375 1.4375,-2 1.4375,-3.296875 c 0,-1.296875 1.03125,-2.3125 2.34375,-2.3125 0.671875,0 1.359375,0.328125 1.828125,0.84375 l 0.65625,-0.8125 c -0.640625,-0.625 -1.5625,-1.015625 -2.5,-1.015625 z m 0,0"
           id="path6765" />
      </g>
    </g>
    <g
       style="fill:#211e1e;fill-opacity:1"
       id="g2036"
       transform="matrix(0.35277777,0,0,0.35277777,-81.616151,-161.16222)">
      <g
         id="use2034"
         transform="translate(527.81171,455.10052)">
        <path
           style="stroke:none"
           d="m 3.25,-6.59375 c -1.8125,0 -2.796875,1.1875 -2.796875,3.3125 0,2.125 0.984375,3.3125 2.796875,3.3125 1.78125,0 2.78125,-1.1875 2.78125,-3.3125 0,-2.125 -1,-3.3125 -2.78125,-3.3125 z m 0,0.875 c 1.09375,0 1.640625,0.765625 1.640625,2.4375 0,1.65625 -0.546875,2.4375 -1.640625,2.4375 -1.109375,0 -1.671875,-0.78125 -1.671875,-2.4375 0,-1.671875 0.5625,-2.4375 1.671875,-2.4375 z m 0,0"
           id="path6741" />
      </g>
    </g>
    <g
       style="fill:#211e1e;fill-opacity:1"
       id="g2040"
       transform="matrix(0.35277777,0,0,0.35277777,-81.616151,-161.16222)">
      <g
         id="use2038"
         transform="translate(528.34576,410.52322)">
        <path
           style="stroke:none"
           d="m 4.75,-5.5625 -0.015625,-1 h -4 v 3.46875 c 0.453125,-0.046875 1.34375,-0.078125 1.734375,-0.078125 0.84375,0 1.359375,0.40625 1.359375,1.078125 0,0.734375 -0.515625,1.171875 -1.375,1.171875 -0.59375,0 -1.25,-0.25 -1.765625,-0.6875 L 0.25,-0.71875 c 0.640625,0.453125 1.546875,0.75 2.328125,0.75 C 4.046875,0.03125 5,-0.828125 5,-2.171875 5,-3.3125 4.09375,-4.15625 2.65625,-4.15625 H 1.765625 V -5.5625 Z m 0,0"
           id="path6737" />
      </g>
    </g>
    <g
       style="fill:#211e1e;fill-opacity:1"
       id="g2046"
       transform="matrix(0.35277777,0,0,0.35277777,-81.616151,-161.16222)">
      <g
         id="use2042"
         transform="translate(525.31293,365.21591)">
        <path
           style="stroke:none"
           d="M 2.515625,0 V -6.5625 H 0.125 v 0.984375 H 1.40625 V 0 Z m 0,0"
           id="path6733" />
      </g>
      <g
         id="use2044"
         transform="translate(528.93866,365.21591)">
        <path
           style="stroke:none"
           d="m 3.25,-6.59375 c -1.8125,0 -2.796875,1.1875 -2.796875,3.3125 0,2.125 0.984375,3.3125 2.796875,3.3125 1.78125,0 2.78125,-1.1875 2.78125,-3.3125 0,-2.125 -1,-3.3125 -2.78125,-3.3125 z m 0,0.875 c 1.09375,0 1.640625,0.765625 1.640625,2.4375 0,1.65625 -0.546875,2.4375 -1.640625,2.4375 -1.109375,0 -1.671875,-0.78125 -1.671875,-2.4375 0,-1.671875 0.5625,-2.4375 1.671875,-2.4375 z m 0,0"
           id="path6745" />
      </g>
    </g>
  </g>
</svg>
