<?xml version="1.0" encoding="UTF-8" standalone="no"?>
<!-- Created with Inkscape (http://www.inkscape.org/) -->

<svg
   width="155.93735mm"
   height="24.947571mm"
   viewBox="0 0 155.93735 24.947571"
   version="1.1"
   id="svg10694"
   xmlns="http://www.w3.org/2000/svg"
   xmlns:svg="http://www.w3.org/2000/svg">
  <defs
     id="defs10691">
    <clipPath
       id="clip15">
      <path
         d="m 85,641.51953 h 22 V 663 H 85 Z m 0,0"
         id="path721" />
    </clipPath>
  </defs>
  <g
     id="layer1"
     transform="translate(619.11274,-395.27197)">
    <g
       style="fill:#211e1e;fill-opacity:1"
       id="g1638"
       transform="matrix(0.35277777,0,0,0.35277777,-636.51735,180.64649)">
      <g
         id="use1636"
         transform="translate(49.35154,679.05786)">
        <path
           style="stroke:none"
           d="m 4.015625,-6.65625 h -3.4375 v 1 h 2.3125 v 3.5625 c 0,0.6875 -0.359375,1.0625 -0.953125,1.0625 -0.46875,0 -0.984375,-0.265625 -1.421875,-0.734375 l -0.53125,0.859375 c 0.484375,0.609375 1.15625,0.953125 1.953125,0.953125 1.28125,0 2.078125,-0.765625 2.078125,-2.109375 z m 0,0"
           id="path11353" />
      </g>
    </g>
    <g
       style="fill:#211e1e;fill-opacity:1"
       id="g1644"
       transform="matrix(0.35277777,0,0,0.35277777,-636.51735,180.64649)">
      <g
         id="use1640"
         transform="translate(53.910088,679.05786)">
        <path
           style="stroke:none"
           d="M 5.171875,-1.5 5.8125,0 H 7.015625 L 4.09375,-6.65625 H 2.953125 L 0.015625,0 H 1.1875 l 0.625,-1.5 z M 4.75,-2.5 H 2.234375 L 3.5,-5.46875 Z m 0,0"
           id="path11333" />
      </g>
      <g
         id="use1642"
         transform="translate(60.933483,679.05786)">
        <path
           style="stroke:none"
           d="M 6.65625,0 V -6.65625 H 5.546875 V -1.875 l -3.5625,-4.78125 H 0.875 V 0 H 2 V -4.78125 L 5.546875,0 Z m 0,0"
           id="path11321" />
      </g>
    </g>
    <g
       style="fill:#211e1e;fill-opacity:1"
       id="g1652"
       transform="matrix(0.35277777,0,0,0.35277777,-636.51735,180.64649)">
      <g
         id="use1646"
         transform="translate(86.961922,679.05786)">
        <path
           style="stroke:none"
           d="m 5.34375,-5.65625 v -1 H 0.875 V 0 H 2 v -2.734375 h 3.03125 v -1 H 2 V -5.65625 Z m 0,0"
           id="path11317" />
      </g>
      <g
         id="use1648"
         transform="translate(92.434082,679.05786)">
        <path
           style="stroke:none"
           d="m 5.640625,-5.65625 v -1 H 0.875 V 0 H 5.75 V -1.015625 H 2 V -2.84375 H 5.25 V -3.859375 H 2 V -5.65625 Z m 0,0"
           id="path11305" />
      </g>
      <g
         id="use1650"
         transform="translate(98.677101,679.05786)">
        <path
           style="stroke:none"
           d="M 0.875,-6.65625 V 0 h 2.953125 c 1.515625,0 2.4375,-0.6875 2.4375,-1.828125 0,-0.890625 -0.53125,-1.53125 -1.4375,-1.6875 C 5.5625,-3.6875 6,-4.25 6,-5 6,-6.03125 5.140625,-6.65625 3.765625,-6.65625 Z m 1.125,1 h 1.71875 c 0.703125,0 1.140625,0.296875 1.140625,0.859375 0,0.5625 -0.4375,0.890625 -1.140625,0.890625 H 2 Z m 0,2.75 h 1.71875 c 0.875,0 1.390625,0.34375 1.390625,0.9375 C 5.109375,-1.34375 4.59375,-1 3.71875,-1 H 2 Z m 0,0"
           id="path11301" />
      </g>
    </g>
    <g
       style="fill:#211e1e;fill-opacity:1"
       id="g1660"
       transform="matrix(0.35277777,0,0,0.35277777,-636.51735,180.64649)">
      <g
         id="use1654"
         transform="translate(124.75314,679.05786)">
        <path
           style="stroke:none"
           d="M 7.921875,0 V -6.65625 H 6.59375 L 4.40625,-2.234375 2.203125,-6.65625 H 0.875 V 0 H 1.9375 V -4.984375 L 4.03125,-0.6875 H 4.765625 L 6.875,-4.984375 V 0 Z m 0,0"
           id="path11293" />
      </g>
      <g
         id="use1656"
         transform="translate(133.55617,679.05786)">
        <path
           style="stroke:none"
           d="M 5.171875,-1.5 5.8125,0 H 7.015625 L 4.09375,-6.65625 H 2.953125 L 0.015625,0 H 1.1875 l 0.625,-1.5 z M 4.75,-2.5 H 2.234375 L 3.5,-5.46875 Z m 0,0"
           id="path11337" />
      </g>
      <g
         id="use1658"
         transform="translate(140.57957,679.05786)">
        <path
           style="stroke:none"
           d="M 5.09375,0 H 6.375 l -1.5,-2.234375 c 0.890625,-0.328125 1.390625,-1.09375 1.390625,-2.15625 0,-1.4375 -0.984375,-2.265625 -2.6875,-2.265625 H 0.875 V 0 H 2 V -2 H 3.578125 C 3.6875,-2 3.78125,-2 3.875,-2.015625 Z M 2,-3.015625 V -5.65625 h 1.578125 c 1.03125,0 1.625,0.421875 1.625,1.296875 0,0.90625 -0.59375,1.34375 -1.625,1.34375 z m 0,0"
           id="path11285" />
      </g>
    </g>
    <g
       style="fill:#211e1e;fill-opacity:1"
       id="g1668"
       transform="matrix(0.35277777,0,0,0.35277777,-636.51735,180.64649)">
      <g
         id="use1662"
         transform="translate(163.22002,679.05786)">
        <path
           style="stroke:none"
           d="M 5.171875,-1.5 5.8125,0 H 7.015625 L 4.09375,-6.65625 H 2.953125 L 0.015625,0 H 1.1875 l 0.625,-1.5 z M 4.75,-2.5 H 2.234375 L 3.5,-5.46875 Z m 0,0"
           id="path11341" />
      </g>
      <g
         id="use1664"
         transform="translate(170.24341,679.05786)">
        <path
           style="stroke:none"
           d="M 0.875,-6.65625 V 0 H 2 v -2 h 1.53125 c 1.671875,0 2.640625,-0.890625 2.640625,-2.390625 0,-1.4375 -0.96875,-2.265625 -2.640625,-2.265625 z m 1.125,1 h 1.484375 c 1.03125,0 1.609375,0.421875 1.609375,1.296875 0,0.90625 -0.578125,1.34375 -1.609375,1.34375 H 2 Z m 0,0"
           id="path11277" />
      </g>
      <g
         id="use1666"
         transform="translate(176.64821,679.05786)">
        <path
           style="stroke:none"
           d="M 5.09375,0 H 6.375 l -1.5,-2.234375 c 0.890625,-0.328125 1.390625,-1.09375 1.390625,-2.15625 0,-1.4375 -0.984375,-2.265625 -2.6875,-2.265625 H 0.875 V 0 H 2 V -2 H 3.578125 C 3.6875,-2 3.78125,-2 3.875,-2.015625 Z M 2,-3.015625 V -5.65625 h 1.578125 c 1.03125,0 1.625,0.421875 1.625,1.296875 0,0.90625 -0.59375,1.34375 -1.625,1.34375 z m 0,0"
           id="path11289" />
      </g>
    </g>
    <g
       style="fill:#211e1e;fill-opacity:1"
       id="g1674"
       transform="matrix(0.35277777,0,0,0.35277777,-636.51735,180.64649)">
      <g
         id="use1670"
         transform="translate(199.13638,679.05786)">
        <path
           style="stroke:none"
           d="M 7.921875,0 V -6.65625 H 6.59375 L 4.40625,-2.234375 2.203125,-6.65625 H 0.875 V 0 H 1.9375 V -4.984375 L 4.03125,-0.6875 H 4.765625 L 6.875,-4.984375 V 0 Z m 0,0"
           id="path11297" />
      </g>
      <g
         id="use1672"
         transform="translate(207.93942,679.05786)">
        <path
           style="stroke:none"
           d="M 5.171875,-1.5 5.8125,0 H 7.015625 L 4.09375,-6.65625 H 2.953125 L 0.015625,0 H 1.1875 l 0.625,-1.5 z M 4.75,-2.5 H 2.234375 L 3.5,-5.46875 Z m 0,0"
           id="path11345" />
      </g>
    </g>
    <g
       style="fill:#211e1e;fill-opacity:1"
       id="g1678"
       transform="matrix(0.35277777,0,0,0.35277777,-636.51735,180.64649)">
      <g
         id="use1676"
         transform="translate(214.49651,679.05786)">
        <path
           style="stroke:none"
           d="m 3.609375,-2.21875 2.4375,-4.4375 H 4.90625 L 3.046875,-3.421875 1.140625,-6.65625 h -1.125 L 2.5,-2.171875 V 0 h 1.109375 z m 0,0"
           id="path11273" />
      </g>
    </g>
    <g
       style="fill:#211e1e;fill-opacity:1"
       id="g1686"
       transform="matrix(0.35277777,0,0,0.35277777,-636.51735,180.64649)">
      <g
         id="use1680"
         transform="translate(237.33691,679.05786)">
        <path
           style="stroke:none"
           d="m 4.015625,-6.65625 h -3.4375 v 1 h 2.3125 v 3.5625 c 0,0.6875 -0.359375,1.0625 -0.953125,1.0625 -0.46875,0 -0.984375,-0.265625 -1.421875,-0.734375 l -0.53125,0.859375 c 0.484375,0.609375 1.15625,0.953125 1.953125,0.953125 1.28125,0 2.078125,-0.765625 2.078125,-2.109375 z m 0,0"
           id="path11357" />
      </g>
      <g
         id="use1682"
         transform="translate(242.0858,679.05786)">
        <path
           style="stroke:none"
           d="M 6.53125,-6.65625 H 5.421875 v 3.890625 c 0,1.140625 -0.6875,1.796875 -1.765625,1.796875 -1.09375,0 -1.796875,-0.671875 -1.796875,-1.796875 V -6.65625 H 0.75 v 3.890625 c 0,1.75 1.09375,2.8125 2.890625,2.8125 1.796875,0 2.890625,-1.0625 2.890625,-2.8125 z m 0,0"
           id="path11261" />
      </g>
      <g
         id="use1684"
         transform="translate(249.35663,679.05786)">
        <path
           style="stroke:none"
           d="M 6.65625,0 V -6.65625 H 5.546875 V -1.875 l -3.5625,-4.78125 H 0.875 V 0 H 2 V -4.78125 L 5.546875,0 Z m 0,0"
           id="path11325" />
      </g>
    </g>
    <g
       style="fill:#211e1e;fill-opacity:1"
       id="g1694"
       transform="matrix(0.35277777,0,0,0.35277777,-636.51735,180.64649)">
      <g
         id="use1688"
         transform="translate(278.49704,679.05786)">
        <path
           style="stroke:none"
           d="m 4.015625,-6.65625 h -3.4375 v 1 h 2.3125 v 3.5625 c 0,0.6875 -0.359375,1.0625 -0.953125,1.0625 -0.46875,0 -0.984375,-0.265625 -1.421875,-0.734375 l -0.53125,0.859375 c 0.484375,0.609375 1.15625,0.953125 1.953125,0.953125 1.28125,0 2.078125,-0.765625 2.078125,-2.109375 z m 0,0"
           id="path11361" />
      </g>
      <g
         id="use1690"
         transform="translate(283.24594,679.05786)">
        <path
           style="stroke:none"
           d="M 6.53125,-6.65625 H 5.421875 v 3.890625 c 0,1.140625 -0.6875,1.796875 -1.765625,1.796875 -1.09375,0 -1.796875,-0.671875 -1.796875,-1.796875 V -6.65625 H 0.75 v 3.890625 c 0,1.75 1.09375,2.8125 2.890625,2.8125 1.796875,0 2.890625,-1.0625 2.890625,-2.8125 z m 0,0"
           id="path11265" />
      </g>
      <g
         id="use1692"
         transform="translate(290.51678,679.05786)">
        <path
           style="stroke:none"
           d="M 2,-1.015625 V -6.65625 H 0.875 V 0 h 4 v -1.015625 z m 0,0"
           id="path11257" />
      </g>
    </g>
    <g
       style="fill:#211e1e;fill-opacity:1"
       id="g1698"
       transform="matrix(0.35277777,0,0,0.35277777,-636.51735,180.64649)">
      <g
         id="use1696"
         transform="translate(313.69968,679.05786)">
        <path
           style="stroke:none"
           d="M 5.171875,-1.5 5.8125,0 H 7.015625 L 4.09375,-6.65625 H 2.953125 L 0.015625,0 H 1.1875 l 0.625,-1.5 z M 4.75,-2.5 H 2.234375 L 3.5,-5.46875 Z m 0,0"
           id="path11349" />
      </g>
    </g>
    <g
       style="fill:#211e1e;fill-opacity:1"
       id="g1704"
       transform="matrix(0.35277777,0,0,0.35277777,-636.51735,180.64649)">
      <g
         id="use1700"
         transform="translate(320.53275,679.05786)">
        <path
           style="stroke:none"
           d="M 6.53125,-6.65625 H 5.421875 v 3.890625 c 0,1.140625 -0.6875,1.796875 -1.765625,1.796875 -1.09375,0 -1.796875,-0.671875 -1.796875,-1.796875 V -6.65625 H 0.75 v 3.890625 c 0,1.75 1.09375,2.8125 2.890625,2.8125 1.796875,0 2.890625,-1.0625 2.890625,-2.8125 z m 0,0"
           id="path11269" />
      </g>
      <g
         id="use1702"
         transform="translate(327.80359,679.05786)">
        <path
           style="stroke:none"
           d="m 5.4375,-3.265625 v 1.84375 C 4.953125,-1.125 4.390625,-0.96875 3.90625,-0.96875 c -1.359375,0 -2.4375,-1.03125 -2.4375,-2.359375 0,-1.328125 1.0625,-2.359375 2.421875,-2.359375 0.703125,0 1.40625,0.28125 1.921875,0.765625 L 6.453125,-5.75 c -0.65625,-0.578125 -1.609375,-0.9375 -2.5625,-0.9375 -2.015625,0 -3.5625,1.453125 -3.5625,3.359375 0,1.90625 1.53125,3.375 3.5,3.375 0.90625,0 1.90625,-0.34375 2.578125,-0.859375 v -2.453125 z m 0,0"
           id="path11253" />
      </g>
    </g>
    <g
       style="fill:#211e1e;fill-opacity:1"
       id="g1712"
       transform="matrix(0.35277777,0,0,0.35277777,-636.51735,180.64649)">
      <g
         id="use1706"
         transform="translate(352.29977,679.05786)">
        <path
           style="stroke:none"
           d="m 3.0625,-6.703125 c -1.4375,0 -2.421875,0.703125 -2.421875,1.84375 0,2.375 3.59375,1.546875 3.59375,3.03125 0,0.515625 -0.46875,0.8125 -1.25,0.8125 -0.703125,0 -1.5625,-0.34375 -2.25,-0.96875 L 0.25,-1.015625 c 0.6875,0.625 1.671875,1.046875 2.71875,1.046875 1.46875,0 2.515625,-0.71875 2.515625,-1.921875 0,-2.390625 -3.59375,-1.609375 -3.59375,-3.0625 0,-0.453125 0.4375,-0.703125 1.09375,-0.703125 0.5,0 1.21875,0.1875 1.9375,0.625 l 0.46875,-0.984375 C 4.78125,-6.4375 3.9375,-6.703125 3.0625,-6.703125 Z m 0,0"
           id="path11249" />
      </g>
      <g
         id="use1708"
         transform="translate(358.21921,679.05786)">
        <path
           style="stroke:none"
           d="m 5.640625,-5.65625 v -1 H 0.875 V 0 H 5.75 V -1.015625 H 2 V -2.84375 H 5.25 V -3.859375 H 2 V -5.65625 Z m 0,0"
           id="path11309" />
      </g>
      <g
         id="use1710"
         transform="translate(364.46225,679.05786)">
        <path
           style="stroke:none"
           d="M 0.875,-6.65625 V 0 H 2 v -2 h 1.53125 c 1.671875,0 2.640625,-0.890625 2.640625,-2.390625 0,-1.4375 -0.96875,-2.265625 -2.640625,-2.265625 z m 1.125,1 h 1.484375 c 1.03125,0 1.609375,0.421875 1.609375,1.296875 0,0.90625 -0.578125,1.34375 -1.609375,1.34375 H 2 Z m 0,0"
           id="path11281" />
      </g>
    </g>
    <g
       style="fill:#211e1e;fill-opacity:1"
       id="g1718"
       transform="matrix(0.35277777,0,0,0.35277777,-636.51735,180.64649)">
      <g
         id="use1714"
         transform="translate(389.06323,679.05786)">
        <path
           style="stroke:none"
           d="m 3.859375,-6.6875 c -2,0 -3.53125,1.4375 -3.53125,3.359375 0,1.90625 1.53125,3.375 3.53125,3.375 1.984375,0 3.53125,-1.46875 3.53125,-3.375 0,-1.90625 -1.546875,-3.359375 -3.53125,-3.359375 z m 0,1 c 1.3125,0 2.375,1.03125 2.375,2.359375 0,1.328125 -1.0625,2.359375 -2.375,2.359375 C 2.5625,-0.96875 1.46875,-2 1.46875,-3.328125 1.46875,-4.65625 2.546875,-5.6875 3.859375,-5.6875 Z m 0,0"
           id="path11241" />
      </g>
      <g
         id="use1716"
         transform="translate(396.50537,679.05786)">
        <path
           style="stroke:none"
           d="m 3.828125,-6.6875 c -1.96875,0 -3.5,1.453125 -3.5,3.34375 0,1.921875 1.515625,3.390625 3.453125,3.390625 0.953125,0 1.90625,-0.421875 2.578125,-1.09375 L 5.703125,-1.78125 C 5.203125,-1.296875 4.515625,-1 3.84375,-1 c -1.328125,0 -2.375,-1.03125 -2.375,-2.34375 0,-1.3125 1.046875,-2.34375 2.375,-2.34375 0.671875,0 1.375,0.328125 1.859375,0.84375 l 0.65625,-0.8125 C 5.703125,-6.296875 4.765625,-6.6875 3.828125,-6.6875 Z m 0,0"
           id="path11233" />
      </g>
    </g>
    <g
       style="fill:#211e1e;fill-opacity:1"
       id="g1722"
       transform="matrix(0.35277777,0,0,0.35277777,-636.51735,180.64649)">
      <g
         id="use1720"
         transform="translate(403.13858,679.05786)">
        <path
           style="stroke:none"
           d="m 5.421875,-5.65625 v -1 h -5.34375 v 1 H 2.1875 V 0 h 1.125 v -5.65625 z m 0,0"
           id="path11229" />
      </g>
    </g>
    <g
       style="fill:#211e1e;fill-opacity:1"
       id="g1728"
       transform="matrix(0.35277777,0,0,0.35277777,-636.51735,180.64649)">
      <g
         id="use1724"
         transform="translate(427.92975,679.05786)">
        <path
           style="stroke:none"
           d="M 6.65625,0 V -6.65625 H 5.546875 V -1.875 l -3.5625,-4.78125 H 0.875 V 0 H 2 V -4.78125 L 5.546875,0 Z m 0,0"
           id="path11329" />
      </g>
      <g
         id="use1726"
         transform="translate(435.46707,679.05786)">
        <path
           style="stroke:none"
           d="m 3.859375,-6.6875 c -2,0 -3.53125,1.4375 -3.53125,3.359375 0,1.90625 1.53125,3.375 3.53125,3.375 1.984375,0 3.53125,-1.46875 3.53125,-3.375 0,-1.90625 -1.546875,-3.359375 -3.53125,-3.359375 z m 0,1 c 1.3125,0 2.375,1.03125 2.375,2.359375 0,1.328125 -1.0625,2.359375 -2.375,2.359375 C 2.5625,-0.96875 1.46875,-2 1.46875,-3.328125 1.46875,-4.65625 2.546875,-5.6875 3.859375,-5.6875 Z m 0,0"
           id="path11245" />
      </g>
    </g>
    <g
       style="fill:#211e1e;fill-opacity:1"
       id="g1732"
       transform="matrix(0.35277777,0,0,0.35277777,-636.51735,180.64649)">
      <g
         id="use1730"
         transform="translate(443.08051,679.05786)">
        <path
           style="stroke:none"
           d="m 3.84375,0 2.6875,-6.65625 H 5.359375 L 3.296875,-1.25 1.234375,-6.65625 H 0.03125 L 2.6875,0 Z m 0,0"
           id="path11225" />
      </g>
    </g>
    <g
       style="fill:#211e1e;fill-opacity:1"
       id="g1740"
       transform="matrix(0.35277777,0,0,0.35277777,-636.51735,180.64649)">
      <g
         id="use1734"
         transform="translate(466.98672,679.05786)">
        <path
           style="stroke:none"
           d="M 0.875,-6.65625 V 0 h 2.703125 c 2.015625,0 3.46875,-1.40625 3.46875,-3.328125 0,-1.9375 -1.4375,-3.328125 -3.4375,-3.328125 z m 1.125,1 h 1.59375 c 1.3125,0 2.328125,0.96875 2.328125,2.328125 0,1.359375 -1,2.3125 -2.28125,2.3125 H 2 Z m 0,0"
           id="path11221" />
      </g>
      <g
         id="use1736"
         transform="translate(474.36224,679.05786)">
        <path
           style="stroke:none"
           d="m 5.640625,-5.65625 v -1 H 0.875 V 0 H 5.75 V -1.015625 H 2 V -2.84375 H 5.25 V -3.859375 H 2 V -5.65625 Z m 0,0"
           id="path11313" />
      </g>
      <g
         id="use1738"
         transform="translate(480.60526,679.05786)">
        <path
           style="stroke:none"
           d="m 3.828125,-6.6875 c -1.96875,0 -3.5,1.453125 -3.5,3.34375 0,1.921875 1.515625,3.390625 3.453125,3.390625 0.953125,0 1.90625,-0.421875 2.578125,-1.09375 L 5.703125,-1.78125 C 5.203125,-1.296875 4.515625,-1 3.84375,-1 c -1.328125,0 -2.375,-1.03125 -2.375,-2.34375 0,-1.3125 1.046875,-2.34375 2.375,-2.34375 0.671875,0 1.375,0.328125 1.859375,0.84375 l 0.65625,-0.8125 C 5.703125,-6.296875 4.765625,-6.6875 3.828125,-6.6875 Z m 0,0"
           id="path11237" />
      </g>
    </g>
    <path
       style="fill:#eecabf;fill-opacity:1;fill-rule:nonzero;stroke:none;stroke-width:0.352778"
       d="m -615.32312,410.67 c 0,0.40927 -0.33211,0.74138 -0.74139,0.74138 -0.41065,0 -0.74276,-0.33211 -0.74276,-0.74138 0,-0.40928 0.33211,-0.74139 0.74276,-0.74139 0.40928,0 0.74139,0.33211 0.74139,0.74139"
       id="path1742" />
    <g
       clip-path="url(#clip15)"
       clip-rule="nonzero"
       id="g1746"
       transform="matrix(0.35277777,0,0,0.35277777,-636.51735,180.64649)">
      <path
         style="fill:#eb3521;fill-opacity:1;fill-rule:nonzero;stroke:none"
         d="m 106.69531,652.03516 c 0,5.80859 -4.70703,10.51562 -10.515622,10.51562 -5.808594,0 -10.515626,-4.70703 -10.515626,-10.51562 0,-5.80469 4.707032,-10.51563 10.515626,-10.51563 5.808592,0 10.515622,4.71094 10.515622,10.51563"
         id="path1744" />
    </g>
    <path
       style="fill:#eea38f;fill-opacity:1;fill-rule:nonzero;stroke:none;stroke-width:0.352778"
       d="m -586.18864,410.67 c 0,0.81993 -0.66421,1.48415 -1.48415,1.48415 -0.81855,0 -1.48414,-0.66422 -1.48414,-1.48415 0,-0.81856 0.66559,-1.48415 1.48414,-1.48415 0.81994,0 1.48415,0.66559 1.48415,1.48415"
       id="path1748" />
    <path
       style="fill:#ee8f78;fill-opacity:1;fill-rule:nonzero;stroke:none;stroke-width:0.352778"
       d="m -573.49829,410.67 c 0,1.02526 -0.83095,1.85484 -1.85483,1.85484 -1.02389,0 -1.85485,-0.82958 -1.85485,-1.85484 0,-1.02388 0.83096,-1.85484 1.85485,-1.85484 1.02388,0 1.85483,0.83096 1.85483,1.85484"
       id="path1750" />
    <path
       style="fill:#ee7d5e;fill-opacity:1;fill-rule:nonzero;stroke:none;stroke-width:0.352778"
       d="m -560.58882,410.67 c 0,1.22921 -0.99633,2.22553 -2.22554,2.22553 -1.22921,0 -2.22553,-0.99632 -2.22553,-2.22553 0,-1.22921 0.99632,-2.22553 2.22553,-2.22553 1.22921,0 2.22554,0.99632 2.22554,2.22553"
       id="path1752" />
    <path
       style="fill:#ee4521;fill-opacity:1;fill-rule:nonzero;stroke:none;stroke-width:0.352778"
       d="m -545.46072,410.67 c 0,1.84381 -1.49379,3.33898 -3.33761,3.33898 -1.84382,0 -3.33899,-1.49517 -3.33899,-3.33898 0,-1.84382 1.49517,-3.33899 3.33899,-3.33899 1.84382,0 3.33761,1.49517 3.33761,3.33899"
       id="path1754" />
    <path
       style="fill:#f0dcd7;fill-opacity:1;fill-rule:nonzero;stroke:none;stroke-width:0.352778"
       d="m -534.88014,410.67 c 0,0.20533 -0.16537,0.37069 -0.3707,0.37069 -0.20532,0 -0.37069,-0.16536 -0.37069,-0.37069 0,-0.20395 0.16537,-0.3707 0.37069,-0.3707 0.20533,0 0.3707,0.16675 0.3707,0.3707"
       id="path1756" />
    <path
       style="fill:#eeb5a6;fill-opacity:1;fill-rule:nonzero;stroke:none;stroke-width:0.352778"
       d="m -520.98952,410.67 c 0,0.6146 -0.49885,1.11345 -1.11345,1.11345 -0.61461,0 -1.11208,-0.49885 -1.11208,-1.11345 0,-0.61461 0.49747,-1.11208 1.11208,-1.11208 0.6146,0 1.11345,0.49747 1.11345,1.11208"
       id="path1758" />
    <path
       style="fill:#ee8f78;fill-opacity:1;fill-rule:nonzero;stroke:none;stroke-width:0.352778"
       d="m -507.10027,410.67 c 0,1.02526 -0.83096,1.85484 -1.85484,1.85484 -1.02388,0 -1.85484,-0.82958 -1.85484,-1.85484 0,-1.02388 0.83096,-1.85484 1.85484,-1.85484 1.02388,0 1.85484,0.83096 1.85484,1.85484"
       id="path1760" />
    <path
       style="fill:#eeb5a6;fill-opacity:1;fill-rule:nonzero;stroke:none;stroke-width:0.352778"
       d="m -495.02453,410.67 c 0,0.6146 -0.49884,1.11345 -1.11345,1.11345 -0.61461,0 -1.11208,-0.49885 -1.11208,-1.11345 0,-0.61461 0.49747,-1.11208 1.11208,-1.11208 0.61461,0 1.11345,0.49747 1.11345,1.11208"
       id="path1762" />
    <path
       style="fill:#eea38f;fill-opacity:1;fill-rule:nonzero;stroke:none;stroke-width:0.352778"
       d="m -480.2368,410.67 c 0,0.81993 -0.66421,1.48415 -1.48414,1.48415 -0.81994,0 -1.48415,-0.66422 -1.48415,-1.48415 0,-0.81856 0.66421,-1.48415 1.48415,-1.48415 0.81993,0 1.48414,0.66559 1.48414,1.48415"
       id="path1764" />
    <path
       style="fill:#ee6847;fill-opacity:1;fill-rule:nonzero;stroke:none;stroke-width:0.352778"
       d="m -465.43805,410.67 c 0,1.43454 -1.16306,2.59622 -2.59622,2.59622 -1.43454,0 -2.5976,-1.16168 -2.5976,-2.59622 0,-1.43454 1.16306,-2.59623 2.5976,-2.59623 1.43316,0 2.59622,1.16169 2.59622,2.59623"
       id="path1766" />
    <g
       style="fill:#d15426;fill-opacity:1"
       id="g1880"
       transform="matrix(0.35277777,0,0,0.35277777,-636.51735,180.64649)">
      <g
         id="use1874"
         transform="translate(358.8999,620.19971)">
        <path
           style="stroke:none"
           d="m 4.6875,0.1875 c 3,0 4.46875,-1.5 4.46875,-3.265625 0,-3.859375 -6.109375,-2.515625 -6.109375,-4.453125 0,-0.65625 0.546875,-1.203125 2,-1.203125 0.921875,0 1.921875,0.28125 2.90625,0.828125 l 0.75,-1.84375 C 7.71875,-10.359375 6.375,-10.6875 5.0625,-10.6875 c -3,0 -4.4375,1.5 -4.4375,3.28125 0,3.890625 6.109375,2.546875 6.109375,4.515625 0,0.640625 -0.578125,1.125 -2.03125,1.125 -1.25,0 -2.578125,-0.453125 -3.453125,-1.09375 L 0.421875,-1.03125 C 1.34375,-0.3125 3.03125,0.1875 4.6875,0.1875 Z m 0,0"
           id="path11213" />
      </g>
      <g
         id="use1876"
         transform="translate(368.46991,620.19971)">
        <path
           style="stroke:none"
           d="m 2.25,-9.1875 c 0.875,0 1.453125,-0.578125 1.453125,-1.359375 0,-0.71875 -0.578125,-1.265625 -1.453125,-1.265625 -0.875,0 -1.453125,0.578125 -1.453125,1.3125 0,0.734375 0.578125,1.3125 1.453125,1.3125 z M 1.078125,0 h 2.34375 v -8.0625 h -2.34375 z m 0,0"
           id="path11181" />
      </g>
      <g
         id="use1878"
         transform="translate(372.98489,620.19971)">
        <path
           style="stroke:none"
           d="M 3.484375,-1.796875 7.59375,-6.65625 V -8.0625 H 0.625 v 1.796875 H 4.640625 L 0.53125,-1.40625 V 0 h 7.1875 v -1.796875 z m 0,0"
           id="path11169" />
      </g>
    </g>
    <g
       style="fill:#d15426;fill-opacity:1"
       id="g1900"
       transform="matrix(0.35277777,0,0,0.35277777,-636.51735,180.64649)">
      <g
         id="use1882"
         transform="translate(381.0249,620.19971)">
        <path
           style="stroke:none"
           d="m 8.984375,-4 c 0,-2.59375 -1.828125,-4.1875 -4.203125,-4.1875 -2.453125,0 -4.296875,1.734375 -4.296875,4.15625 0,2.390625 1.8125,4.15625 4.59375,4.15625 1.46875,0 2.59375,-0.453125 3.34375,-1.3125 l -1.25,-1.34375 C 6.609375,-2.015625 6,-1.75 5.140625,-1.75 3.921875,-1.75 3.0625,-2.375 2.828125,-3.375 H 8.9375 C 8.953125,-3.5625 8.984375,-3.828125 8.984375,-4 Z m -4.1875,-2.421875 c 1.046875,0 1.8125,0.65625 1.984375,1.6875 H 2.8125 c 0.15625,-1.046875 0.921875,-1.6875 1.984375,-1.6875 z m 0,0"
           id="path11193" />
      </g>
      <g
         id="use1884"
         transform="translate(390.4899,620.19971)">
        <path
           style="stroke:none"
           d=""
           id="path11157" />
      </g>
      <g
         id="use1886"
         transform="translate(394.73489,620.19971)">
        <path
           style="stroke:none"
           d="M 10.59375,-1.3125 9.359375,-2.4375 C 9.8125,-3.125 10.125,-3.9375 10.3125,-4.828125 l -1.875,-0.59375 C 8.328125,-4.796875 8.140625,-4.25 7.921875,-3.78125 L 6,-5.5625 c 1.421875,-0.78125 2.0625,-1.578125 2.0625,-2.65625 0,-1.484375 -1.203125,-2.421875 -3.015625,-2.421875 -1.984375,0 -3.28125,1.0625 -3.28125,2.578125 0,0.75 0.3125,1.4375 1.078125,2.234375 -1.59375,0.890625 -2.296875,1.8125 -2.296875,3.125 0,1.6875 1.6875,2.890625 4,2.890625 1.34375,0 2.546875,-0.421875 3.515625,-1.171875 L 9.3125,0.1875 Z M 5.046875,-9.046875 c 0.671875,0 1.03125,0.359375 1.03125,0.875 C 6.078125,-7.6875 5.75,-7.3125 4.703125,-6.75 4.0625,-7.375 3.90625,-7.6875 3.90625,-8.078125 c 0,-0.5625 0.40625,-0.96875 1.140625,-0.96875 z m -0.34375,7.390625 c -1.140625,0 -1.875,-0.53125 -1.875,-1.296875 0,-0.640625 0.359375,-1.125 1.3125,-1.6875 l 2.53125,2.375 c -0.5625,0.40625 -1.234375,0.609375 -1.96875,0.609375 z m 0,0"
           id="path11153" />
      </g>
      <g
         id="use1888"
         transform="translate(405.65491,620.19971)">
        <path
           style="stroke:none"
           d=""
           id="path11161" />
      </g>
      <g
         id="use1890"
         transform="translate(409.8999,620.19971)">
        <path
           style="stroke:none"
           d="m 4.6875,0.1875 c 3,0 4.46875,-1.5 4.46875,-3.265625 0,-3.859375 -6.109375,-2.515625 -6.109375,-4.453125 0,-0.65625 0.546875,-1.203125 2,-1.203125 0.921875,0 1.921875,0.28125 2.90625,0.828125 l 0.75,-1.84375 C 7.71875,-10.359375 6.375,-10.6875 5.0625,-10.6875 c -3,0 -4.4375,1.5 -4.4375,3.28125 0,3.890625 6.109375,2.546875 6.109375,4.515625 0,0.640625 -0.578125,1.125 -2.03125,1.125 -1.25,0 -2.578125,-0.453125 -3.453125,-1.09375 L 0.421875,-1.03125 C 1.34375,-0.3125 3.03125,0.1875 4.6875,0.1875 Z m 0,0"
           id="path11217" />
      </g>
      <g
         id="use1892"
         transform="translate(419.46991,620.19971)">
        <path
           style="stroke:none"
           d="m 4.328125,-8.1875 c -1.28125,0 -2.59375,0.34375 -3.46875,0.96875 L 1.6875,-5.578125 c 0.59375,-0.46875 1.484375,-0.75 2.328125,-0.75 1.265625,0 1.859375,0.578125 1.859375,1.59375 H 4.015625 c -2.453125,0 -3.453125,0.984375 -3.453125,2.40625 0,1.390625 1.125,2.453125 3,2.453125 1.1875,0 2.03125,-0.390625 2.46875,-1.125 v 1 h 2.1875 v -4.609375 c 0,-2.4375 -1.421875,-3.578125 -3.890625,-3.578125 z M 4.15625,-1.453125 c -0.828125,0 -1.328125,-0.390625 -1.328125,-0.984375 0,-0.53125 0.359375,-0.9375 1.453125,-0.9375 H 5.875 v 0.828125 c -0.265625,0.734375 -0.9375,1.09375 -1.71875,1.09375 z m 0,0"
           id="path11205" />
      </g>
      <g
         id="use1894"
         transform="translate(428.72491,620.19971)">
        <path
           style="stroke:none"
           d="m 5.65625,-2.046875 c -0.25,0.203125 -0.59375,0.3125 -0.953125,0.3125 -0.625,0 -1,-0.375 -1,-1.078125 V -6.09375 H 5.71875 V -7.890625 H 3.703125 v -1.96875 h -2.34375 v 1.96875 H 0.125 v 1.796875 h 1.234375 v 3.3125 c 0,1.921875 1.109375,2.90625 3.015625,2.90625 0.71875,0 1.4375,-0.171875 1.90625,-0.515625 z m 0,0"
           id="path11197" />
      </g>
      <g
         id="use1896"
         transform="translate(435.24991,620.19971)">
        <path
           style="stroke:none"
           d="m 6.875,-8.0625 v 3.984375 C 6.875,-2.59375 6.09375,-1.90625 5.015625,-1.90625 3.96875,-1.90625 3.375,-2.5 3.375,-3.859375 V -8.0625 H 1.03125 v 4.546875 c 0,2.5 1.421875,3.640625 3.453125,3.640625 0.984375,0 1.890625,-0.375 2.5,-1.078125 V 0 h 2.21875 v -8.0625 z m 0,0"
           id="path11165" />
      </g>
      <g
         id="use1898"
         transform="translate(445.5549,620.19971)">
        <path
           style="stroke:none"
           d="M 3.3125,-7 V -8.0625 H 1.078125 V 0 h 2.34375 v -3.8125 c 0,-1.546875 0.859375,-2.25 2.140625,-2.25 0.1875,0 0.328125,0.015625 0.53125,0.03125 V -8.1875 c -1.25,0 -2.203125,0.40625 -2.78125,1.1875 z m 0,0"
           id="path11189" />
      </g>
    </g>
    <g
       style="fill:#d15426;fill-opacity:1"
       id="g1912"
       transform="matrix(0.35277777,0,0,0.35277777,-636.51735,180.64649)">
      <g
         id="use1902"
         transform="translate(451.91489,620.19971)">
        <path
           style="stroke:none"
           d="m 4.328125,-8.1875 c -1.28125,0 -2.59375,0.34375 -3.46875,0.96875 L 1.6875,-5.578125 c 0.59375,-0.46875 1.484375,-0.75 2.328125,-0.75 1.265625,0 1.859375,0.578125 1.859375,1.59375 H 4.015625 c -2.453125,0 -3.453125,0.984375 -3.453125,2.40625 0,1.390625 1.125,2.453125 3,2.453125 1.1875,0 2.03125,-0.390625 2.46875,-1.125 v 1 h 2.1875 v -4.609375 c 0,-2.4375 -1.421875,-3.578125 -3.890625,-3.578125 z M 4.15625,-1.453125 c -0.828125,0 -1.328125,-0.390625 -1.328125,-0.984375 0,-0.53125 0.359375,-0.9375 1.453125,-0.9375 H 5.875 v 0.828125 c -0.265625,0.734375 -0.9375,1.09375 -1.71875,1.09375 z m 0,0"
           id="path11209" />
      </g>
      <g
         id="use1904"
         transform="translate(461.16989,620.19971)">
        <path
           style="stroke:none"
           d="m 5.65625,-2.046875 c -0.25,0.203125 -0.59375,0.3125 -0.953125,0.3125 -0.625,0 -1,-0.375 -1,-1.078125 V -6.09375 H 5.71875 V -7.890625 H 3.703125 v -1.96875 h -2.34375 v 1.96875 H 0.125 v 1.796875 h 1.234375 v 3.3125 c 0,1.921875 1.109375,2.90625 3.015625,2.90625 0.71875,0 1.4375,-0.171875 1.90625,-0.515625 z m 0,0"
           id="path11201" />
      </g>
      <g
         id="use1906"
         transform="translate(467.69489,620.19971)">
        <path
           style="stroke:none"
           d="m 2.25,-9.1875 c 0.875,0 1.453125,-0.578125 1.453125,-1.359375 0,-0.71875 -0.578125,-1.265625 -1.453125,-1.265625 -0.875,0 -1.453125,0.578125 -1.453125,1.3125 0,0.734375 0.578125,1.3125 1.453125,1.3125 z M 1.078125,0 h 2.34375 v -8.0625 h -2.34375 z m 0,0"
           id="path11185" />
      </g>
      <g
         id="use1908"
         transform="translate(472.2099,620.19971)">
        <path
           style="stroke:none"
           d="m 4.921875,0.125 c 2.5625,0 4.421875,-1.734375 4.421875,-4.15625 0,-2.4375 -1.859375,-4.15625 -4.421875,-4.15625 -2.5625,0 -4.4375,1.71875 -4.4375,4.15625 0,2.421875 1.875,4.15625 4.4375,4.15625 z m 0,-1.921875 c -1.171875,0 -2.078125,-0.84375 -2.078125,-2.234375 0,-1.40625 0.90625,-2.234375 2.078125,-2.234375 1.171875,0 2.046875,0.828125 2.046875,2.234375 0,1.390625 -0.875,2.234375 -2.046875,2.234375 z m 0,0"
           id="path11173" />
      </g>
      <g
         id="use1910"
         transform="translate(482.03491,620.19971)">
        <path
           style="stroke:none"
           d="m 5.984375,-8.1875 c -1.09375,0 -2.046875,0.375 -2.671875,1.0625 V -8.0625 H 1.078125 V 0 h 2.34375 v -3.984375 c 0,-1.484375 0.8125,-2.1875 1.9375,-2.1875 1.03125,0 1.625,0.609375 1.625,1.90625 V 0 h 2.34375 v -4.625 c 0,-2.453125 -1.4375,-3.5625 -3.34375,-3.5625 z m 0,0"
           id="path11177" />
      </g>
    </g>
  </g>
</svg>
