<?xml version="1.0" encoding="UTF-8" standalone="no"?>
<!-- Created with Inkscape (http://www.inkscape.org/) -->

<svg
   width="160.36331mm"
   height="25.152618mm"
   viewBox="0 0 160.36331 25.152618"
   version="1.1"
   id="svg12053"
   xmlns="http://www.w3.org/2000/svg"
   xmlns:svg="http://www.w3.org/2000/svg">
  <defs
     id="defs12050">
    <clipPath
       id="clip17">
      <path
         d="m 581,626.71094 h 21 V 648 h -21 z m 0,0"
         id="path727" />
    </clipPath>
  </defs>
  <g
     id="layer1"
     transform="translate(-391.74631,-630.5042)">
    <g
       style="fill:#d15426;fill-opacity:1"
       id="g2054"
       transform="matrix(0.35277777,0,0,0.35277777,202.79439,415.87872)">
      <g
         id="use2048"
         transform="translate(781.26678,620.19971)">
        <path
           style="stroke:none"
           d="m 4.6875,0.1875 c 3,0 4.46875,-1.5 4.46875,-3.265625 0,-3.859375 -6.109375,-2.515625 -6.109375,-4.453125 0,-0.65625 0.546875,-1.203125 2,-1.203125 0.921875,0 1.921875,0.28125 2.90625,0.828125 l 0.75,-1.84375 C 7.71875,-10.359375 6.375,-10.6875 5.0625,-10.6875 c -3,0 -4.4375,1.5 -4.4375,3.28125 0,3.890625 6.109375,2.546875 6.109375,4.515625 0,0.640625 -0.578125,1.125 -2.03125,1.125 -1.25,0 -2.578125,-0.453125 -3.453125,-1.09375 L 0.421875,-1.03125 C 1.34375,-0.3125 3.03125,0.1875 4.6875,0.1875 Z m 0,0"
           id="path12817" />
      </g>
      <g
         id="use2050"
         transform="translate(790.83679,620.19971)">
        <path
           style="stroke:none"
           d="m 2.25,-9.1875 c 0.875,0 1.453125,-0.578125 1.453125,-1.359375 0,-0.71875 -0.578125,-1.265625 -1.453125,-1.265625 -0.875,0 -1.453125,0.578125 -1.453125,1.3125 0,0.734375 0.578125,1.3125 1.453125,1.3125 z M 1.078125,0 h 2.34375 v -8.0625 h -2.34375 z m 0,0"
           id="path12773" />
      </g>
      <g
         id="use2052"
         transform="translate(795.35181,620.19971)">
        <path
           style="stroke:none"
           d="M 3.484375,-1.796875 7.59375,-6.65625 V -8.0625 H 0.625 v 1.796875 H 4.640625 L 0.53125,-1.40625 V 0 h 7.1875 v -1.796875 z m 0,0"
           id="path12745" />
      </g>
    </g>
    <g
       style="fill:#d15426;fill-opacity:1"
       id="g2072"
       transform="matrix(0.35277777,0,0,0.35277777,202.79439,415.87872)">
      <g
         id="use2056"
         transform="translate(803.39178,620.19971)">
        <path
           style="stroke:none"
           d="m 8.984375,-4 c 0,-2.59375 -1.828125,-4.1875 -4.203125,-4.1875 -2.453125,0 -4.296875,1.734375 -4.296875,4.15625 0,2.390625 1.8125,4.15625 4.59375,4.15625 1.46875,0 2.59375,-0.453125 3.34375,-1.3125 l -1.25,-1.34375 C 6.609375,-2.015625 6,-1.75 5.140625,-1.75 3.921875,-1.75 3.0625,-2.375 2.828125,-3.375 H 8.9375 C 8.953125,-3.5625 8.984375,-3.828125 8.984375,-4 Z m -4.1875,-2.421875 c 1.046875,0 1.8125,0.65625 1.984375,1.6875 H 2.8125 c 0.15625,-1.046875 0.921875,-1.6875 1.984375,-1.6875 z m 0,0"
           id="path12793" />
      </g>
      <g
         id="use2058"
         transform="translate(812.85681,620.19971)">
        <path
           style="stroke:none"
           d="m 1.984375,-2.796875 c -0.828125,0 -1.453125,0.578125 -1.453125,1.453125 0,0.609375 0.3125,1.078125 0.796875,1.265625 L 0.671875,2.3125 H 2.15625 L 3.015625,0.15625 c 0.34375,-0.828125 0.40625,-1.109375 0.40625,-1.5 0,-0.859375 -0.609375,-1.453125 -1.4375,-1.453125 z m 0,0"
           id="path12717" />
      </g>
      <g
         id="use2060"
         transform="translate(816.7868,620.19971)">
        <path
           style="stroke:none"
           d=""
           id="path12729" />
      </g>
      <g
         id="use2062"
         transform="translate(821.0318,620.19971)">
        <path
           style="stroke:none"
           d="m 4.6875,0.1875 c 3,0 4.46875,-1.5 4.46875,-3.265625 0,-3.859375 -6.109375,-2.515625 -6.109375,-4.453125 0,-0.65625 0.546875,-1.203125 2,-1.203125 0.921875,0 1.921875,0.28125 2.90625,0.828125 l 0.75,-1.84375 C 7.71875,-10.359375 6.375,-10.6875 5.0625,-10.6875 c -3,0 -4.4375,1.5 -4.4375,3.28125 0,3.890625 6.109375,2.546875 6.109375,4.515625 0,0.640625 -0.578125,1.125 -2.03125,1.125 -1.25,0 -2.578125,-0.453125 -3.453125,-1.09375 L 0.421875,-1.03125 C 1.34375,-0.3125 3.03125,0.1875 4.6875,0.1875 Z m 0,0"
           id="path12821" />
      </g>
      <g
         id="use2064"
         transform="translate(830.60181,620.19971)">
        <path
           style="stroke:none"
           d="m 4.328125,-8.1875 c -1.28125,0 -2.59375,0.34375 -3.46875,0.96875 L 1.6875,-5.578125 c 0.59375,-0.46875 1.484375,-0.75 2.328125,-0.75 1.265625,0 1.859375,0.578125 1.859375,1.59375 H 4.015625 c -2.453125,0 -3.453125,0.984375 -3.453125,2.40625 0,1.390625 1.125,2.453125 3,2.453125 1.1875,0 2.03125,-0.390625 2.46875,-1.125 v 1 h 2.1875 v -4.609375 c 0,-2.4375 -1.421875,-3.578125 -3.890625,-3.578125 z M 4.15625,-1.453125 c -0.828125,0 -1.328125,-0.390625 -1.328125,-0.984375 0,-0.53125 0.359375,-0.9375 1.453125,-0.9375 H 5.875 v 0.828125 c -0.265625,0.734375 -0.9375,1.09375 -1.71875,1.09375 z m 0,0"
           id="path12809" />
      </g>
      <g
         id="use2066"
         transform="translate(839.85681,620.19971)">
        <path
           style="stroke:none"
           d="m 5.65625,-2.046875 c -0.25,0.203125 -0.59375,0.3125 -0.953125,0.3125 -0.625,0 -1,-0.375 -1,-1.078125 V -6.09375 H 5.71875 V -7.890625 H 3.703125 v -1.96875 h -2.34375 v 1.96875 H 0.125 v 1.796875 h 1.234375 v 3.3125 c 0,1.921875 1.109375,2.90625 3.015625,2.90625 0.71875,0 1.4375,-0.171875 1.90625,-0.515625 z m 0,0"
           id="path12797" />
      </g>
      <g
         id="use2068"
         transform="translate(846.38177,620.19971)">
        <path
           style="stroke:none"
           d="m 6.875,-8.0625 v 3.984375 C 6.875,-2.59375 6.09375,-1.90625 5.015625,-1.90625 3.96875,-1.90625 3.375,-2.5 3.375,-3.859375 V -8.0625 H 1.03125 v 4.546875 c 0,2.5 1.421875,3.640625 3.453125,3.640625 0.984375,0 1.890625,-0.375 2.5,-1.078125 V 0 h 2.21875 v -8.0625 z m 0,0"
           id="path12741" />
      </g>
      <g
         id="use2070"
         transform="translate(856.68683,620.19971)">
        <path
           style="stroke:none"
           d="M 3.3125,-7 V -8.0625 H 1.078125 V 0 h 2.34375 v -3.8125 c 0,-1.546875 0.859375,-2.25 2.140625,-2.25 0.1875,0 0.328125,0.015625 0.53125,0.03125 V -8.1875 c -1.25,0 -2.203125,0.40625 -2.78125,1.1875 z m 0,0"
           id="path12789" />
      </g>
    </g>
    <g
       style="fill:#d15426;fill-opacity:1"
       id="g2094"
       transform="matrix(0.35277777,0,0,0.35277777,202.79439,415.87872)">
      <g
         id="use2074"
         transform="translate(863.04681,620.19971)">
        <path
           style="stroke:none"
           d="m 4.328125,-8.1875 c -1.28125,0 -2.59375,0.34375 -3.46875,0.96875 L 1.6875,-5.578125 c 0.59375,-0.46875 1.484375,-0.75 2.328125,-0.75 1.265625,0 1.859375,0.578125 1.859375,1.59375 H 4.015625 c -2.453125,0 -3.453125,0.984375 -3.453125,2.40625 0,1.390625 1.125,2.453125 3,2.453125 1.1875,0 2.03125,-0.390625 2.46875,-1.125 v 1 h 2.1875 v -4.609375 c 0,-2.4375 -1.421875,-3.578125 -3.890625,-3.578125 z M 4.15625,-1.453125 c -0.828125,0 -1.328125,-0.390625 -1.328125,-0.984375 0,-0.53125 0.359375,-0.9375 1.453125,-0.9375 H 5.875 v 0.828125 c -0.265625,0.734375 -0.9375,1.09375 -1.71875,1.09375 z m 0,0"
           id="path12813" />
      </g>
      <g
         id="use2076"
         transform="translate(872.30182,620.19971)">
        <path
           style="stroke:none"
           d="m 5.65625,-2.046875 c -0.25,0.203125 -0.59375,0.3125 -0.953125,0.3125 -0.625,0 -1,-0.375 -1,-1.078125 V -6.09375 H 5.71875 V -7.890625 H 3.703125 v -1.96875 h -2.34375 v 1.96875 H 0.125 v 1.796875 h 1.234375 v 3.3125 c 0,1.921875 1.109375,2.90625 3.015625,2.90625 0.71875,0 1.4375,-0.171875 1.90625,-0.515625 z m 0,0"
           id="path12801" />
      </g>
      <g
         id="use2078"
         transform="translate(878.82678,620.19971)">
        <path
           style="stroke:none"
           d="m 2.25,-9.1875 c 0.875,0 1.453125,-0.578125 1.453125,-1.359375 0,-0.71875 -0.578125,-1.265625 -1.453125,-1.265625 -0.875,0 -1.453125,0.578125 -1.453125,1.3125 0,0.734375 0.578125,1.3125 1.453125,1.3125 z M 1.078125,0 h 2.34375 v -8.0625 h -2.34375 z m 0,0"
           id="path12777" />
      </g>
      <g
         id="use2080"
         transform="translate(883.3418,620.19971)">
        <path
           style="stroke:none"
           d="m 4.921875,0.125 c 2.5625,0 4.421875,-1.734375 4.421875,-4.15625 0,-2.4375 -1.859375,-4.15625 -4.421875,-4.15625 -2.5625,0 -4.4375,1.71875 -4.4375,4.15625 0,2.421875 1.875,4.15625 4.4375,4.15625 z m 0,-1.921875 c -1.171875,0 -2.078125,-0.84375 -2.078125,-2.234375 0,-1.40625 0.90625,-2.234375 2.078125,-2.234375 1.171875,0 2.046875,0.828125 2.046875,2.234375 0,1.390625 -0.875,2.234375 -2.046875,2.234375 z m 0,0"
           id="path12749" />
      </g>
      <g
         id="use2082"
         transform="translate(893.16681,620.19971)">
        <path
           style="stroke:none"
           d="m 5.984375,-8.1875 c -1.09375,0 -2.046875,0.375 -2.671875,1.0625 V -8.0625 H 1.078125 V 0 h 2.34375 v -3.984375 c 0,-1.484375 0.8125,-2.1875 1.9375,-2.1875 1.03125,0 1.625,0.609375 1.625,1.90625 V 0 h 2.34375 v -4.625 c 0,-2.453125 -1.4375,-3.5625 -3.34375,-3.5625 z m 0,0"
           id="path12765" />
      </g>
      <g
         id="use2084"
         transform="translate(903.5318,620.19971)">
        <path
           style="stroke:none"
           d="m 1.984375,-2.796875 c -0.828125,0 -1.453125,0.578125 -1.453125,1.453125 0,0.609375 0.3125,1.078125 0.796875,1.265625 L 0.671875,2.3125 H 2.15625 L 3.015625,0.15625 c 0.34375,-0.828125 0.40625,-1.109375 0.40625,-1.5 0,-0.859375 -0.609375,-1.453125 -1.4375,-1.453125 z m 0,0"
           id="path12721" />
      </g>
      <g
         id="use2086"
         transform="translate(907.46179,620.19971)">
        <path
           style="stroke:none"
           d=""
           id="path12733" />
      </g>
      <g
         id="use2088"
         transform="translate(911.70679,620.19971)">
        <path
           style="stroke:none"
           d="M 10.59375,-1.3125 9.359375,-2.4375 C 9.8125,-3.125 10.125,-3.9375 10.3125,-4.828125 l -1.875,-0.59375 C 8.328125,-4.796875 8.140625,-4.25 7.921875,-3.78125 L 6,-5.5625 c 1.421875,-0.78125 2.0625,-1.578125 2.0625,-2.65625 0,-1.484375 -1.203125,-2.421875 -3.015625,-2.421875 -1.984375,0 -3.28125,1.0625 -3.28125,2.578125 0,0.75 0.3125,1.4375 1.078125,2.234375 -1.59375,0.890625 -2.296875,1.8125 -2.296875,3.125 0,1.6875 1.6875,2.890625 4,2.890625 1.34375,0 2.546875,-0.421875 3.515625,-1.171875 L 9.3125,0.1875 Z M 5.046875,-9.046875 c 0.671875,0 1.03125,0.359375 1.03125,0.875 C 6.078125,-7.6875 5.75,-7.3125 4.703125,-6.75 4.0625,-7.375 3.90625,-7.6875 3.90625,-8.078125 c 0,-0.5625 0.40625,-0.96875 1.140625,-0.96875 z m -0.34375,7.390625 c -1.140625,0 -1.875,-0.53125 -1.875,-1.296875 0,-0.640625 0.359375,-1.125 1.3125,-1.6875 l 2.53125,2.375 c -0.5625,0.40625 -1.234375,0.609375 -1.96875,0.609375 z m 0,0"
           id="path12725" />
      </g>
      <g
         id="use2090"
         transform="translate(922.62677,620.19971)">
        <path
           style="stroke:none"
           d=""
           id="path12737" />
      </g>
      <g
         id="use2092"
         transform="translate(926.87183,620.19971)">
        <path
           style="stroke:none"
           d="M 5.796875,-10.5 H 1.25 V 0 h 2.421875 v -2.890625 h 2.125 c 2.796875,0 4.546875,-1.453125 4.546875,-3.796875 0,-2.359375 -1.75,-3.8125 -4.546875,-3.8125 z M 5.65625,-4.875 H 3.671875 V -8.515625 H 5.65625 c 1.484375,0 2.234375,0.671875 2.234375,1.828125 0,1.140625 -0.75,1.8125 -2.234375,1.8125 z m 0,0"
           id="path12713" />
      </g>
    </g>
    <g
       style="fill:#d15426;fill-opacity:1"
       id="g2110"
       transform="matrix(0.35277777,0,0,0.35277777,202.79439,415.87872)">
      <g
         id="use2096"
         transform="translate(937.68683,620.19971)">
        <path
           style="stroke:none"
           d="m 4.921875,0.125 c 2.5625,0 4.421875,-1.734375 4.421875,-4.15625 0,-2.4375 -1.859375,-4.15625 -4.421875,-4.15625 -2.5625,0 -4.4375,1.71875 -4.4375,4.15625 0,2.421875 1.875,4.15625 4.4375,4.15625 z m 0,-1.921875 c -1.171875,0 -2.078125,-0.84375 -2.078125,-2.234375 0,-1.40625 0.90625,-2.234375 2.078125,-2.234375 1.171875,0 2.046875,0.828125 2.046875,2.234375 0,1.390625 -0.875,2.234375 -2.046875,2.234375 z m 0,0"
           id="path12753" />
      </g>
      <g
         id="use2098"
         transform="translate(947.51178,620.19971)">
        <path
           style="stroke:none"
           d="m 3.796875,0.125 c 2.40625,0 3.8125,-1.0625 3.8125,-2.5625 0,-3.1875 -4.875,-1.859375 -4.875,-3.234375 0,-0.421875 0.453125,-0.75 1.5,-0.75 0.734375,0 1.53125,0.15625 2.328125,0.609375 L 7.328125,-7.484375 C 6.5625,-7.9375 5.34375,-8.1875 4.234375,-8.1875 1.875,-8.1875 0.5,-7.109375 0.5,-5.578125 c 0,3.21875 4.875,1.875 4.875,3.1875 0,0.453125 -0.40625,0.734375 -1.484375,0.734375 -1,0 -2.09375,-0.3125 -2.8125,-0.78125 L 0.296875,-0.75 c 0.75,0.5 2.140625,0.875 3.5,0.875 z m 0,0"
           id="path12761" />
      </g>
      <g
         id="use2100"
         transform="translate(955.47681,620.19971)">
        <path
           style="stroke:none"
           d="m 2.25,-9.1875 c 0.875,0 1.453125,-0.578125 1.453125,-1.359375 0,-0.71875 -0.578125,-1.265625 -1.453125,-1.265625 -0.875,0 -1.453125,0.578125 -1.453125,1.3125 0,0.734375 0.578125,1.3125 1.453125,1.3125 z M 1.078125,0 h 2.34375 v -8.0625 h -2.34375 z m 0,0"
           id="path12781" />
      </g>
      <g
         id="use2102"
         transform="translate(959.99182,620.19971)">
        <path
           style="stroke:none"
           d="m 5.65625,-2.046875 c -0.25,0.203125 -0.59375,0.3125 -0.953125,0.3125 -0.625,0 -1,-0.375 -1,-1.078125 V -6.09375 H 5.71875 V -7.890625 H 3.703125 v -1.96875 h -2.34375 v 1.96875 H 0.125 v 1.796875 h 1.234375 v 3.3125 c 0,1.921875 1.109375,2.90625 3.015625,2.90625 0.71875,0 1.4375,-0.171875 1.90625,-0.515625 z m 0,0"
           id="path12805" />
      </g>
      <g
         id="use2104"
         transform="translate(966.51678,620.19971)">
        <path
           style="stroke:none"
           d="m 2.25,-9.1875 c 0.875,0 1.453125,-0.578125 1.453125,-1.359375 0,-0.71875 -0.578125,-1.265625 -1.453125,-1.265625 -0.875,0 -1.453125,0.578125 -1.453125,1.3125 0,0.734375 0.578125,1.3125 1.453125,1.3125 z M 1.078125,0 h 2.34375 v -8.0625 h -2.34375 z m 0,0"
           id="path12785" />
      </g>
      <g
         id="use2106"
         transform="translate(971.0318,620.19971)">
        <path
           style="stroke:none"
           d="m 4.921875,0.125 c 2.5625,0 4.421875,-1.734375 4.421875,-4.15625 0,-2.4375 -1.859375,-4.15625 -4.421875,-4.15625 -2.5625,0 -4.4375,1.71875 -4.4375,4.15625 0,2.421875 1.875,4.15625 4.4375,4.15625 z m 0,-1.921875 c -1.171875,0 -2.078125,-0.84375 -2.078125,-2.234375 0,-1.40625 0.90625,-2.234375 2.078125,-2.234375 1.171875,0 2.046875,0.828125 2.046875,2.234375 0,1.390625 -0.875,2.234375 -2.046875,2.234375 z m 0,0"
           id="path12757" />
      </g>
      <g
         id="use2108"
         transform="translate(980.85681,620.19971)">
        <path
           style="stroke:none"
           d="m 5.984375,-8.1875 c -1.09375,0 -2.046875,0.375 -2.671875,1.0625 V -8.0625 H 1.078125 V 0 h 2.34375 v -3.984375 c 0,-1.484375 0.8125,-2.1875 1.9375,-2.1875 1.03125,0 1.625,0.609375 1.625,1.90625 V 0 h 2.34375 v -4.625 c 0,-2.453125 -1.4375,-3.5625 -3.34375,-3.5625 z m 0,0"
           id="path12769" />
      </g>
    </g>
    <path
       style="fill:none;stroke:#cfd1d4;stroke-width:0.368291;stroke-linecap:butt;stroke-linejoin:miter;stroke-miterlimit:10;stroke-opacity:1"
       d="M 397.36235,646.17508 H 545.61997"
       id="path2112" />
    <g
       style="fill:#211e1e;fill-opacity:1"
       id="g2116"
       transform="matrix(0.35277777,0,0,0.35277777,202.79439,415.87872)">
      <g
         id="use2114"
         transform="translate(545.05798,679.6391)">
        <path
           style="stroke:none"
           d="m 3.984375,-6.609375 h -3.40625 v 1 h 2.28125 v 3.53125 c 0,0.671875 -0.34375,1.046875 -0.9375,1.046875 -0.453125,0 -0.984375,-0.25 -1.40625,-0.734375 l -0.53125,0.859375 c 0.484375,0.609375 1.15625,0.953125 1.9375,0.953125 1.28125,0 2.0625,-0.75 2.0625,-2.09375 z m 0,0"
           id="path12701" />
      </g>
    </g>
    <g
       style="fill:#211e1e;fill-opacity:1"
       id="g2122"
       transform="matrix(0.35277777,0,0,0.35277777,202.79439,415.87872)">
      <g
         id="use2118"
         transform="translate(549.58398,679.6391)">
        <path
           style="stroke:none"
           d="M 5.140625,-1.5 5.78125,0 h 1.1875 L 4.078125,-6.609375 H 2.9375 L 0.015625,0 h 1.15625 L 1.8125,-1.5 Z M 4.71875,-2.484375 h -2.5 l 1.25,-2.9375 z m 0,0"
           id="path12681" />
      </g>
      <g
         id="use2120"
         transform="translate(556.55719,679.6391)">
        <path
           style="stroke:none"
           d="m 6.609375,0 v -6.609375 h -1.09375 v 4.75 l -3.546875,-4.75 H 0.875 V 0 H 1.984375 V -4.75 L 5.515625,0 Z m 0,0"
           id="path12669" />
      </g>
    </g>
    <g
       style="fill:#211e1e;fill-opacity:1"
       id="g2130"
       transform="matrix(0.35277777,0,0,0.35277777,202.79439,415.87872)">
      <g
         id="use2124"
         transform="translate(582.39966,679.6391)">
        <path
           style="stroke:none"
           d="m 5.296875,-5.609375 0.015625,-1 H 0.875 V 0 h 1.109375 v -2.71875 h 3 v -0.984375 h -3 v -1.90625 z m 0,0"
           id="path12665" />
      </g>
      <g
         id="use2126"
         transform="translate(587.83276,679.6391)">
        <path
           style="stroke:none"
           d="m 5.59375,-5.609375 v -1 H 0.875 V 0 H 5.703125 V -1 H 1.984375 V -2.828125 H 5.21875 v -1 H 1.984375 v -1.78125 z m 0,0"
           id="path12653" />
      </g>
      <g
         id="use2128"
         transform="translate(594.03119,679.6391)">
        <path
           style="stroke:none"
           d="M 0.875,-6.609375 V 0 h 2.9375 c 1.484375,0 2.40625,-0.6875 2.40625,-1.8125 0,-0.890625 -0.53125,-1.53125 -1.421875,-1.671875 C 5.515625,-3.65625 5.96875,-4.21875 5.96875,-4.96875 5.96875,-6 5.109375,-6.609375 3.75,-6.609375 Z M 1.984375,-5.625 H 3.6875 c 0.703125,0 1.140625,0.296875 1.140625,0.859375 0,0.5625 -0.4375,0.890625 -1.140625,0.890625 H 1.984375 Z m 0,2.734375 H 3.6875 c 0.875,0 1.390625,0.34375 1.390625,0.9375 C 5.078125,-1.328125 4.5625,-1 3.6875,-1 H 1.984375 Z m 0,0"
           id="path12649" />
      </g>
    </g>
    <g
       style="fill:#211e1e;fill-opacity:1"
       id="g2138"
       transform="matrix(0.35277777,0,0,0.35277777,202.79439,415.87872)">
      <g
         id="use2132"
         transform="translate(619.9209,679.6391)">
        <path
           style="stroke:none"
           d="m 7.859375,0 v -6.609375 h -1.3125 L 4.375,-2.21875 2.1875,-6.609375 H 0.875 V 0 h 1.046875 v -4.9375 l 2.09375,4.25 h 0.71875 l 2.09375,-4.25 V 0 Z m 0,0"
           id="path12641" />
      </g>
      <g
         id="use2134"
         transform="translate(628.66107,679.6391)">
        <path
           style="stroke:none"
           d="M 5.140625,-1.5 5.78125,0 h 1.1875 L 4.078125,-6.609375 H 2.9375 L 0.015625,0 h 1.15625 L 1.8125,-1.5 Z M 4.71875,-2.484375 h -2.5 l 1.25,-2.9375 z m 0,0"
           id="path12685" />
      </g>
      <g
         id="use2136"
         transform="translate(635.63428,679.6391)">
        <path
           style="stroke:none"
           d="M 5.0625,0 H 6.328125 L 4.84375,-2.21875 c 0.890625,-0.328125 1.375,-1.078125 1.375,-2.140625 0,-1.4375 -0.96875,-2.25 -2.671875,-2.25 H 0.875 V 0 h 1.109375 v -2 h 1.5625 c 0.109375,0 0.21875,0 0.3125,0 z M 1.984375,-3 v -2.609375 h 1.5625 c 1.03125,0 1.609375,0.40625 1.609375,1.28125 C 5.15625,-3.4375 4.578125,-3 3.546875,-3 Z m 0,0"
           id="path12633" />
      </g>
    </g>
    <g
       style="fill:#211e1e;fill-opacity:1"
       id="g2146"
       transform="matrix(0.35277777,0,0,0.35277777,202.79439,415.87872)">
      <g
         id="use2140"
         transform="translate(658.11298,679.6391)">
        <path
           style="stroke:none"
           d="M 5.140625,-1.5 5.78125,0 h 1.1875 L 4.078125,-6.609375 H 2.9375 L 0.015625,0 h 1.15625 L 1.8125,-1.5 Z M 4.71875,-2.484375 h -2.5 l 1.25,-2.9375 z m 0,0"
           id="path12689" />
      </g>
      <g
         id="use2142"
         transform="translate(665.08618,679.6391)">
        <path
           style="stroke:none"
           d="M 0.875,-6.609375 V 0 H 1.984375 V -2 H 3.5 c 1.671875,0 2.625,-0.859375 2.625,-2.359375 0,-1.4375 -0.953125,-2.25 -2.625,-2.25 z m 1.109375,1 h 1.46875 c 1.03125,0 1.609375,0.40625 1.609375,1.28125 C 5.0625,-3.4375 4.484375,-3 3.453125,-3 h -1.46875 z m 0,0"
           id="path12625" />
      </g>
      <g
         id="use2144"
         transform="translate(671.44525,679.6391)">
        <path
           style="stroke:none"
           d="M 5.0625,0 H 6.328125 L 4.84375,-2.21875 c 0.890625,-0.328125 1.375,-1.078125 1.375,-2.140625 0,-1.4375 -0.96875,-2.25 -2.671875,-2.25 H 0.875 V 0 h 1.109375 v -2 h 1.5625 c 0.109375,0 0.21875,0 0.3125,0 z M 1.984375,-3 v -2.609375 h 1.5625 c 1.03125,0 1.609375,0.40625 1.609375,1.28125 C 5.15625,-3.4375 4.578125,-3 3.546875,-3 Z m 0,0"
           id="path12637" />
      </g>
    </g>
    <g
       style="fill:#211e1e;fill-opacity:1"
       id="g2152"
       transform="matrix(0.35277777,0,0,0.35277777,202.79439,415.87872)">
      <g
         id="use2148"
         transform="translate(693.77277,679.6391)">
        <path
           style="stroke:none"
           d="m 7.859375,0 v -6.609375 h -1.3125 L 4.375,-2.21875 2.1875,-6.609375 H 0.875 V 0 h 1.046875 v -4.9375 l 2.09375,4.25 h 0.71875 l 2.09375,-4.25 V 0 Z m 0,0"
           id="path12645" />
      </g>
      <g
         id="use2150"
         transform="translate(702.51288,679.6391)">
        <path
           style="stroke:none"
           d="M 5.140625,-1.5 5.78125,0 h 1.1875 L 4.078125,-6.609375 H 2.9375 L 0.015625,0 h 1.15625 L 1.8125,-1.5 Z M 4.71875,-2.484375 h -2.5 l 1.25,-2.9375 z m 0,0"
           id="path12693" />
      </g>
    </g>
    <g
       style="fill:#211e1e;fill-opacity:1"
       id="g2156"
       transform="matrix(0.35277777,0,0,0.35277777,202.79439,415.87872)">
      <g
         id="use2154"
         transform="translate(709.02313,679.6391)">
        <path
           style="stroke:none"
           d="m 3.578125,-2.203125 2.4375,-4.40625 H 4.875 l -1.84375,3.21875 -1.890625,-3.21875 h -1.125 l 2.46875,4.4375 V 0 h 1.09375 z m 0,0"
           id="path12621" />
      </g>
    </g>
    <g
       style="fill:#211e1e;fill-opacity:1"
       id="g2164"
       transform="matrix(0.35277777,0,0,0.35277777,202.79439,415.87872)">
      <g
         id="use2158"
         transform="translate(731.70038,679.6391)">
        <path
           style="stroke:none"
           d="m 3.984375,-6.609375 h -3.40625 v 1 h 2.28125 v 3.53125 c 0,0.671875 -0.34375,1.046875 -0.9375,1.046875 -0.453125,0 -0.984375,-0.25 -1.40625,-0.734375 l -0.53125,0.859375 c 0.484375,0.609375 1.15625,0.953125 1.9375,0.953125 1.28125,0 2.0625,-0.75 2.0625,-2.09375 z m 0,0"
           id="path12705" />
      </g>
      <g
         id="use2160"
         transform="translate(736.41534,679.6391)">
        <path
           style="stroke:none"
           d="M 6.5,-6.609375 H 5.375 v 3.875 c 0,1.125 -0.671875,1.78125 -1.75,1.78125 -1.078125,0 -1.765625,-0.671875 -1.765625,-1.78125 v -3.875 h -1.125 v 3.875 c 0,1.71875 1.09375,2.78125 2.890625,2.78125 1.78125,0 2.875,-1.0625 2.875,-2.78125 z m 0,0"
           id="path12609" />
      </g>
      <g
         id="use2162"
         transform="translate(743.63422,679.6391)">
        <path
           style="stroke:none"
           d="m 6.609375,0 v -6.609375 h -1.09375 v 4.75 l -3.546875,-4.75 H 0.875 V 0 H 1.984375 V -4.75 L 5.515625,0 Z m 0,0"
           id="path12673" />
      </g>
    </g>
    <g
       style="fill:#211e1e;fill-opacity:1"
       id="g2172"
       transform="matrix(0.35277777,0,0,0.35277777,202.79439,415.87872)">
      <g
         id="use2166"
         transform="translate(772.56647,679.6391)">
        <path
           style="stroke:none"
           d="m 3.984375,-6.609375 h -3.40625 v 1 h 2.28125 v 3.53125 c 0,0.671875 -0.34375,1.046875 -0.9375,1.046875 -0.453125,0 -0.984375,-0.25 -1.40625,-0.734375 l -0.53125,0.859375 c 0.484375,0.609375 1.15625,0.953125 1.9375,0.953125 1.28125,0 2.0625,-0.75 2.0625,-2.09375 z m 0,0"
           id="path12709" />
      </g>
      <g
         id="use2168"
         transform="translate(777.28143,679.6391)">
        <path
           style="stroke:none"
           d="M 6.5,-6.609375 H 5.375 v 3.875 c 0,1.125 -0.671875,1.78125 -1.75,1.78125 -1.078125,0 -1.765625,-0.671875 -1.765625,-1.78125 v -3.875 h -1.125 v 3.875 c 0,1.71875 1.09375,2.78125 2.890625,2.78125 1.78125,0 2.875,-1.0625 2.875,-2.78125 z m 0,0"
           id="path12613" />
      </g>
      <g
         id="use2170"
         transform="translate(784.50031,679.6391)">
        <path
           style="stroke:none"
           d="m 1.984375,-1.015625 v -5.59375 H 0.875 V 0 h 3.96875 v -1.015625 z m 0,0"
           id="path12605" />
      </g>
    </g>
    <g
       style="fill:#211e1e;fill-opacity:1"
       id="g2176"
       transform="matrix(0.35277777,0,0,0.35277777,202.79439,415.87872)">
      <g
         id="use2174"
         transform="translate(807.51758,679.6391)">
        <path
           style="stroke:none"
           d="M 5.140625,-1.5 5.78125,0 h 1.1875 L 4.078125,-6.609375 H 2.9375 L 0.015625,0 h 1.15625 L 1.8125,-1.5 Z M 4.71875,-2.484375 h -2.5 l 1.25,-2.9375 z m 0,0"
           id="path12697" />
      </g>
    </g>
    <g
       style="fill:#211e1e;fill-opacity:1"
       id="g2182"
       transform="matrix(0.35277777,0,0,0.35277777,202.79439,415.87872)">
      <g
         id="use2178"
         transform="translate(814.30182,679.6391)">
        <path
           style="stroke:none"
           d="M 6.5,-6.609375 H 5.375 v 3.875 c 0,1.125 -0.671875,1.78125 -1.75,1.78125 -1.078125,0 -1.765625,-0.671875 -1.765625,-1.78125 v -3.875 h -1.125 v 3.875 c 0,1.71875 1.09375,2.78125 2.890625,2.78125 1.78125,0 2.875,-1.0625 2.875,-2.78125 z m 0,0"
           id="path12617" />
      </g>
      <g
         id="use2180"
         transform="translate(821.52075,679.6391)">
        <path
           style="stroke:none"
           d="m 5.390625,-3.25 v 1.84375 C 4.921875,-1.125 4.375,-0.953125 3.875,-0.953125 c -1.34375,0 -2.421875,-1.03125 -2.421875,-2.359375 0,-1.3125 1.0625,-2.34375 2.40625,-2.34375 0.703125,0 1.40625,0.28125 1.921875,0.765625 l 0.625,-0.828125 C 5.75,-6.28125 4.8125,-6.640625 3.859375,-6.640625 c -2,0 -3.53125,1.4375 -3.53125,3.328125 0,1.890625 1.515625,3.359375 3.46875,3.359375 0.90625,0 1.90625,-0.34375 2.578125,-0.859375 V -3.25 Z m 0,0"
           id="path12601" />
      </g>
    </g>
    <g
       style="fill:#211e1e;fill-opacity:1"
       id="g2190"
       transform="matrix(0.35277777,0,0,0.35277777,202.79439,415.87872)">
      <g
         id="use2184"
         transform="translate(845.84192,679.6391)">
        <path
           style="stroke:none"
           d="m 3.046875,-6.671875 c -1.4375,0 -2.40625,0.71875 -2.40625,1.84375 0,2.359375 3.5625,1.53125 3.5625,3.015625 0,0.515625 -0.453125,0.796875 -1.234375,0.796875 -0.703125,0 -1.5625,-0.34375 -2.234375,-0.953125 L 0.25,-1.015625 C 0.921875,-0.390625 1.90625,0.03125 2.953125,0.03125 4.40625,0.03125 5.4375,-0.6875 5.4375,-1.875 5.453125,-4.25 1.875,-3.484375 1.875,-4.921875 c 0,-0.453125 0.4375,-0.6875 1.078125,-0.6875 0.5,0 1.21875,0.171875 1.9375,0.609375 l 0.46875,-0.984375 C 4.75,-6.390625 3.90625,-6.671875 3.046875,-6.671875 Z m 0,0"
           id="path12597" />
      </g>
      <g
         id="use2186"
         transform="translate(851.71906,679.6391)">
        <path
           style="stroke:none"
           d="m 5.59375,-5.609375 v -1 H 0.875 V 0 H 5.703125 V -1 H 1.984375 V -2.828125 H 5.21875 v -1 H 1.984375 v -1.78125 z m 0,0"
           id="path12657" />
      </g>
      <g
         id="use2188"
         transform="translate(857.91748,679.6391)">
        <path
           style="stroke:none"
           d="M 0.875,-6.609375 V 0 H 1.984375 V -2 H 3.5 c 1.671875,0 2.625,-0.859375 2.625,-2.359375 0,-1.4375 -0.953125,-2.25 -2.625,-2.25 z m 1.109375,1 h 1.46875 c 1.03125,0 1.609375,0.40625 1.609375,1.28125 C 5.0625,-3.4375 4.484375,-3 3.453125,-3 h -1.46875 z m 0,0"
           id="path12629" />
      </g>
    </g>
    <g
       style="fill:#211e1e;fill-opacity:1"
       id="g2196"
       transform="matrix(0.35277777,0,0,0.35277777,202.79439,415.87872)">
      <g
         id="use2192"
         transform="translate(882.34271,679.6391)">
        <path
           style="stroke:none"
           d="m 3.828125,-6.640625 c -1.96875,0 -3.5,1.4375 -3.5,3.328125 0,1.890625 1.53125,3.359375 3.5,3.359375 1.96875,0 3.5,-1.46875 3.5,-3.359375 0,-1.890625 -1.53125,-3.328125 -3.5,-3.328125 z m 0.015625,1 c 1.296875,0 2.34375,1.015625 2.34375,2.328125 0,1.3125 -1.046875,2.359375 -2.34375,2.359375 -1.296875,0 -2.390625,-1.046875 -2.390625,-2.359375 0,-1.3125 1.078125,-2.328125 2.390625,-2.328125 z m 0,0"
           id="path12589" />
      </g>
      <g
         id="use2194"
         transform="translate(889.73169,679.6391)">
        <path
           style="stroke:none"
           d="m 3.796875,-6.640625 c -1.953125,0 -3.46875,1.4375 -3.46875,3.328125 0,1.890625 1.5,3.359375 3.4375,3.359375 0.9375,0 1.890625,-0.421875 2.5625,-1.09375 L 5.65625,-1.78125 C 5.15625,-1.296875 4.484375,-1 3.8125,-1 2.5,-1 1.453125,-2.015625 1.453125,-3.328125 1.453125,-4.625 2.5,-5.65625 3.8125,-5.65625 c 0.671875,0 1.375,0.328125 1.84375,0.84375 L 6.3125,-5.625 C 5.671875,-6.265625 4.734375,-6.640625 3.796875,-6.640625 Z m 0,0"
           id="path12581" />
      </g>
    </g>
    <g
       style="fill:#211e1e;fill-opacity:1"
       id="g2200"
       transform="matrix(0.35277777,0,0,0.35277777,202.79439,415.87872)">
      <g
         id="use2198"
         transform="translate(896.3175,679.6391)">
        <path
           style="stroke:none"
           d="m 5.390625,-5.609375 v -1 h -5.3125 v 1 h 2.09375 V 0 h 1.125 v -5.609375 z m 0,0"
           id="path12577" />
      </g>
    </g>
    <g
       style="fill:#211e1e;fill-opacity:1"
       id="g2206"
       transform="matrix(0.35277777,0,0,0.35277777,202.79439,415.87872)">
      <g
         id="use2202"
         transform="translate(920.93158,679.6391)">
        <path
           style="stroke:none"
           d="m 6.609375,0 v -6.609375 h -1.09375 v 4.75 l -3.546875,-4.75 H 0.875 V 0 H 1.984375 V -4.75 L 5.515625,0 Z m 0,0"
           id="path12677" />
      </g>
      <g
         id="use2204"
         transform="translate(928.41504,679.6391)">
        <path
           style="stroke:none"
           d="m 3.828125,-6.640625 c -1.96875,0 -3.5,1.4375 -3.5,3.328125 0,1.890625 1.53125,3.359375 3.5,3.359375 1.96875,0 3.5,-1.46875 3.5,-3.359375 0,-1.890625 -1.53125,-3.328125 -3.5,-3.328125 z m 0.015625,1 c 1.296875,0 2.34375,1.015625 2.34375,2.328125 0,1.3125 -1.046875,2.359375 -2.34375,2.359375 -1.296875,0 -2.390625,-1.046875 -2.390625,-2.359375 0,-1.3125 1.078125,-2.328125 2.390625,-2.328125 z m 0,0"
           id="path12593" />
      </g>
    </g>
    <g
       style="fill:#211e1e;fill-opacity:1"
       id="g2210"
       transform="matrix(0.35277777,0,0,0.35277777,202.79439,415.87872)">
      <g
         id="use2208"
         transform="translate(935.97412,679.6391)">
        <path
           style="stroke:none"
           d="M 3.8125,0 6.5,-6.609375 H 5.328125 l -2.0625,5.375 -2.03125,-5.375 H 0.03125 L 2.671875,0 Z m 0,0"
           id="path12573" />
      </g>
    </g>
    <g
       style="fill:#211e1e;fill-opacity:1"
       id="g2218"
       transform="matrix(0.35277777,0,0,0.35277777,202.79439,415.87872)">
      <g
         id="use2212"
         transform="translate(959.70953,679.6391)">
        <path
           style="stroke:none"
           d="M 0.875,-6.609375 V 0 H 3.546875 C 5.5625,0 7,-1.40625 7,-3.3125 7,-5.234375 5.5625,-6.609375 3.578125,-6.609375 Z m 1.109375,1 H 3.5625 c 1.3125,0 2.3125,0.953125 2.3125,2.3125 C 5.875,-1.953125 4.890625,-1 3.609375,-1 h -1.625 z m 0,0"
           id="path12569" />
      </g>
      <g
         id="use2214"
         transform="translate(967.03235,679.6391)">
        <path
           style="stroke:none"
           d="m 5.59375,-5.609375 v -1 H 0.875 V 0 H 5.703125 V -1 H 1.984375 V -2.828125 H 5.21875 v -1 H 1.984375 v -1.78125 z m 0,0"
           id="path12661" />
      </g>
      <g
         id="use2216"
         transform="translate(973.23077,679.6391)">
        <path
           style="stroke:none"
           d="m 3.796875,-6.640625 c -1.953125,0 -3.46875,1.4375 -3.46875,3.328125 0,1.890625 1.5,3.359375 3.4375,3.359375 0.9375,0 1.890625,-0.421875 2.5625,-1.09375 L 5.65625,-1.78125 C 5.15625,-1.296875 4.484375,-1 3.8125,-1 2.5,-1 1.453125,-2.015625 1.453125,-3.328125 1.453125,-4.625 2.5,-5.65625 3.8125,-5.65625 c 0.671875,0 1.375,0.328125 1.84375,0.84375 L 6.3125,-5.625 C 5.671875,-6.265625 4.734375,-6.640625 3.796875,-6.640625 Z m 0,0"
           id="path12585" />
      </g>
    </g>
    <path
       style="fill:#eecabf;fill-opacity:1;fill-rule:nonzero;stroke:none;stroke-width:0.352778"
       d="m 398.83548,649.49064 c 0,0.40652 -0.32935,0.73587 -0.73588,0.73587 -0.40652,0 -0.73725,-0.32935 -0.73725,-0.73587 0,-0.40652 0.33073,-0.73725 0.73725,-0.73725 0.40653,0 0.73588,0.33073 0.73588,0.73725"
       id="path2220" />
    <g
       clip-path="url(#clip17)"
       clip-rule="nonzero"
       id="g2224"
       transform="matrix(0.35277777,0,0,0.35277777,202.79439,415.87872)">
      <path
         style="fill:#eb3521;fill-opacity:1;fill-rule:nonzero;stroke:none"
         d="m 601.99219,637.14844 c 0,5.76953 -4.67578,10.4414 -10.44141,10.4414 -5.76562,0 -10.4375,-4.67187 -10.4375,-10.4414 0,-5.76563 4.67188,-10.4375 10.4375,-10.4375 5.76563,0 10.44141,4.67187 10.44141,10.4375"
         id="path2222" />
    </g>
    <path
       style="fill:#eea38f;fill-opacity:1;fill-rule:nonzero;stroke:none;stroke-width:0.352778"
       d="m 427.76187,647.28027 c 0,0.81304 -0.6587,1.47312 -1.47312,1.47312 -0.81304,0 -1.47312,-0.66008 -1.47312,-1.47312 0,-0.81305 0.66008,-1.47313 1.47312,-1.47313 0.81442,0 1.47312,0.66008 1.47312,1.47313"
       id="path2226" />
    <path
       style="fill:#ee8f78;fill-opacity:1;fill-rule:nonzero;stroke:none;stroke-width:0.352778"
       d="m 440.36128,646.17508 c 0,1.01837 -0.82407,1.84244 -1.84106,1.84244 -1.01699,0 -1.84106,-0.82407 -1.84106,-1.84244 0,-1.01699 0.82407,-1.84106 1.84106,-1.84106 1.01699,0 1.84106,0.82407 1.84106,1.84106"
       id="path2228" />
    <path
       style="fill:#ee7d5e;fill-opacity:1;fill-rule:nonzero;stroke:none;stroke-width:0.352778"
       d="m 453.17841,645.07127 c 0,1.21957 -0.98943,2.209 -2.20899,2.209 -1.22095,0 -2.21037,-0.98943 -2.21037,-2.209 0,-1.22094 0.98942,-2.21037 2.21037,-2.21037 1.21956,0 2.20899,0.98943 2.20899,2.21037"
       id="path2230" />
    <path
       style="fill:#ee4521;fill-opacity:1;fill-rule:nonzero;stroke:none;stroke-width:0.352778"
       d="m 468.20041,640.65053 c 0,1.83141 -1.48415,3.31555 -3.31556,3.31555 -1.83004,0 -3.31419,-1.48414 -3.31419,-3.31555 0,-1.83004 1.48415,-3.31419 3.31419,-3.31419 1.83141,0 3.31556,1.48415 3.31556,3.31419"
       id="path2232" />
    <path
       style="fill:#f0dcd7;fill-opacity:1;fill-rule:nonzero;stroke:none;stroke-width:0.352778"
       d="m 478.70519,650.59445 c 0,0.20395 -0.16537,0.36931 -0.36931,0.36931 -0.20258,0 -0.36794,-0.16536 -0.36794,-0.36931 0,-0.20257 0.16536,-0.36794 0.36794,-0.36794 0.20394,0 0.36931,0.16537 0.36931,0.36794"
       id="path2234" />
    <path
       style="fill:#eeb5a6;fill-opacity:1;fill-rule:nonzero;stroke:none;stroke-width:0.352778"
       d="m 492.49522,648.75339 c 0,0.61047 -0.49472,1.10519 -1.10519,1.10519 -0.61047,0 -1.10519,-0.49472 -1.10519,-1.10519 0,-0.61047 0.49472,-1.10519 1.10519,-1.10519 0.61047,0 1.10519,0.49472 1.10519,1.10519"
       id="path2236" />
    <path
       style="fill:#ee8f78;fill-opacity:1;fill-rule:nonzero;stroke:none;stroke-width:0.352778"
       d="m 506.28525,646.17508 c 0,1.01837 -0.82407,1.84244 -1.84106,1.84244 -1.01699,0 -1.84244,-0.82407 -1.84244,-1.84244 0,-1.01699 0.82545,-1.84106 1.84244,-1.84106 1.01699,0 1.84106,0.82407 1.84106,1.84106"
       id="path2238" />
    <path
       style="fill:#eeb5a6;fill-opacity:1;fill-rule:nonzero;stroke:none;stroke-width:0.352778"
       d="m 518.27418,648.75339 c 0,0.61047 -0.49472,1.10519 -1.10381,1.10519 -0.61047,0 -1.10519,-0.49472 -1.10519,-1.10519 0,-0.61047 0.49472,-1.10519 1.10519,-1.10519 0.60909,0 1.10381,0.49472 1.10381,1.10519"
       id="path2240" />
    <path
       style="fill:#eea38f;fill-opacity:1;fill-rule:nonzero;stroke:none;stroke-width:0.352778"
       d="m 532.95718,647.28027 c 0,0.81304 -0.66008,1.47312 -1.47313,1.47312 -0.81442,0 -1.47312,-0.66008 -1.47312,-1.47312 0,-0.81305 0.6587,-1.47313 1.47312,-1.47313 0.81305,0 1.47313,0.66008 1.47313,1.47313"
       id="path2242" />
    <path
       style="fill:#ee6847;fill-opacity:1;fill-rule:nonzero;stroke:none;stroke-width:0.352778"
       d="m 547.64982,642.49296 c 0,1.42352 -1.1548,2.57831 -2.57831,2.57831 -1.42351,0 -2.57693,-1.15479 -2.57693,-2.57831 0,-1.42351 1.15342,-2.57831 2.57693,-2.57831 1.42351,0 2.57831,1.1548 2.57831,2.57831"
       id="path2244" />
    <g
       style="fill:#211e1e;fill-opacity:1"
       id="g2248"
       transform="matrix(0.35277777,0,0,0.35277777,202.79439,415.87872)">
      <g
         id="use2246"
         transform="translate(535.34613,655.68427)">
        <path
           style="stroke:none"
           d="M 5.28125,-6.203125 5.265625,-7.3125 h -4.4375 v 3.875 C 1.3125,-3.5 2.3125,-3.53125 2.75,-3.53125 c 0.9375,0 1.515625,0.453125 1.515625,1.1875 0,0.828125 -0.578125,1.328125 -1.53125,1.328125 -0.65625,0 -1.390625,-0.28125 -1.96875,-0.78125 l -0.5,1 c 0.71875,0.5 1.734375,0.84375 2.609375,0.84375 1.640625,0 2.703125,-0.96875 2.703125,-2.453125 0,-1.28125 -1.03125,-2.234375 -2.609375,-2.234375 l -1,0.015625 v -1.578125 z m 0,0"
           id="path12565" />
      </g>
    </g>
  </g>
</svg>
