<?xml version="1.0" encoding="UTF-8" standalone="no"?>
<!-- Created with Inkscape (http://www.inkscape.org/) -->

<svg
   width="154.38568mm"
   height="22.394176mm"
   viewBox="0 0 154.38568 22.394176"
   version="1.1"
   id="svg8181"
   xmlns="http://www.w3.org/2000/svg"
   xmlns:svg="http://www.w3.org/2000/svg">
  <defs
     id="defs8178">
    <clipPath
       id="clip2">
      <path
         d="m 85,529.84766 h 22 V 551 H 85 Z m 0,0"
         id="path682" />
    </clipPath>
  </defs>
  <g
     id="layer1"
     transform="translate(343.98945,-375.15461)">
    <g
       style="fill:#211e1e;fill-opacity:1"
       id="g1352"
       transform="matrix(0.35277777,0,0,0.35277777,-361.39406,197.37102)">
      <g
         id="use1350"
         transform="translate(49.351528,567.38617)">
        <path
           style="stroke:none"
           d="m 4.015625,-6.65625 h -3.4375 v 1 h 2.3125 v 3.5625 c 0,0.6875 -0.359375,1.0625 -0.953125,1.0625 -0.46875,0 -0.984375,-0.265625 -1.421875,-0.734375 l -0.53125,0.859375 c 0.484375,0.609375 1.15625,0.953125 1.953125,0.953125 1.28125,0 2.078125,-0.765625 2.078125,-2.109375 z m 0,0"
           id="path8730" />
      </g>
    </g>
    <g
       style="fill:#211e1e;fill-opacity:1"
       id="g1358"
       transform="matrix(0.35277777,0,0,0.35277777,-361.39406,197.37102)">
      <g
         id="use1354"
         transform="translate(53.910076,567.38617)">
        <path
           style="stroke:none"
           d="M 5.171875,-1.5 5.8125,0 H 7.015625 L 4.09375,-6.65625 H 2.953125 L 0.015625,0 H 1.1875 l 0.625,-1.5 z M 4.75,-2.5 H 2.234375 L 3.5,-5.46875 Z m 0,0"
           id="path8710" />
      </g>
      <g
         id="use1356"
         transform="translate(60.933472,567.38617)">
        <path
           style="stroke:none"
           d="M 6.65625,0 V -6.65625 H 5.546875 V -1.875 l -3.5625,-4.78125 H 0.875 V 0 H 2 V -4.78125 L 5.546875,0 Z m 0,0"
           id="path8698" />
      </g>
    </g>
    <g
       style="fill:#211e1e;fill-opacity:1"
       id="g1366"
       transform="matrix(0.35277777,0,0,0.35277777,-361.39406,197.37102)">
      <g
         id="use1360"
         transform="translate(86.961914,567.38617)">
        <path
           style="stroke:none"
           d="m 5.34375,-5.65625 v -1 H 0.875 V 0 H 2 v -2.734375 h 3.03125 v -1 H 2 V -5.65625 Z m 0,0"
           id="path8694" />
      </g>
      <g
         id="use1362"
         transform="translate(92.434074,567.38617)">
        <path
           style="stroke:none"
           d="m 5.640625,-5.65625 v -1 H 0.875 V 0 H 5.75 V -1.015625 H 2 V -2.84375 H 5.25 V -3.859375 H 2 V -5.65625 Z m 0,0"
           id="path8682" />
      </g>
      <g
         id="use1364"
         transform="translate(98.677094,567.38617)">
        <path
           style="stroke:none"
           d="M 0.875,-6.65625 V 0 h 2.953125 c 1.515625,0 2.4375,-0.6875 2.4375,-1.828125 0,-0.890625 -0.53125,-1.53125 -1.4375,-1.6875 C 5.5625,-3.6875 6,-4.25 6,-5 6,-6.03125 5.140625,-6.65625 3.765625,-6.65625 Z m 1.125,1 h 1.71875 c 0.703125,0 1.140625,0.296875 1.140625,0.859375 0,0.5625 -0.4375,0.890625 -1.140625,0.890625 H 2 Z m 0,2.75 h 1.71875 c 0.875,0 1.390625,0.34375 1.390625,0.9375 C 5.109375,-1.34375 4.59375,-1 3.71875,-1 H 2 Z m 0,0"
           id="path8678" />
      </g>
    </g>
    <g
       style="fill:#211e1e;fill-opacity:1"
       id="g1374"
       transform="matrix(0.35277777,0,0,0.35277777,-361.39406,197.37102)">
      <g
         id="use1368"
         transform="translate(124.75313,567.38617)">
        <path
           style="stroke:none"
           d="M 7.921875,0 V -6.65625 H 6.59375 L 4.40625,-2.234375 2.203125,-6.65625 H 0.875 V 0 H 1.9375 V -4.984375 L 4.03125,-0.6875 H 4.765625 L 6.875,-4.984375 V 0 Z m 0,0"
           id="path8670" />
      </g>
      <g
         id="use1370"
         transform="translate(133.55617,567.38617)">
        <path
           style="stroke:none"
           d="M 5.171875,-1.5 5.8125,0 H 7.015625 L 4.09375,-6.65625 H 2.953125 L 0.015625,0 H 1.1875 l 0.625,-1.5 z M 4.75,-2.5 H 2.234375 L 3.5,-5.46875 Z m 0,0"
           id="path8714" />
      </g>
      <g
         id="use1372"
         transform="translate(140.57956,567.38617)">
        <path
           style="stroke:none"
           d="M 5.09375,0 H 6.375 l -1.5,-2.234375 c 0.890625,-0.328125 1.390625,-1.09375 1.390625,-2.15625 0,-1.4375 -0.984375,-2.265625 -2.6875,-2.265625 H 0.875 V 0 H 2 V -2 H 3.578125 C 3.6875,-2 3.78125,-2 3.875,-2.015625 Z M 2,-3.015625 V -5.65625 h 1.578125 c 1.03125,0 1.625,0.421875 1.625,1.296875 0,0.90625 -0.59375,1.34375 -1.625,1.34375 z m 0,0"
           id="path8662" />
      </g>
    </g>
    <g
       style="fill:#211e1e;fill-opacity:1"
       id="g1382"
       transform="matrix(0.35277777,0,0,0.35277777,-361.39406,197.37102)">
      <g
         id="use1376"
         transform="translate(163.22,567.38617)">
        <path
           style="stroke:none"
           d="M 5.171875,-1.5 5.8125,0 H 7.015625 L 4.09375,-6.65625 H 2.953125 L 0.015625,0 H 1.1875 l 0.625,-1.5 z M 4.75,-2.5 H 2.234375 L 3.5,-5.46875 Z m 0,0"
           id="path8718" />
      </g>
      <g
         id="use1378"
         transform="translate(170.24339,567.38617)">
        <path
           style="stroke:none"
           d="M 0.875,-6.65625 V 0 H 2 v -2 h 1.53125 c 1.671875,0 2.640625,-0.890625 2.640625,-2.390625 0,-1.4375 -0.96875,-2.265625 -2.640625,-2.265625 z m 1.125,1 h 1.484375 c 1.03125,0 1.609375,0.421875 1.609375,1.296875 0,0.90625 -0.578125,1.34375 -1.609375,1.34375 H 2 Z m 0,0"
           id="path8654" />
      </g>
      <g
         id="use1380"
         transform="translate(176.64821,567.38617)">
        <path
           style="stroke:none"
           d="M 5.09375,0 H 6.375 l -1.5,-2.234375 c 0.890625,-0.328125 1.390625,-1.09375 1.390625,-2.15625 0,-1.4375 -0.984375,-2.265625 -2.6875,-2.265625 H 0.875 V 0 H 2 V -2 H 3.578125 C 3.6875,-2 3.78125,-2 3.875,-2.015625 Z M 2,-3.015625 V -5.65625 h 1.578125 c 1.03125,0 1.625,0.421875 1.625,1.296875 0,0.90625 -0.59375,1.34375 -1.625,1.34375 z m 0,0"
           id="path8666" />
      </g>
    </g>
    <g
       style="fill:#211e1e;fill-opacity:1"
       id="g1388"
       transform="matrix(0.35277777,0,0,0.35277777,-361.39406,197.37102)">
      <g
         id="use1384"
         transform="translate(199.13638,567.38617)">
        <path
           style="stroke:none"
           d="M 7.921875,0 V -6.65625 H 6.59375 L 4.40625,-2.234375 2.203125,-6.65625 H 0.875 V 0 H 1.9375 V -4.984375 L 4.03125,-0.6875 H 4.765625 L 6.875,-4.984375 V 0 Z m 0,0"
           id="path8674" />
      </g>
      <g
         id="use1386"
         transform="translate(207.93942,567.38617)">
        <path
           style="stroke:none"
           d="M 5.171875,-1.5 5.8125,0 H 7.015625 L 4.09375,-6.65625 H 2.953125 L 0.015625,0 H 1.1875 l 0.625,-1.5 z M 4.75,-2.5 H 2.234375 L 3.5,-5.46875 Z m 0,0"
           id="path8722" />
      </g>
    </g>
    <g
       style="fill:#211e1e;fill-opacity:1"
       id="g1392"
       transform="matrix(0.35277777,0,0,0.35277777,-361.39406,197.37102)">
      <g
         id="use1390"
         transform="translate(214.49649,567.38617)">
        <path
           style="stroke:none"
           d="m 3.609375,-2.21875 2.4375,-4.4375 H 4.90625 L 3.046875,-3.421875 1.140625,-6.65625 h -1.125 L 2.5,-2.171875 V 0 h 1.109375 z m 0,0"
           id="path8650" />
      </g>
    </g>
    <g
       style="fill:#211e1e;fill-opacity:1"
       id="g1400"
       transform="matrix(0.35277777,0,0,0.35277777,-361.39406,197.37102)">
      <g
         id="use1394"
         transform="translate(237.3369,567.38617)">
        <path
           style="stroke:none"
           d="m 4.015625,-6.65625 h -3.4375 v 1 h 2.3125 v 3.5625 c 0,0.6875 -0.359375,1.0625 -0.953125,1.0625 -0.46875,0 -0.984375,-0.265625 -1.421875,-0.734375 l -0.53125,0.859375 c 0.484375,0.609375 1.15625,0.953125 1.953125,0.953125 1.28125,0 2.078125,-0.765625 2.078125,-2.109375 z m 0,0"
           id="path8734" />
      </g>
      <g
         id="use1396"
         transform="translate(242.08578,567.38617)">
        <path
           style="stroke:none"
           d="M 6.53125,-6.65625 H 5.421875 v 3.890625 c 0,1.140625 -0.6875,1.796875 -1.765625,1.796875 -1.09375,0 -1.796875,-0.671875 -1.796875,-1.796875 V -6.65625 H 0.75 v 3.890625 c 0,1.75 1.09375,2.8125 2.890625,2.8125 1.796875,0 2.890625,-1.0625 2.890625,-2.8125 z m 0,0"
           id="path8638" />
      </g>
      <g
         id="use1398"
         transform="translate(249.35661,567.38617)">
        <path
           style="stroke:none"
           d="M 6.65625,0 V -6.65625 H 5.546875 V -1.875 l -3.5625,-4.78125 H 0.875 V 0 H 2 V -4.78125 L 5.546875,0 Z m 0,0"
           id="path8702" />
      </g>
    </g>
    <g
       style="fill:#211e1e;fill-opacity:1"
       id="g1408"
       transform="matrix(0.35277777,0,0,0.35277777,-361.39406,197.37102)">
      <g
         id="use1402"
         transform="translate(278.49704,567.38617)">
        <path
           style="stroke:none"
           d="m 4.015625,-6.65625 h -3.4375 v 1 h 2.3125 v 3.5625 c 0,0.6875 -0.359375,1.0625 -0.953125,1.0625 -0.46875,0 -0.984375,-0.265625 -1.421875,-0.734375 l -0.53125,0.859375 c 0.484375,0.609375 1.15625,0.953125 1.953125,0.953125 1.28125,0 2.078125,-0.765625 2.078125,-2.109375 z m 0,0"
           id="path8738" />
      </g>
      <g
         id="use1404"
         transform="translate(283.24594,567.38617)">
        <path
           style="stroke:none"
           d="M 6.53125,-6.65625 H 5.421875 v 3.890625 c 0,1.140625 -0.6875,1.796875 -1.765625,1.796875 -1.09375,0 -1.796875,-0.671875 -1.796875,-1.796875 V -6.65625 H 0.75 v 3.890625 c 0,1.75 1.09375,2.8125 2.890625,2.8125 1.796875,0 2.890625,-1.0625 2.890625,-2.8125 z m 0,0"
           id="path8642" />
      </g>
      <g
         id="use1406"
         transform="translate(290.51675,567.38617)">
        <path
           style="stroke:none"
           d="M 2,-1.015625 V -6.65625 H 0.875 V 0 h 4 v -1.015625 z m 0,0"
           id="path8634" />
      </g>
    </g>
    <g
       style="fill:#211e1e;fill-opacity:1"
       id="g1412"
       transform="matrix(0.35277777,0,0,0.35277777,-361.39406,197.37102)">
      <g
         id="use1410"
         transform="translate(313.69968,567.38617)">
        <path
           style="stroke:none"
           d="M 5.171875,-1.5 5.8125,0 H 7.015625 L 4.09375,-6.65625 H 2.953125 L 0.015625,0 H 1.1875 l 0.625,-1.5 z M 4.75,-2.5 H 2.234375 L 3.5,-5.46875 Z m 0,0"
           id="path8726" />
      </g>
    </g>
    <g
       style="fill:#211e1e;fill-opacity:1"
       id="g1418"
       transform="matrix(0.35277777,0,0,0.35277777,-361.39406,197.37102)">
      <g
         id="use1414"
         transform="translate(320.53275,567.38617)">
        <path
           style="stroke:none"
           d="M 6.53125,-6.65625 H 5.421875 v 3.890625 c 0,1.140625 -0.6875,1.796875 -1.765625,1.796875 -1.09375,0 -1.796875,-0.671875 -1.796875,-1.796875 V -6.65625 H 0.75 v 3.890625 c 0,1.75 1.09375,2.8125 2.890625,2.8125 1.796875,0 2.890625,-1.0625 2.890625,-2.8125 z m 0,0"
           id="path8646" />
      </g>
      <g
         id="use1416"
         transform="translate(327.80356,567.38617)">
        <path
           style="stroke:none"
           d="m 5.4375,-3.265625 v 1.84375 C 4.953125,-1.125 4.390625,-0.96875 3.90625,-0.96875 c -1.359375,0 -2.4375,-1.03125 -2.4375,-2.359375 0,-1.328125 1.0625,-2.359375 2.421875,-2.359375 0.703125,0 1.40625,0.28125 1.921875,0.765625 L 6.453125,-5.75 c -0.65625,-0.578125 -1.609375,-0.9375 -2.5625,-0.9375 -2.015625,0 -3.5625,1.453125 -3.5625,3.359375 0,1.90625 1.53125,3.375 3.5,3.375 0.90625,0 1.90625,-0.34375 2.578125,-0.859375 v -2.453125 z m 0,0"
           id="path8630" />
      </g>
    </g>
    <g
       style="fill:#211e1e;fill-opacity:1"
       id="g1426"
       transform="matrix(0.35277777,0,0,0.35277777,-361.39406,197.37102)">
      <g
         id="use1420"
         transform="translate(352.29977,567.38617)">
        <path
           style="stroke:none"
           d="m 3.0625,-6.703125 c -1.4375,0 -2.421875,0.703125 -2.421875,1.84375 0,2.375 3.59375,1.546875 3.59375,3.03125 0,0.515625 -0.46875,0.8125 -1.25,0.8125 -0.703125,0 -1.5625,-0.34375 -2.25,-0.96875 L 0.25,-1.015625 c 0.6875,0.625 1.671875,1.046875 2.71875,1.046875 1.46875,0 2.515625,-0.71875 2.515625,-1.921875 0,-2.390625 -3.59375,-1.609375 -3.59375,-3.0625 0,-0.453125 0.4375,-0.703125 1.09375,-0.703125 0.5,0 1.21875,0.1875 1.9375,0.625 l 0.46875,-0.984375 C 4.78125,-6.4375 3.9375,-6.703125 3.0625,-6.703125 Z m 0,0"
           id="path8626" />
      </g>
      <g
         id="use1422"
         transform="translate(358.21921,567.38617)">
        <path
           style="stroke:none"
           d="m 5.640625,-5.65625 v -1 H 0.875 V 0 H 5.75 V -1.015625 H 2 V -2.84375 H 5.25 V -3.859375 H 2 V -5.65625 Z m 0,0"
           id="path8686" />
      </g>
      <g
         id="use1424"
         transform="translate(364.46222,567.38617)">
        <path
           style="stroke:none"
           d="M 0.875,-6.65625 V 0 H 2 v -2 h 1.53125 c 1.671875,0 2.640625,-0.890625 2.640625,-2.390625 0,-1.4375 -0.96875,-2.265625 -2.640625,-2.265625 z m 1.125,1 h 1.484375 c 1.03125,0 1.609375,0.421875 1.609375,1.296875 0,0.90625 -0.578125,1.34375 -1.609375,1.34375 H 2 Z m 0,0"
           id="path8658" />
      </g>
    </g>
    <g
       style="fill:#211e1e;fill-opacity:1"
       id="g1432"
       transform="matrix(0.35277777,0,0,0.35277777,-361.39406,197.37102)">
      <g
         id="use1428"
         transform="translate(389.0632,567.38617)">
        <path
           style="stroke:none"
           d="m 3.859375,-6.6875 c -2,0 -3.53125,1.4375 -3.53125,3.359375 0,1.90625 1.53125,3.375 3.53125,3.375 1.984375,0 3.53125,-1.46875 3.53125,-3.375 0,-1.90625 -1.546875,-3.359375 -3.53125,-3.359375 z m 0,1 c 1.3125,0 2.375,1.03125 2.375,2.359375 0,1.328125 -1.0625,2.359375 -2.375,2.359375 C 2.5625,-0.96875 1.46875,-2 1.46875,-3.328125 1.46875,-4.65625 2.546875,-5.6875 3.859375,-5.6875 Z m 0,0"
           id="path8618" />
      </g>
      <g
         id="use1430"
         transform="translate(396.50534,567.38617)">
        <path
           style="stroke:none"
           d="m 3.828125,-6.6875 c -1.96875,0 -3.5,1.453125 -3.5,3.34375 0,1.921875 1.515625,3.390625 3.453125,3.390625 0.953125,0 1.90625,-0.421875 2.578125,-1.09375 L 5.703125,-1.78125 C 5.203125,-1.296875 4.515625,-1 3.84375,-1 c -1.328125,0 -2.375,-1.03125 -2.375,-2.34375 0,-1.3125 1.046875,-2.34375 2.375,-2.34375 0.671875,0 1.375,0.328125 1.859375,0.84375 l 0.65625,-0.8125 C 5.703125,-6.296875 4.765625,-6.6875 3.828125,-6.6875 Z m 0,0"
           id="path8610" />
      </g>
    </g>
    <g
       style="fill:#211e1e;fill-opacity:1"
       id="g1436"
       transform="matrix(0.35277777,0,0,0.35277777,-361.39406,197.37102)">
      <g
         id="use1434"
         transform="translate(403.13855,567.38617)">
        <path
           style="stroke:none"
           d="m 5.421875,-5.65625 v -1 h -5.34375 v 1 H 2.1875 V 0 h 1.125 v -5.65625 z m 0,0"
           id="path8606" />
      </g>
    </g>
    <g
       style="fill:#211e1e;fill-opacity:1"
       id="g1442"
       transform="matrix(0.35277777,0,0,0.35277777,-361.39406,197.37102)">
      <g
         id="use1438"
         transform="translate(427.92975,567.38617)">
        <path
           style="stroke:none"
           d="M 6.65625,0 V -6.65625 H 5.546875 V -1.875 l -3.5625,-4.78125 H 0.875 V 0 H 2 V -4.78125 L 5.546875,0 Z m 0,0"
           id="path8706" />
      </g>
      <g
         id="use1440"
         transform="translate(435.46704,567.38617)">
        <path
           style="stroke:none"
           d="m 3.859375,-6.6875 c -2,0 -3.53125,1.4375 -3.53125,3.359375 0,1.90625 1.53125,3.375 3.53125,3.375 1.984375,0 3.53125,-1.46875 3.53125,-3.375 0,-1.90625 -1.546875,-3.359375 -3.53125,-3.359375 z m 0,1 c 1.3125,0 2.375,1.03125 2.375,2.359375 0,1.328125 -1.0625,2.359375 -2.375,2.359375 C 2.5625,-0.96875 1.46875,-2 1.46875,-3.328125 1.46875,-4.65625 2.546875,-5.6875 3.859375,-5.6875 Z m 0,0"
           id="path8622" />
      </g>
    </g>
    <g
       style="fill:#211e1e;fill-opacity:1"
       id="g1446"
       transform="matrix(0.35277777,0,0,0.35277777,-361.39406,197.37102)">
      <g
         id="use1444"
         transform="translate(443.08051,567.38617)">
        <path
           style="stroke:none"
           d="m 3.84375,0 2.6875,-6.65625 H 5.359375 L 3.296875,-1.25 1.234375,-6.65625 H 0.03125 L 2.6875,0 Z m 0,0"
           id="path8602" />
      </g>
    </g>
    <g
       style="fill:#211e1e;fill-opacity:1"
       id="g1454"
       transform="matrix(0.35277777,0,0,0.35277777,-361.39406,197.37102)">
      <g
         id="use1448"
         transform="translate(466.98669,567.38617)">
        <path
           style="stroke:none"
           d="M 0.875,-6.65625 V 0 h 2.703125 c 2.015625,0 3.46875,-1.40625 3.46875,-3.328125 0,-1.9375 -1.4375,-3.328125 -3.4375,-3.328125 z m 1.125,1 h 1.59375 c 1.3125,0 2.328125,0.96875 2.328125,2.328125 0,1.359375 -1,2.3125 -2.28125,2.3125 H 2 Z m 0,0"
           id="path8598" />
      </g>
      <g
         id="use1450"
         transform="translate(474.36221,567.38617)">
        <path
           style="stroke:none"
           d="m 5.640625,-5.65625 v -1 H 0.875 V 0 H 5.75 V -1.015625 H 2 V -2.84375 H 5.25 V -3.859375 H 2 V -5.65625 Z m 0,0"
           id="path8690" />
      </g>
      <g
         id="use1452"
         transform="translate(480.60526,567.38617)">
        <path
           style="stroke:none"
           d="m 3.828125,-6.6875 c -1.96875,0 -3.5,1.453125 -3.5,3.34375 0,1.921875 1.515625,3.390625 3.453125,3.390625 0.953125,0 1.90625,-0.421875 2.578125,-1.09375 L 5.703125,-1.78125 C 5.203125,-1.296875 4.515625,-1 3.84375,-1 c -1.328125,0 -2.375,-1.03125 -2.375,-2.34375 0,-1.3125 1.046875,-2.34375 2.375,-2.34375 0.671875,0 1.375,0.328125 1.859375,0.84375 l 0.65625,-0.8125 C 5.703125,-6.296875 4.765625,-6.6875 3.828125,-6.6875 Z m 0,0"
           id="path8614" />
      </g>
    </g>
    <path
       style="fill:#211e1e;fill-opacity:1;fill-rule:nonzero;stroke:none;stroke-width:0.352778"
       d="m -340.19983,387.99917 c 0,0.40928 -0.33211,0.74277 -0.74139,0.74277 -0.41065,0 -0.74276,-0.33349 -0.74276,-0.74277 0,-0.40928 0.33211,-0.74138 0.74276,-0.74138 0.40928,0 0.74139,0.3321 0.74139,0.74138"
       id="path1456" />
    <g
       clip-path="url(#clip2)"
       clip-rule="nonzero"
       id="g1460"
       transform="matrix(0.35277777,0,0,0.35277777,-361.39406,197.37102)">
      <path
         style="fill:#211e1e;fill-opacity:1;fill-rule:nonzero;stroke:none"
         d="m 106.69531,540.36328 c 0,5.80859 -4.70703,10.51563 -10.515622,10.51563 -5.808594,0 -10.515626,-4.70704 -10.515626,-10.51563 0,-5.80469 4.707032,-10.51562 10.515626,-10.51562 5.808592,0 10.515622,4.71093 10.515622,10.51562"
         id="path1458" />
    </g>
    <path
       style="fill:#211e1e;fill-opacity:1;fill-rule:nonzero;stroke:none;stroke-width:0.352778"
       d="m -311.06535,387.99917 c 0,0.81994 -0.66421,1.48415 -1.48415,1.48415 -0.81855,0 -1.48414,-0.66421 -1.48414,-1.48415 0,-0.81855 0.66559,-1.48414 1.48414,-1.48414 0.81994,0 1.48415,0.66559 1.48415,1.48414"
       id="path1462" />
    <path
       style="fill:#211e1e;fill-opacity:1;fill-rule:nonzero;stroke:none;stroke-width:0.352778"
       d="m -298.375,387.99917 c 0,1.02526 -0.83095,1.85484 -1.85483,1.85484 -1.02389,0 -1.85485,-0.82958 -1.85485,-1.85484 0,-1.02388 0.83096,-1.85484 1.85485,-1.85484 1.02388,0 1.85483,0.83096 1.85483,1.85484"
       id="path1464" />
    <path
       style="fill:#211e1e;fill-opacity:1;fill-rule:nonzero;stroke:none;stroke-width:0.352778"
       d="m -285.46553,387.99917 c 0,1.22921 -0.99633,2.22553 -2.22554,2.22553 -1.22921,0 -2.22553,-0.99632 -2.22553,-2.22553 0,-1.22921 0.99632,-2.22553 2.22553,-2.22553 1.22921,0 2.22554,0.99632 2.22554,2.22553"
       id="path1466" />
    <path
       style="fill:#211e1e;fill-opacity:1;fill-rule:nonzero;stroke:none;stroke-width:0.352778"
       d="m -270.33743,387.99917 c 0,1.84382 -1.49379,3.33899 -3.33761,3.33899 -1.84382,0 -3.33899,-1.49517 -3.33899,-3.33899 0,-1.84381 1.49517,-3.33761 3.33899,-3.33761 1.84382,0 3.33761,1.4938 3.33761,3.33761"
       id="path1468" />
    <path
       style="fill:#211e1e;fill-opacity:1;fill-rule:nonzero;stroke:none;stroke-width:0.352778"
       d="m -259.75685,387.99917 c 0,0.20533 -0.16537,0.37069 -0.3707,0.37069 -0.20532,0 -0.37069,-0.16536 -0.37069,-0.37069 0,-0.20394 0.16537,-0.37069 0.37069,-0.37069 0.20533,0 0.3707,0.16675 0.3707,0.37069"
       id="path1470" />
    <path
       style="fill:#211e1e;fill-opacity:1;fill-rule:nonzero;stroke:none;stroke-width:0.352778"
       d="m -245.86623,387.99917 c 0,0.61461 -0.49885,1.11346 -1.11345,1.11346 -0.61461,0 -1.11208,-0.49885 -1.11208,-1.11346 0,-0.6146 0.49747,-1.11207 1.11208,-1.11207 0.6146,0 1.11345,0.49747 1.11345,1.11207"
       id="path1472" />
    <path
       style="fill:#211e1e;fill-opacity:1;fill-rule:nonzero;stroke:none;stroke-width:0.352778"
       d="m -231.97698,387.99917 c 0,1.02526 -0.83096,1.85484 -1.85484,1.85484 -1.02388,0 -1.85484,-0.82958 -1.85484,-1.85484 0,-1.02388 0.83096,-1.85484 1.85484,-1.85484 1.02388,0 1.85484,0.83096 1.85484,1.85484"
       id="path1474" />
    <path
       style="fill:#211e1e;fill-opacity:1;fill-rule:nonzero;stroke:none;stroke-width:0.352778"
       d="m -219.90124,387.99917 c 0,0.61461 -0.49884,1.11346 -1.11345,1.11346 -0.61461,0 -1.11208,-0.49885 -1.11208,-1.11346 0,-0.6146 0.49747,-1.11207 1.11208,-1.11207 0.61461,0 1.11345,0.49747 1.11345,1.11207"
       id="path1476" />
    <path
       style="fill:#211e1e;fill-opacity:1;fill-rule:nonzero;stroke:none;stroke-width:0.352778"
       d="m -205.11351,387.99917 c 0,0.81994 -0.66421,1.48415 -1.48414,1.48415 -0.81994,0 -1.48415,-0.66421 -1.48415,-1.48415 0,-0.81855 0.66421,-1.48414 1.48415,-1.48414 0.81993,0 1.48414,0.66559 1.48414,1.48414"
       id="path1478" />
    <path
       style="fill:#211e1e;fill-opacity:1;fill-rule:nonzero;stroke:none;stroke-width:0.352778"
       d="m -190.31476,387.99917 c 0,1.43454 -1.16306,2.59623 -2.59622,2.59623 -1.43454,0 -2.5976,-1.16169 -2.5976,-2.59623 0,-1.43316 1.16306,-2.59622 2.5976,-2.59622 1.43316,0 2.59622,1.16306 2.59622,2.59622"
       id="path1480" />
    <g
       style="fill:#d15426;fill-opacity:1"
       id="g1844"
       transform="matrix(0.35277777,0,0,0.35277777,-361.39406,197.37102)">
      <g
         id="use1838"
         transform="translate(452.0076,515.76599)">
        <path
           style="stroke:none"
           d="m 4.6875,0.1875 c 3,0 4.46875,-1.5 4.46875,-3.265625 0,-3.859375 -6.109375,-2.515625 -6.109375,-4.453125 0,-0.65625 0.546875,-1.203125 2,-1.203125 0.921875,0 1.921875,0.28125 2.90625,0.828125 l 0.75,-1.84375 C 7.71875,-10.359375 6.375,-10.6875 5.0625,-10.6875 c -3,0 -4.4375,1.5 -4.4375,3.28125 0,3.890625 6.109375,2.546875 6.109375,4.515625 0,0.640625 -0.578125,1.125 -2.03125,1.125 -1.25,0 -2.578125,-0.453125 -3.453125,-1.09375 L 0.421875,-1.03125 C 1.34375,-0.3125 3.03125,0.1875 4.6875,0.1875 Z m 0,0"
           id="path8594" />
      </g>
      <g
         id="use1840"
         transform="translate(461.57761,515.76599)">
        <path
           style="stroke:none"
           d="m 2.25,-9.1875 c 0.875,0 1.453125,-0.578125 1.453125,-1.359375 0,-0.71875 -0.578125,-1.265625 -1.453125,-1.265625 -0.875,0 -1.453125,0.578125 -1.453125,1.3125 0,0.734375 0.578125,1.3125 1.453125,1.3125 z M 1.078125,0 h 2.34375 v -8.0625 h -2.34375 z m 0,0"
           id="path8586" />
      </g>
      <g
         id="use1842"
         transform="translate(466.09259,515.76599)">
        <path
           style="stroke:none"
           d="M 3.484375,-1.796875 7.59375,-6.65625 V -8.0625 H 0.625 v 1.796875 H 4.640625 L 0.53125,-1.40625 V 0 h 7.1875 v -1.796875 z m 0,0"
           id="path8582" />
      </g>
    </g>
    <g
       style="fill:#d15426;fill-opacity:1"
       id="g1848"
       transform="matrix(0.35277777,0,0,0.35277777,-361.39406,197.37102)">
      <g
         id="use1846"
         transform="translate(474.1326,515.76599)">
        <path
           style="stroke:none"
           d="m 8.984375,-4 c 0,-2.59375 -1.828125,-4.1875 -4.203125,-4.1875 -2.453125,0 -4.296875,1.734375 -4.296875,4.15625 0,2.390625 1.8125,4.15625 4.59375,4.15625 1.46875,0 2.59375,-0.453125 3.34375,-1.3125 l -1.25,-1.34375 C 6.609375,-2.015625 6,-1.75 5.140625,-1.75 3.921875,-1.75 3.0625,-2.375 2.828125,-3.375 H 8.9375 C 8.953125,-3.5625 8.984375,-3.828125 8.984375,-4 Z m -4.1875,-2.421875 c 1.046875,0 1.8125,0.65625 1.984375,1.6875 H 2.8125 c 0.15625,-1.046875 0.921875,-1.6875 1.984375,-1.6875 z m 0,0"
           id="path8590" />
      </g>
    </g>
  </g>
</svg>
