<?xml version="1.0" encoding="UTF-8" standalone="no"?>
<!-- Created with Inkscape (http://www.inkscape.org/) -->

<svg
   width="167.53169mm"
   height="41.824501mm"
   viewBox="0 0 167.53169 41.824501"
   version="1.1"
   id="svg3837"
   xmlns="http://www.w3.org/2000/svg"
   xmlns:svg="http://www.w3.org/2000/svg">
  <defs
     id="defs3834">
    <clipPath
       id="clip1">
      <path
         d="M 551,187.82422 H 992 V 290 H 551 Z m 0,0"
         id="path679" />
    </clipPath>
  </defs>
  <g
     id="layer1"
     transform="translate(-897.84431,41.047842)">
    <path
       style="fill:none;stroke:#211e1e;stroke-width:0.245764;stroke-linecap:butt;stroke-linejoin:miter;stroke-miterlimit:10;stroke-opacity:1"
       d="M 905.89154,-35.121956 V -1.6921288"
       id="path1042" />
    <path
       style="fill:none;stroke:#211e1e;stroke-width:0.245764;stroke-linecap:butt;stroke-linejoin:miter;stroke-miterlimit:10;stroke-opacity:1"
       d="M 902.42576,-3.4835783 H 1065.376"
       id="path1044" />
    <path
       style="fill:none;stroke:#211e1e;stroke-width:0.245764;stroke-linecap:butt;stroke-linejoin:miter;stroke-miterlimit:10;stroke-opacity:1"
       d="m 902.7496,-19.303456 h 3.14193"
       id="path1046" />
    <path
       style="fill:none;stroke:#211e1e;stroke-width:0.245764;stroke-linecap:butt;stroke-linejoin:miter;stroke-miterlimit:10;stroke-opacity:1"
       d="m 902.7496,-35.121956 h 3.14193"
       id="path1048" />
    <g
       style="fill:#211e1e;fill-opacity:1"
       id="g1052"
       transform="matrix(0.35277777,0,0,0.35277777,715.375,-103.20531)">
      <g
         id="use1050"
         transform="translate(556.57935,294.70517)">
        <path
           style="stroke:none"
           d="m 3.953125,-6.5625 h -3.375 v 1 H 2.84375 v 3.5 c 0,0.671875 -0.34375,1.046875 -0.9375,1.046875 C 1.453125,-1.015625 0.9375,-1.28125 0.5,-1.75 l -0.515625,0.84375 C 0.46875,-0.296875 1.125,0.046875 1.90625,0.046875 c 1.265625,0 2.046875,-0.75 2.046875,-2.078125 z m 0,0"
           id="path4316" />
      </g>
    </g>
    <g
       style="fill:#211e1e;fill-opacity:1"
       id="g1058"
       transform="matrix(0.35277777,0,0,0.35277777,715.375,-103.20531)">
      <g
         id="use1054"
         transform="translate(561.06708,294.70517)">
        <path
           style="stroke:none"
           d="M 5.09375,-1.484375 5.734375,0 H 6.90625 L 4.046875,-6.5625 H 2.90625 L 0.015625,0 H 1.15625 L 1.796875,-1.484375 Z M 4.671875,-2.46875 H 2.203125 L 3.4375,-5.375 Z m 0,0"
           id="path4296" />
      </g>
      <g
         id="use1056"
         transform="translate(567.98132,294.70517)">
        <path
           style="stroke:none"
           d="M 6.546875,0 V -6.5625 H 5.46875 v 4.71875 L 1.953125,-6.5625 H 0.859375 V 0 H 1.96875 V -4.703125 L 5.46875,0 Z m 0,0"
           id="path4364" />
      </g>
    </g>
    <g
       style="fill:#211e1e;fill-opacity:1"
       id="g1066"
       transform="matrix(0.35277777,0,0,0.35277777,715.375,-103.20531)">
      <g
         id="use1060"
         transform="translate(593.60529,294.70517)">
        <path
           style="stroke:none"
           d="m 5.265625,-5.5625 v -1 H 0.859375 V 0 H 1.96875 V -2.6875 H 4.953125 V -3.671875 H 1.96875 V -5.5625 Z m 0,0"
           id="path4360" />
      </g>
      <g
         id="use1062"
         transform="translate(598.99243,294.70517)">
        <path
           style="stroke:none"
           d="m 5.546875,-5.5625 v -1 h -4.6875 V 0 H 5.65625 v -1 h -3.6875 v -1.796875 h 3.203125 v -1 H 1.96875 V -5.5625 Z m 0,0"
           id="path4348" />
      </g>
      <g
         id="use1064"
         transform="translate(605.13843,294.70517)">
        <path
           style="stroke:none"
           d="M 0.859375,-6.5625 V 0 H 3.78125 c 1.484375,0 2.390625,-0.671875 2.390625,-1.796875 0,-0.890625 -0.53125,-1.515625 -1.40625,-1.65625 C 5.46875,-3.625 5.921875,-4.1875 5.921875,-4.921875 5.921875,-5.9375 5.078125,-6.5625 3.71875,-6.5625 Z m 1.109375,0.984375 h 1.6875 c 0.703125,0 1.125,0.296875 1.125,0.859375 0,0.546875 -0.421875,0.875 -1.125,0.875 h -1.6875 z m 0,2.703125 h 1.6875 c 0.859375,0 1.375,0.359375 1.375,0.9375 0,0.609375 -0.515625,0.953125 -1.375,0.953125 h -1.6875 z m 0,0"
           id="path4344" />
      </g>
    </g>
    <g
       style="fill:#211e1e;fill-opacity:1"
       id="g1074"
       transform="matrix(0.35277777,0,0,0.35277777,715.375,-103.20531)">
      <g
         id="use1068"
         transform="translate(630.80933,294.70517)">
        <path
           style="stroke:none"
           d="M 7.796875,0 V -6.5625 H 6.5 L 4.34375,-2.203125 2.171875,-6.5625 h -1.3125 V 0 H 1.90625 v -4.90625 l 2.0625,4.21875 H 4.703125 L 6.765625,-4.90625 6.78125,0 Z m 0,0"
           id="path4336" />
      </g>
      <g
         id="use1070"
         transform="translate(639.47552,294.70517)">
        <path
           style="stroke:none"
           d="M 5.09375,-1.484375 5.734375,0 H 6.90625 L 4.046875,-6.5625 H 2.90625 L 0.015625,0 H 1.15625 L 1.796875,-1.484375 Z M 4.671875,-2.46875 H 2.203125 L 3.4375,-5.375 Z m 0,0"
           id="path4300" />
      </g>
      <g
         id="use1072"
         transform="translate(646.38983,294.70517)">
        <path
           style="stroke:none"
           d="m 5.03125,0 h 1.25 L 4.8125,-2.1875 C 5.6875,-2.53125 6.171875,-3.265625 6.171875,-4.328125 6.171875,-5.75 5.203125,-6.5625 3.53125,-6.5625 H 0.859375 V 0 H 1.96875 v -1.984375 h 1.5625 c 0.09375,0 0.203125,0 0.296875,0 z M 1.96875,-2.96875 V -5.5625 h 1.5625 c 1,0 1.59375,0.40625 1.59375,1.265625 0,0.890625 -0.59375,1.328125 -1.59375,1.328125 z m 0,0"
           id="path4328" />
      </g>
    </g>
    <g
       style="fill:#211e1e;fill-opacity:1"
       id="g1082"
       transform="matrix(0.35277777,0,0,0.35277777,715.375,-103.20531)">
      <g
         id="use1076"
         transform="translate(668.67841,294.70517)">
        <path
           style="stroke:none"
           d="M 5.09375,-1.484375 5.734375,0 H 6.90625 L 4.046875,-6.5625 H 2.90625 L 0.015625,0 H 1.15625 L 1.796875,-1.484375 Z M 4.671875,-2.46875 H 2.203125 L 3.4375,-5.375 Z m 0,0"
           id="path4304" />
      </g>
      <g
         id="use1078"
         transform="translate(675.59271,294.70517)">
        <path
           style="stroke:none"
           d="M 0.859375,-6.5625 V 0 H 1.96875 v -1.984375 h 1.515625 c 1.640625,0 2.59375,-0.859375 2.59375,-2.34375 C 6.078125,-5.75 5.125,-6.5625 3.484375,-6.5625 Z m 1.109375,1 H 3.4375 c 1,0 1.578125,0.40625 1.578125,1.265625 0,0.890625 -0.578125,1.328125 -1.578125,1.328125 H 1.96875 Z m 0,0"
           id="path4448" />
      </g>
      <g
         id="use1080"
         transform="translate(681.89795,294.70517)">
        <path
           style="stroke:none"
           d="m 5.03125,0 h 1.25 L 4.8125,-2.1875 C 5.6875,-2.53125 6.171875,-3.265625 6.171875,-4.328125 6.171875,-5.75 5.203125,-6.5625 3.53125,-6.5625 H 0.859375 V 0 H 1.96875 v -1.984375 h 1.5625 c 0.09375,0 0.203125,0 0.296875,0 z M 1.96875,-2.96875 V -5.5625 h 1.5625 c 1,0 1.59375,0.40625 1.59375,1.265625 0,0.890625 -0.59375,1.328125 -1.59375,1.328125 z m 0,0"
           id="path4332" />
      </g>
    </g>
    <g
       style="fill:#211e1e;fill-opacity:1"
       id="g1088"
       transform="matrix(0.35277777,0,0,0.35277777,715.375,-103.20531)">
      <g
         id="use1084"
         transform="translate(704.03668,294.70517)">
        <path
           style="stroke:none"
           d="M 7.796875,0 V -6.5625 H 6.5 L 4.34375,-2.203125 2.171875,-6.5625 h -1.3125 V 0 H 1.90625 v -4.90625 l 2.0625,4.21875 H 4.703125 L 6.765625,-4.90625 6.78125,0 Z m 0,0"
           id="path4340" />
      </g>
      <g
         id="use1086"
         transform="translate(712.70294,294.70517)">
        <path
           style="stroke:none"
           d="M 5.09375,-1.484375 5.734375,0 H 6.90625 L 4.046875,-6.5625 H 2.90625 L 0.015625,0 H 1.15625 L 1.796875,-1.484375 Z M 4.671875,-2.46875 H 2.203125 L 3.4375,-5.375 Z m 0,0"
           id="path4308" />
      </g>
    </g>
    <g
       style="fill:#211e1e;fill-opacity:1"
       id="g1092"
       transform="matrix(0.35277777,0,0,0.35277777,715.375,-103.20531)">
      <g
         id="use1090"
         transform="translate(719.15814,294.70517)">
        <path
           style="stroke:none"
           d="m 3.546875,-2.1875 2.421875,-4.375 h -1.125 L 3,-3.359375 1.125,-6.5625 H 0.015625 l 2.4375,4.421875 V 0 h 1.09375 z m 0,0"
           id="path4444" />
      </g>
    </g>
    <g
       style="fill:#211e1e;fill-opacity:1"
       id="g1100"
       transform="matrix(0.35277777,0,0,0.35277777,715.375,-103.20531)">
      <g
         id="use1094"
         transform="translate(741.64362,294.70517)">
        <path
           style="stroke:none"
           d="m 3.953125,-6.5625 h -3.375 v 1 H 2.84375 v 3.5 c 0,0.671875 -0.34375,1.046875 -0.9375,1.046875 C 1.453125,-1.015625 0.9375,-1.28125 0.5,-1.75 l -0.515625,0.84375 C 0.46875,-0.296875 1.125,0.046875 1.90625,0.046875 c 1.265625,0 2.046875,-0.75 2.046875,-2.078125 z m 0,0"
           id="path4320" />
      </g>
      <g
         id="use1096"
         transform="translate(746.31873,294.70517)">
        <path
           style="stroke:none"
           d="M 6.4375,-6.5625 H 5.328125 v 3.84375 c 0,1.109375 -0.65625,1.765625 -1.734375,1.765625 -1.078125,0 -1.75,-0.65625 -1.75,-1.765625 V -6.5625 H 0.734375 v 3.84375 C 0.734375,-1 1.8125,0.046875 3.59375,0.046875 5.359375,0.046875 6.4375,-1 6.4375,-2.71875 Z m 0,0"
           id="path4432" />
      </g>
      <g
         id="use1098"
         transform="translate(753.47656,294.70517)">
        <path
           style="stroke:none"
           d="M 6.546875,0 V -6.5625 H 5.46875 v 4.71875 L 1.953125,-6.5625 H 0.859375 V 0 H 1.96875 V -4.703125 L 5.46875,0 Z m 0,0"
           id="path4368" />
      </g>
    </g>
    <g
       style="fill:#211e1e;fill-opacity:1"
       id="g1108"
       transform="matrix(0.35277777,0,0,0.35277777,715.375,-103.20531)">
      <g
         id="use1102"
         transform="translate(782.16418,294.70517)">
        <path
           style="stroke:none"
           d="m 3.953125,-6.5625 h -3.375 v 1 H 2.84375 v 3.5 c 0,0.671875 -0.34375,1.046875 -0.9375,1.046875 C 1.453125,-1.015625 0.9375,-1.28125 0.5,-1.75 l -0.515625,0.84375 C 0.46875,-0.296875 1.125,0.046875 1.90625,0.046875 c 1.265625,0 2.046875,-0.75 2.046875,-2.078125 z m 0,0"
           id="path4324" />
      </g>
      <g
         id="use1104"
         transform="translate(786.83929,294.70517)">
        <path
           style="stroke:none"
           d="M 6.4375,-6.5625 H 5.328125 v 3.84375 c 0,1.109375 -0.65625,1.765625 -1.734375,1.765625 -1.078125,0 -1.75,-0.65625 -1.75,-1.765625 V -6.5625 H 0.734375 v 3.84375 C 0.734375,-1 1.8125,0.046875 3.59375,0.046875 5.359375,0.046875 6.4375,-1 6.4375,-2.71875 Z m 0,0"
           id="path4436" />
      </g>
      <g
         id="use1106"
         transform="translate(793.99713,294.70517)">
        <path
           style="stroke:none"
           d="M 1.96875,-1 V -6.5625 H 0.859375 V 0 H 4.8125 v -1 z m 0,0"
           id="path4428" />
      </g>
    </g>
    <g
       style="fill:#211e1e;fill-opacity:1"
       id="g1112"
       transform="matrix(0.35277777,0,0,0.35277777,715.375,-103.20531)">
      <g
         id="use1110"
         transform="translate(816.81982,294.70517)">
        <path
           style="stroke:none"
           d="M 5.09375,-1.484375 5.734375,0 H 6.90625 L 4.046875,-6.5625 H 2.90625 L 0.015625,0 H 1.15625 L 1.796875,-1.484375 Z M 4.671875,-2.46875 H 2.203125 L 3.4375,-5.375 Z m 0,0"
           id="path4312" />
      </g>
    </g>
    <g
       style="fill:#211e1e;fill-opacity:1"
       id="g1118"
       transform="matrix(0.35277777,0,0,0.35277777,715.375,-103.20531)">
      <g
         id="use1114"
         transform="translate(823.54669,294.70517)">
        <path
           style="stroke:none"
           d="M 6.4375,-6.5625 H 5.328125 v 3.84375 c 0,1.109375 -0.65625,1.765625 -1.734375,1.765625 -1.078125,0 -1.75,-0.65625 -1.75,-1.765625 V -6.5625 H 0.734375 v 3.84375 C 0.734375,-1 1.8125,0.046875 3.59375,0.046875 5.359375,0.046875 6.4375,-1 6.4375,-2.71875 Z m 0,0"
           id="path4440" />
      </g>
      <g
         id="use1116"
         transform="translate(830.70453,294.70517)">
        <path
           style="stroke:none"
           d="m 5.359375,-3.21875 v 1.828125 c -0.46875,0.28125 -1.03125,0.4375 -1.515625,0.4375 -1.34375,0 -2.40625,-1.015625 -2.40625,-2.328125 0,-1.296875 1.0625,-2.328125 2.390625,-2.328125 0.6875,0 1.390625,0.28125 1.90625,0.75 l 0.625,-0.8125 c -0.65625,-0.5625 -1.59375,-0.921875 -2.53125,-0.921875 -1.984375,0 -3.515625,1.4375 -3.515625,3.3125 0,1.875 1.515625,3.328125 3.453125,3.328125 0.90625,0 1.890625,-0.34375 2.546875,-0.859375 v -2.40625 z m 0,0"
           id="path4424" />
      </g>
    </g>
    <g
       style="fill:#211e1e;fill-opacity:1"
       id="g1126"
       transform="matrix(0.35277777,0,0,0.35277777,715.375,-103.20531)">
      <g
         id="use1120"
         transform="translate(854.82007,294.70517)">
        <path
           style="stroke:none"
           d="m 3.015625,-6.609375 c -1.421875,0 -2.390625,0.703125 -2.390625,1.828125 0,2.328125 3.546875,1.515625 3.546875,2.984375 C 4.171875,-1.296875 3.71875,-1 2.9375,-1 2.234375,-1 1.390625,-1.34375 0.71875,-1.953125 L 0.25,-1 c 0.671875,0.609375 1.640625,1.03125 2.671875,1.03125 1.453125,0 2.484375,-0.71875 2.484375,-1.890625 0,-2.359375 -3.546875,-1.59375 -3.546875,-3.03125 0,-0.4375 0.421875,-0.671875 1.078125,-0.671875 0.5,0 1.203125,0.171875 1.921875,0.609375 L 5.3125,-5.9375 C 4.703125,-6.34375 3.875,-6.609375 3.015625,-6.609375 Z m 0,0"
           id="path4420" />
      </g>
      <g
         id="use1122"
         transform="translate(860.64758,294.70517)">
        <path
           style="stroke:none"
           d="m 5.546875,-5.5625 v -1 h -4.6875 V 0 H 5.65625 v -1 h -3.6875 v -1.796875 h 3.203125 v -1 H 1.96875 V -5.5625 Z m 0,0"
           id="path4352" />
      </g>
      <g
         id="use1124"
         transform="translate(866.79358,294.70517)">
        <path
           style="stroke:none"
           d="M 0.859375,-6.5625 V 0 H 1.96875 v -1.984375 h 1.515625 c 1.640625,0 2.59375,-0.859375 2.59375,-2.34375 C 6.078125,-5.75 5.125,-6.5625 3.484375,-6.5625 Z m 1.109375,1 H 3.4375 c 1,0 1.578125,0.40625 1.578125,1.265625 0,0.890625 -0.578125,1.328125 -1.578125,1.328125 H 1.96875 Z m 0,0"
           id="path4452" />
      </g>
    </g>
    <g
       style="fill:#211e1e;fill-opacity:1"
       id="g1132"
       transform="matrix(0.35277777,0,0,0.35277777,715.375,-103.20531)">
      <g
         id="use1128"
         transform="translate(891.01227,294.70517)">
        <path
           style="stroke:none"
           d="m 3.796875,-6.59375 c -1.953125,0 -3.484375,1.421875 -3.484375,3.3125 0,1.875 1.53125,3.328125 3.484375,3.328125 1.953125,0 3.484375,-1.453125 3.484375,-3.328125 0,-1.875 -1.53125,-3.3125 -3.484375,-3.3125 z m 0.015625,1 c 1.28125,0 2.328125,1.015625 2.328125,2.3125 0,1.296875 -1.046875,2.328125 -2.328125,2.328125 -1.296875,0 -2.375,-1.03125 -2.375,-2.328125 0,-1.296875 1.078125,-2.3125 2.375,-2.3125 z m 0,0"
           id="path4412" />
      </g>
      <g
         id="use1130"
         transform="translate(898.33875,294.70517)">
        <path
           style="stroke:none"
           d="m 3.765625,-6.59375 c -1.9375,0 -3.453125,1.4375 -3.453125,3.296875 0,1.890625 1.5,3.34375 3.421875,3.34375 0.921875,0 1.875,-0.421875 2.53125,-1.078125 L 5.609375,-1.765625 C 5.125,-1.28125 4.4375,-0.984375 3.78125,-0.984375 2.46875,-0.984375 1.4375,-2 1.4375,-3.296875 c 0,-1.296875 1.03125,-2.3125 2.34375,-2.3125 0.671875,0 1.359375,0.328125 1.828125,0.84375 l 0.65625,-0.8125 c -0.640625,-0.625 -1.5625,-1.015625 -2.5,-1.015625 z m 0,0"
           id="path4404" />
      </g>
    </g>
    <g
       style="fill:#211e1e;fill-opacity:1"
       id="g1136"
       transform="matrix(0.35277777,0,0,0.35277777,715.375,-103.20531)">
      <g
         id="use1134"
         transform="translate(904.8689,294.70517)">
        <path
           style="stroke:none"
           d="m 5.34375,-5.5625 v -1 H 0.078125 v 1 H 2.15625 V 0 h 1.109375 v -5.5625 z m 0,0"
           id="path4400" />
      </g>
    </g>
    <g
       style="fill:#211e1e;fill-opacity:1"
       id="g1142"
       transform="matrix(0.35277777,0,0,0.35277777,715.375,-103.20531)">
      <g
         id="use1138"
         transform="translate(929.27484,294.70517)">
        <path
           style="stroke:none"
           d="M 6.546875,0 V -6.5625 H 5.46875 v 4.71875 L 1.953125,-6.5625 H 0.859375 V 0 H 1.96875 V -4.703125 L 5.46875,0 Z m 0,0"
           id="path4372" />
      </g>
      <g
         id="use1140"
         transform="translate(936.69507,294.70517)">
        <path
           style="stroke:none"
           d="m 3.796875,-6.59375 c -1.953125,0 -3.484375,1.421875 -3.484375,3.3125 0,1.875 1.53125,3.328125 3.484375,3.328125 1.953125,0 3.484375,-1.453125 3.484375,-3.328125 0,-1.875 -1.53125,-3.3125 -3.484375,-3.3125 z m 0.015625,1 c 1.28125,0 2.328125,1.015625 2.328125,2.3125 0,1.296875 -1.046875,2.328125 -2.328125,2.328125 -1.296875,0 -2.375,-1.03125 -2.375,-2.328125 0,-1.296875 1.078125,-2.3125 2.375,-2.3125 z m 0,0"
           id="path4416" />
      </g>
    </g>
    <g
       style="fill:#211e1e;fill-opacity:1"
       id="g1146"
       transform="matrix(0.35277777,0,0,0.35277777,715.375,-103.20531)">
      <g
         id="use1144"
         transform="translate(944.19019,294.70517)">
        <path
           style="stroke:none"
           d="M 3.78125,0 6.4375,-6.5625 H 5.28125 L 3.25,-1.234375 1.21875,-6.5625 H 0.03125 L 2.640625,0 Z m 0,0"
           id="path4396" />
      </g>
    </g>
    <g
       style="fill:#211e1e;fill-opacity:1"
       id="g1154"
       transform="matrix(0.35277777,0,0,0.35277777,715.375,-103.20531)">
      <g
         id="use1148"
         transform="translate(966.685,294.70517)">
        <path
           style="stroke:none"
           d="M 0.859375,-6.5625 V 0 H 3.53125 c 1.984375,0 3.421875,-1.390625 3.421875,-3.28125 0,-1.90625 -1.4375,-3.28125 -3.40625,-3.28125 z m 1.109375,1 h 1.5625 c 1.296875,0 2.296875,0.953125 2.296875,2.296875 C 5.828125,-1.9375 4.859375,-1 3.578125,-1 H 1.96875 Z m 0,0"
           id="path4392" />
      </g>
      <g
         id="use1150"
         transform="translate(973.94592,294.70517)">
        <path
           style="stroke:none"
           d="m 5.546875,-5.5625 v -1 h -4.6875 V 0 H 5.65625 v -1 h -3.6875 v -1.796875 h 3.203125 v -1 H 1.96875 V -5.5625 Z m 0,0"
           id="path4356" />
      </g>
      <g
         id="use1152"
         transform="translate(980.09192,294.70517)">
        <path
           style="stroke:none"
           d="m 3.765625,-6.59375 c -1.9375,0 -3.453125,1.4375 -3.453125,3.296875 0,1.890625 1.5,3.34375 3.421875,3.34375 0.921875,0 1.875,-0.421875 2.53125,-1.078125 L 5.609375,-1.765625 C 5.125,-1.28125 4.4375,-0.984375 3.78125,-0.984375 2.46875,-0.984375 1.4375,-2 1.4375,-3.296875 c 0,-1.296875 1.03125,-2.3125 2.34375,-2.3125 0.671875,0 1.359375,0.328125 1.828125,0.84375 l 0.65625,-0.8125 c -0.640625,-0.625 -1.5625,-1.015625 -2.5,-1.015625 z m 0,0"
           id="path4408" />
      </g>
    </g>
    <path
       style="fill:#f05928;fill-opacity:1;fill-rule:nonzero;stroke:none;stroke-width:0.352778"
       d="m 916.13862,-8.8000491 c 0,0.6049575 -0.4892,1.0955408 -1.09554,1.0955408 -0.60495,0 -1.09554,-0.4905833 -1.09554,-1.0955408 0,-0.6049609 0.49059,-1.0955407 1.09554,-1.0955407 0.60634,0 1.09554,0.4905798 1.09554,1.0955407"
       id="path1156" />
    <path
       style="fill:#f05928;fill-opacity:1;fill-rule:nonzero;stroke:none;stroke-width:0.352778"
       d="m 929.08254,-35.121956 c 0,0.604958 -0.49059,1.095541 -1.09554,1.095541 -0.60496,0 -1.09554,-0.490583 -1.09554,-1.095541 0,-0.604961 0.49058,-1.09554 1.09554,-1.09554 0.60495,0 1.09554,0.490579 1.09554,1.09554"
       id="path1158" />
    <path
       style="fill:#f05928;fill-opacity:1;fill-rule:nonzero;stroke:none;stroke-width:0.352778"
       d="m 942.94973,-16.851926 c 0,0.604957 -0.4892,1.09554 -1.09554,1.09554 -0.60495,0 -1.09554,-0.490583 -1.09554,-1.09554 0,-0.604958 0.49059,-1.095541 1.09554,-1.095541 0.60634,0 1.09554,0.490583 1.09554,1.095541"
       id="path1160" />
    <path
       style="fill:#f05928;fill-opacity:1;fill-rule:nonzero;stroke:none;stroke-width:0.352778"
       d="m 955.89365,-19.73616 c 0,0.603582 -0.49058,1.095541 -1.09554,1.095541 -0.60496,0 -1.09554,-0.491959 -1.09554,-1.095541 0,-0.604961 0.49058,-1.095541 1.09554,-1.095541 0.60496,0 1.09554,0.49058 1.09554,1.095541"
       id="path1162" />
    <path
       style="fill:#f05928;fill-opacity:1;fill-rule:nonzero;stroke:none;stroke-width:0.352778"
       d="m 968.56195,-23.0655 c 0,0.604957 -0.49058,1.095541 -1.09554,1.095541 -0.60496,0 -1.09554,-0.490584 -1.09554,-1.095541 0,-0.604961 0.49058,-1.095541 1.09554,-1.095541 0.60496,0 1.09554,0.49058 1.09554,1.095541"
       id="path1164" />
    <path
       style="fill:#f05928;fill-opacity:1;fill-rule:nonzero;stroke:none;stroke-width:0.352778"
       d="m 981.50586,-32.5905 c 0,0.604958 -0.49058,1.095541 -1.09554,1.095541 -0.60633,0 -1.09554,-0.490583 -1.09554,-1.095541 0,-0.604961 0.48921,-1.095541 1.09554,-1.095541 0.60496,0 1.09554,0.49058 1.09554,1.095541"
       id="path1166" />
    <path
       style="fill:#f05928;fill-opacity:1;fill-rule:nonzero;stroke:none;stroke-width:0.352778"
       d="m 995.37306,-6.2382757 c 0,0.6049575 -0.49058,1.0955408 -1.09554,1.0955408 -0.60496,0 -1.09554,-0.4905833 -1.09554,-1.0955408 0,-0.6049609 0.49058,-1.0955407 1.09554,-1.0955407 0.60496,0 1.09554,0.4905798 1.09554,1.0955407"
       id="path1168" />
    <path
       style="fill:#f05928;fill-opacity:1;fill-rule:nonzero;stroke:none;stroke-width:0.352778"
       d="m 1008.317,-12.432559 c 0,0.604961 -0.4906,1.09554 -1.0956,1.09554 -0.6063,0 -1.0955,-0.490579 -1.0955,-1.09554 0,-0.604958 0.4892,-1.095541 1.0955,-1.095541 0.605,0 1.0956,0.490583 1.0956,1.095541"
       id="path1170" />
    <path
       style="fill:#f05928;fill-opacity:1;fill-rule:nonzero;stroke:none;stroke-width:0.352778"
       d="m 1021.2595,-19.672769 c 0,0.604957 -0.4906,1.095537 -1.0955,1.095537 -0.605,0 -1.0956,-0.49058 -1.0956,-1.095537 0,-0.604961 0.4906,-1.095541 1.0956,-1.095541 0.6049,0 1.0955,0.49058 1.0955,1.095541"
       id="path1172" />
    <path
       style="fill:#f05928;fill-opacity:1;fill-rule:nonzero;stroke:none;stroke-width:0.352778"
       d="m 1034.2034,-12.432559 c 0,0.604961 -0.4906,1.09554 -1.0955,1.09554 -0.605,0 -1.0956,-0.490579 -1.0956,-1.09554 0,-0.604958 0.4906,-1.095541 1.0956,-1.095541 0.6049,0 1.0955,0.490583 1.0955,1.095541"
       id="path1174" />
    <path
       style="fill:#f05928;fill-opacity:1;fill-rule:nonzero;stroke:none;stroke-width:0.352778"
       d="m 1048.0706,-16.851926 c 0,0.604957 -0.4906,1.09554 -1.0955,1.09554 -0.605,0 -1.0956,-0.490583 -1.0956,-1.09554 0,-0.604958 0.4906,-1.095541 1.0956,-1.095541 0.6049,0 1.0955,0.490583 1.0955,1.095541"
       id="path1176" />
    <path
       style="fill:#f05928;fill-opacity:1;fill-rule:nonzero;stroke:none;stroke-width:0.352778"
       d="m 1061.0145,-25.820201 c 0,0.606337 -0.4905,1.095541 -1.0955,1.095541 -0.605,0 -1.0955,-0.489204 -1.0955,-1.095541 0,-0.603578 0.4905,-1.095537 1.0955,-1.095537 0.605,0 1.0955,0.491959 1.0955,1.095537"
       id="path1178" />
    <g
       clip-path="url(#clip1)"
       clip-rule="nonzero"
       id="g1182"
       transform="matrix(0.35277777,0,0,0.35277777,715.375,-103.20531)">
      <path
         style="fill:none;stroke:#f05928;stroke-width:1;stroke-linecap:butt;stroke-linejoin:miter;stroke-miterlimit:10;stroke-opacity:1"
         d="M -0.00166039,-8.75479e-4 35.443905,70.350629 73.417793,20.320041 l 35.445567,7.898176 34.69084,9.117054 35.44557,26.083227 37.97388,-72.540201 35.4418,17.339761 35.44556,19.826573 35.44557,-19.826573 37.97388,12.101983 35.44557,24.558686"
         transform="matrix(1.035148,0,0,-1.035148,565.99,265.8155)"
         id="path1180" />
    </g>
    <g
       style="fill:#211e1e;fill-opacity:1"
       id="g1186"
       transform="matrix(0.35277777,0,0,0.35277777,715.375,-103.20531)">
      <g
         id="use1184"
         transform="translate(519.61731,285.67599)">
        <path
           style="stroke:none"
           d="m 3.25,-6.59375 c -1.8125,0 -2.796875,1.1875 -2.796875,3.3125 0,2.125 0.984375,3.3125 2.796875,3.3125 1.78125,0 2.78125,-1.1875 2.78125,-3.3125 0,-2.125 -1,-3.3125 -2.78125,-3.3125 z m 0,0.875 c 1.09375,0 1.640625,0.765625 1.640625,2.4375 0,1.65625 -0.546875,2.4375 -1.640625,2.4375 -1.109375,0 -1.671875,-0.78125 -1.671875,-2.4375 0,-1.671875 0.5625,-2.4375 1.671875,-2.4375 z m 0,0"
           id="path4384" />
      </g>
    </g>
    <g
       style="fill:#211e1e;fill-opacity:1"
       id="g1190"
       transform="matrix(0.35277777,0,0,0.35277777,715.375,-103.20531)">
      <g
         id="use1188"
         transform="translate(520.15137,241.09866)">
        <path
           style="stroke:none"
           d="m 4.75,-5.5625 -0.015625,-1 h -4 v 3.46875 c 0.453125,-0.046875 1.34375,-0.078125 1.734375,-0.078125 0.84375,0 1.359375,0.40625 1.359375,1.078125 0,0.734375 -0.515625,1.171875 -1.375,1.171875 -0.59375,0 -1.25,-0.25 -1.765625,-0.6875 L 0.25,-0.71875 c 0.640625,0.453125 1.546875,0.75 2.328125,0.75 C 4.046875,0.03125 5,-0.828125 5,-2.171875 5,-3.3125 4.09375,-4.15625 2.65625,-4.15625 H 1.765625 V -5.5625 Z m 0,0"
           id="path4380" />
      </g>
    </g>
    <g
       style="fill:#211e1e;fill-opacity:1"
       id="g1196"
       transform="matrix(0.35277777,0,0,0.35277777,715.375,-103.20531)">
      <g
         id="use1192"
         transform="translate(517.11084,195.78787)">
        <path
           style="stroke:none"
           d="M 2.515625,0 V -6.5625 H 0.125 v 0.984375 H 1.40625 V 0 Z m 0,0"
           id="path4376" />
      </g>
      <g
         id="use1194"
         transform="translate(520.73657,195.78787)">
        <path
           style="stroke:none"
           d="m 3.25,-6.59375 c -1.8125,0 -2.796875,1.1875 -2.796875,3.3125 0,2.125 0.984375,3.3125 2.796875,3.3125 1.78125,0 2.78125,-1.1875 2.78125,-3.3125 0,-2.125 -1,-3.3125 -2.78125,-3.3125 z m 0,0.875 c 1.09375,0 1.640625,0.765625 1.640625,2.4375 0,1.65625 -0.546875,2.4375 -1.640625,2.4375 -1.109375,0 -1.671875,-0.78125 -1.671875,-2.4375 0,-1.671875 0.5625,-2.4375 1.671875,-2.4375 z m 0,0"
           id="path4388" />
      </g>
    </g>
    <g
       style="fill:#d15426;fill-opacity:1"
       id="g1794"
       transform="matrix(0.35277777,0,0,0.35277777,715.375,-103.20531)">
      <g
         id="use1788"
         transform="translate(952.43683,188.0069)">
        <path
           style="stroke:none"
           d="M 1.25,0 H 8.9375 V -1.984375 H 3.671875 V -10.5 H 1.25 Z m 0,0"
           id="path4288" />
      </g>
      <g
         id="use1790"
         transform="translate(961.49683,188.0069)">
        <path
           style="stroke:none"
           d="m 2.25,-9.1875 c 0.875,0 1.453125,-0.578125 1.453125,-1.359375 0,-0.71875 -0.578125,-1.265625 -1.453125,-1.265625 -0.875,0 -1.453125,0.578125 -1.453125,1.3125 0,0.734375 0.578125,1.3125 1.453125,1.3125 z M 1.078125,0 h 2.34375 v -8.0625 h -2.34375 z m 0,0"
           id="path4284" />
      </g>
      <g
         id="use1792"
         transform="translate(966.01178,188.0069)">
        <path
           style="stroke:none"
           d="m 5.984375,-8.1875 c -1.09375,0 -2.046875,0.375 -2.671875,1.0625 V -8.0625 H 1.078125 V 0 h 2.34375 v -3.984375 c 0,-1.484375 0.8125,-2.1875 1.9375,-2.1875 1.03125,0 1.625,0.609375 1.625,1.90625 V 0 h 2.34375 v -4.625 c 0,-2.453125 -1.4375,-3.5625 -3.34375,-3.5625 z m 0,0"
           id="path4280" />
      </g>
    </g>
    <g
       style="fill:#d15426;fill-opacity:1"
       id="g1798"
       transform="matrix(0.35277777,0,0,0.35277777,715.375,-103.20531)">
      <g
         id="use1796"
         transform="translate(976.4668,188.0069)">
        <path
           style="stroke:none"
           d="m 8.984375,-4 c 0,-2.59375 -1.828125,-4.1875 -4.203125,-4.1875 -2.453125,0 -4.296875,1.734375 -4.296875,4.15625 0,2.390625 1.8125,4.15625 4.59375,4.15625 1.46875,0 2.59375,-0.453125 3.34375,-1.3125 l -1.25,-1.34375 C 6.609375,-2.015625 6,-1.75 5.140625,-1.75 3.921875,-1.75 3.0625,-2.375 2.828125,-3.375 H 8.9375 C 8.953125,-3.5625 8.984375,-3.828125 8.984375,-4 Z m -4.1875,-2.421875 c 1.046875,0 1.8125,0.65625 1.984375,1.6875 H 2.8125 c 0.15625,-1.046875 0.921875,-1.6875 1.984375,-1.6875 z m 0,0"
           id="path4292" />
      </g>
    </g>
  </g>
</svg>
